<?xml version="1.0" encoding="UTF-8" standalone="no"?>
<!-- Created with Inkscape (http://www.inkscape.org/) -->

<svg
   width="97.240456mm"
   height="97.240456mm"
   viewBox="0 0 97.240443 97.240444"
   version="1.1"
   id="svg1"
   xml:space="preserve"
   xmlns:xlink="http://www.w3.org/1999/xlink"
   xmlns="http://www.w3.org/2000/svg"
   xmlns:svg="http://www.w3.org/2000/svg"><defs
     id="defs1"><linearGradient
       id="linearGradient164"><stop
         style="stop-color:#b35e2c;stop-opacity:1;"
         offset="0"
         id="stop164" /><stop
         style="stop-color:#542001;stop-opacity:1;"
         offset="1"
         id="stop165" /></linearGradient><linearGradient
       id="linearGradient161"><stop
         style="stop-color:#813c1b;stop-opacity:1;"
         offset="0"
         id="stop161" /><stop
         style="stop-color:#d77d3a;stop-opacity:1;"
         offset="1"
         id="stop162" /></linearGradient><linearGradient
       xlink:href="#linearGradient161"
       id="linearGradient162"
       x1="116.50202"
       y1="156.01396"
       x2="82.097534"
       y2="76.453598"
       gradientUnits="userSpaceOnUse" /><linearGradient
       xlink:href="#linearGradient164"
       id="linearGradient165"
       x1="121.71365"
       y1="155.11847"
       x2="87.925255"
       y2="75.715736"
       gradientUnits="userSpaceOnUse" /></defs><g
     id="layer1"
     transform="translate(-53.904972,-65.224354)"><circle
       style="fill:#341b0b;fill-opacity:1;stroke:none;stroke-width:0.223;stroke-linecap:round;stroke-linejoin:round;paint-order:markers fill stroke"
       id="path156"
       cx="102.5252"
       cy="113.84458"
       r="48.620228" /><path
       id="circle156"
       style="fill:url(#linearGradient162);fill-opacity:1;stroke:none;stroke-width:0.218748;stroke-linecap:round;stroke-linejoin:round;paint-order:markers fill stroke"
       d="m 102.52505,66.151238 a 47.693172,47.693172 0 0 0 -47.693217,47.693212 47.693172,47.693172 0 0 0 47.693217,47.69321 47.693172,47.693172 0 0 0 47.69321,-47.69321 47.693172,47.693172 0 0 0 -47.69321,-47.693212 z m 0,1.694987 a 45.998119,45.998119 0 0 1 45.99822,45.998225 45.998119,45.998119 0 0 1 -45.99822,45.99823 45.998119,45.998119 0 0 1 -45.997713,-45.99823 45.998119,45.998119 0 0 1 45.997713,-45.998225 z" /><path
       id="circle160"
       style="fill:url(#linearGradient165);fill-opacity:1;stroke:none;stroke-width:0.205219;stroke-linecap:round;stroke-linejoin:round;paint-order:markers fill stroke"
       d="m 102.52505,69.100928 a 44.74345,44.74345 0 0 0 -44.743526,44.743522 44.74345,44.74345 0 0 0 44.743526,44.74352 44.74345,44.74345 0 0 0 44.74352,-44.74352 44.74345,44.74345 0 0 0 -44.74352,-44.743522 z m 0,2.444296 a 42.299397,42.299397 0 0 1 42.29974,42.299226 42.299397,42.299397 0 0 1 -42.29974,42.29974 42.299397,42.299397 0 0 1 -42.299231,-42.29974 42.299397,42.299397 0 0 1 42.299231,-42.299226 z" /><path
       id="circle157"
       style="fill:#9c4d1f;fill-opacity:1;stroke:none;stroke-width:0.215269;stroke-linecap:round;stroke-linejoin:round;paint-order:markers fill stroke"
       d="m 102.52505,66.909848 a 46.934673,46.934673 0 0 0 -46.934607,46.934602 46.934673,46.934673 0 0 0 46.934607,46.9346 46.934673,46.934673 0 0 0 46.9346,-46.9346 46.934673,46.934673 0 0 0 -46.9346,-46.934602 z m 0,3.7083 a 43.226452,43.226452 0 0 1 43.22681,43.226302 43.226452,43.226452 0 0 1 -43.22681,43.22682 43.226452,43.226452 0 0 1 -43.226306,-43.22682 43.226452,43.226452 0 0 1 43.226306,-43.226302 z" /></g></svg>
