<?xml version="1.0" encoding="UTF-8" standalone="no"?>
<!-- Created with Inkscape (http://www.inkscape.org/) -->

<svg
   width="82.905251mm"
   height="82.905251mm"
   viewBox="0 0 82.90524 82.905241"
   version="1.1"
   id="svg1"
   xml:space="preserve"
   xmlns:xlink="http://www.w3.org/1999/xlink"
   xmlns="http://www.w3.org/2000/svg"
   xmlns:svg="http://www.w3.org/2000/svg"><defs
     id="defs1"><linearGradient
       id="linearGradient204"><stop
         style="stop-color:#bb580a;stop-opacity:1;"
         offset="0"
         id="stop204" /><stop
         style="stop-color:#802f00;stop-opacity:1;"
         offset="1"
         id="stop205" /></linearGradient><radialGradient
       xlink:href="#linearGradient204"
       id="radialGradient205"
       cx="102.5252"
       cy="113.84458"
       fx="102.5252"
       fy="113.84458"
       r="24.139896"
       gradientUnits="userSpaceOnUse"
       gradientTransform="translate(-61.072575,-72.391956)" /></defs><circle
     style="fill:#ffcc00;fill-opacity:1;stroke:none;stroke-width:0.190125;stroke-linecap:round;stroke-linejoin:round;paint-order:markers fill stroke"
     id="circle165"
     cx="41.452625"
     cy="41.452625"
     r="41.452625" /><circle
     style="fill:#5e2909;fill-opacity:1;stroke:none;stroke-width:0.188008;stroke-linecap:round;stroke-linejoin:round;paint-order:markers fill stroke"
     id="circle166"
     cx="41.452625"
     cy="41.452625"
     r="40.991035" /><circle
     style="fill:#9c4d1f;fill-opacity:1;stroke:none;stroke-width:0.184327;stroke-linecap:round;stroke-linejoin:round;paint-order:markers fill stroke"
     id="circle167"
     cx="41.452625"
     cy="41.452625"
     r="40.18856" /><path
     id="circle168"
     style="fill:#1a1a1a;stroke-width:0.184327;stroke-linecap:round;stroke-linejoin:round;paint-order:markers fill stroke"
     d="m 41.456605,1.272518 v 15.198556 a 24.981796,24.981796 0 0 1 6.46576,0.858862 L 51.858035,2.641943 A 40.18856,40.18856 0 0 0 41.456605,1.272518 Z M 31.058273,2.641943 a 40.18856,40.18856 0 0 0 -9.692948,4.015259 l 7.625891,13.209013 a 24.981796,24.981796 0 0 1 6.009452,-2.510958 z m 30.489612,4.012675 -7.60419,13.170773 a 24.981796,24.981796 0 0 1 5.17746,3.966166 l 10.75025,-10.750248 a 40.18856,40.18856 0 0 0 -8.32352,-6.386691 z m -48.502466,6.387724 a 40.18856,40.18856 0 0 0 -6.38669,8.323523 l 13.207462,7.625379 a 24.981796,24.981796 0 0 1 3.968234,-5.159896 z m 63.211126,8.319389 -13.17335,7.605733 a 24.981796,24.981796 0 0 1 2.49442,6.02393 l 14.69367,-3.93723 a 40.18856,40.18856 0 0 0 -4.01474,-9.692433 z M 2.645537,31.055714 a 40.18856,40.18856 0 0 0 -1.369425,10.40143 h 15.195455 a 24.981796,24.981796 0 0 1 -5.17e-4,-0.005 24.981796,24.981796 0 0 1 0.885217,-6.4549 z m 63.788868,10.39678 a 24.981796,24.981796 0 0 1 -0.88521,6.45697 l 14.72261,3.94498 a 40.18856,40.18856 0 0 0 1.36943,-10.40195 z m -49.077104,6.4611 -14.711247,3.94188 a 40.18856,40.18856 0 0 0 4.014742,9.69243 l 13.20953,-7.6264 a 24.981796,24.981796 0 0 1 -2.513025,-6.00791 z m 45.683004,5.99861 a 24.981796,24.981796 0 0 1 -3.96565,5.15782 l 10.79779,10.79727 a 40.18856,40.18856 0 0 0 6.38669,-8.323 z m -39.20278,5.16454 -10.791589,10.79159 a 40.18856,40.18856 0 0 0 8.323523,6.38669 l 7.627958,-13.21212 a 24.981796,24.981796 0 0 1 -5.159892,-3.96616 z m 30.08344,3.95841 a 24.981796,24.981796 0 0 1 -6.00584,2.51251 l 3.94395,14.72003 a 40.18856,40.18856 0 0 0 9.69294,-4.01474 z m -18.917713,2.51561 -3.943945,14.71745 a 40.18856,40.18856 0 0 0 10.401948,1.36942 v -15.20372 a 24.981796,24.981796 0 0 1 -0.009,5.2e-4 24.981796,24.981796 0 0 1 -6.449223,-0.88367 z" /><path
     id="path28"
     style="fill:#b6140e;fill-opacity:1;stroke-width:0.184327;stroke-linecap:round;stroke-linejoin:round;paint-order:markers fill stroke"
     d="m 51.856485,2.64091 -3.93568,14.688509 a 24.981796,24.981796 0 0 1 6.02444,2.497005 L 61.549435,6.655652 A 40.18856,40.18856 0 0 0 51.856485,2.64091 Z m -30.48961,4.015776 a 40.18856,40.18856 0 0 0 -8.323006,6.38669 l 10.789522,10.789522 a 24.981796,24.981796 0 0 1 5.159375,-3.967716 z m 48.5035,6.383072 -10.75025,10.750765 a 24.981796,24.981796 0 0 1 3.96358,5.178491 l 13.17336,-7.605733 a 40.18856,40.18856 0 0 0 -6.38669,-8.323523 z M 6.659762,21.364315 A 40.18856,40.18856 0 0 0 2.64502,31.057264 l 14.71073,3.94188 a 24.981796,24.981796 0 0 1 2.510958,-6.00945 z m 73.611523,9.688299 -14.69419,3.93723 a 24.981796,24.981796 0 0 1 0.85731,6.46265 24.981796,24.981796 0 0 1 0,0.002 h 15.20631 a 40.18856,40.18856 0 0 0 -1.36943,-10.40143 z M 1.276628,41.455594 a 40.18856,40.18856 0 0 0 1.369426,10.40143 l 14.711763,-3.94187 a 24.981796,24.981796 0 0 1 -0.886767,-6.45956 z m 64.272567,6.45232 a 24.981796,24.981796 0 0 1 -2.50993,6.00584 l 13.21832,7.63157 a 40.18856,40.18856 0 0 0 4.01526,-9.69243 z m -45.679386,6.01255 -13.20953,7.62589 a 40.18856,40.18856 0 0 0 6.38669,8.32353 l 10.79159,-10.79159 a 24.981796,24.981796 0 0 1 -3.96875,-5.15783 z m 39.205876,5.14853 a 24.981796,24.981796 0 0 1 -5.15627,3.9672 l 7.63105,13.21728 a 40.18856,40.18856 0 0 0 8.32301,-6.38669 z m -30.079301,3.97288 -7.627959,13.21211 a 40.18856,40.18856 0 0 0 9.692432,4.01475 l 3.943429,-14.71797 a 24.981796,24.981796 0 0 1 -6.007902,-2.50889 z m 18.920291,2.50579 a 24.981796,24.981796 0 0 1 -6.45749,0.88625 v 15.20321 a 40.18856,40.18856 0 0 0 10.40195,-1.36943 z" /><path
     style="fill:#2e6912;fill-opacity:1;stroke-width:0.184327;stroke-linecap:round;stroke-linejoin:round;paint-order:markers fill stroke"
     d="M 41.458155,1.273035 A 40.18856,40.18856 0 0 0 31.056723,2.64246 l 3.942395,14.713314 a 24.981796,24.981796 0 0 1 6.453357,-0.8847 24.981796,24.981796 0 0 1 0.006,0 z"
     id="path168" /><path
     id="path38"
     style="fill:#930d08;fill-opacity:1;stroke-width:0.184327;stroke-linecap:round;stroke-linejoin:round;paint-order:markers fill stroke"
     d="m 49.666736,10.811743 -1.746147,6.517432 a 24.981796,24.981796 0 0 1 6.024439,2.497005 l 3.373954,-5.843571 a 31.731346,31.731346 0 0 0 -7.652246,-3.170866 z m -24.041427,3.221509 a 31.731346,31.731346 0 0 0 -6.552571,5.038969 l 4.760433,4.760433 a 24.981796,24.981796 0 0 1 5.159375,-3.967717 z m 38.266915,4.984192 -4.772318,4.772835 a 24.981796,24.981796 0 0 1 3.963582,5.178495 l 5.844088,-3.373954 a 31.731346,31.731346 0 0 0 -5.035352,-6.577376 z m -49.857422,6.604765 a 31.731346,31.731346 0 0 0 -3.189469,7.632092 l 6.510197,1.744596 a 24.981796,24.981796 0 0 1 2.510958,-6.009452 z m 58.060022,7.620723 -6.517948,1.746664 a 24.981796,24.981796 0 0 1 0.857312,6.462654 24.981796,24.981796 0 0 1 0,5.17e-4 24.981796,24.981796 0 0 1 0,5.17e-4 24.981796,24.981796 0 0 1 0,5.16e-4 24.981796,24.981796 0 0 1 0,5.17e-4 h 6.749975 a 31.731346,31.731346 0 0 0 0,-0.0016 31.731346,31.731346 0 0 0 -1.089339,-8.209835 z M 9.7213704,41.455351 a 31.731346,31.731346 0 0 0 1.1260296,8.20415 l 6.510197,-1.744596 A 24.981796,24.981796 0 0 1 16.470829,41.455351 Z M 65.548971,47.90767 a 24.981796,24.981796 0 0 1 -2.509925,6.005835 l 5.832202,3.367236 a 31.731346,31.731346 0 0 0 3.188436,-7.628475 z m -45.679383,6.012553 -5.832202,3.367236 a 31.731346,31.731346 0 0 0 5.040519,6.551022 l 4.760433,-4.760433 a 24.981796,24.981796 0 0 1 -3.96875,-5.157825 z m 39.205876,5.148523 a 24.981796,24.981796 0 0 1 -5.156275,3.9672 l 3.367237,5.832202 a 31.731346,31.731346 0 0 0 6.549988,-5.038452 z m -30.079301,3.972884 -3.367236,5.832202 a 31.731346,31.731346 0 0 0 7.630542,3.187403 l 1.744596,-6.510714 A 24.981796,24.981796 0 0 1 28.996163,63.04163 Z m 18.920292,2.50579 a 24.981796,24.981796 0 0 1 -6.457487,0.886251 v 6.749976 a 31.731346,31.731346 0 0 0 8.202083,-1.12603 z" /><path
     style="fill:#234f0e;fill-opacity:1;stroke-width:0.184327;stroke-linecap:round;stroke-linejoin:round;paint-order:markers fill stroke"
     d="m 41.452767,9.7213704 a 31.731346,31.731346 0 0 0 -8.198466,1.1239626 l 1.744596,6.510197 a 24.981796,24.981796 0 0 1 6.453353,-0.884701 24.981796,24.981796 0 0 1 0.0062,0 V 9.7213704 a 31.731346,31.731346 0 0 0 -0.0057,0 z"
     id="path26" /><circle
     style="fill:#000000;fill-opacity:1;stroke:none;stroke-width:0.114581;stroke-linecap:round;stroke-linejoin:round;paint-order:markers fill stroke"
     id="circle190"
     cx="41.452625"
     cy="41.452625"
     r="24.981796" /><path
     id="path27"
     style="fill:#0d0d0d;stroke-width:0.184327;stroke-linecap:round;stroke-linejoin:round;paint-order:markers fill stroke;fill-opacity:1"
     d="M 41.456384 9.6510905 L 41.456384 16.470829 A 24.981796 24.981796 0 0 1 47.922139 17.329692 L 49.68689 10.744564 A 31.801638 31.801638 0 0 0 41.456384 9.6510905 z M 33.237764 10.77712 A 31.801638 31.801638 0 0 0 25.589136 13.973307 L 28.990995 19.865971 A 24.981796 24.981796 0 0 1 35.000448 17.355013 L 33.237764 10.77712 z M 57.352572 13.920597 L 53.943477 19.825146 A 24.981796 24.981796 0 0 1 59.120939 23.791313 L 63.943384 18.968868 A 31.801638 31.801638 0 0 0 57.352572 13.920597 z M 19.024162 19.021061 A 31.801638 31.801638 0 0 0 13.973307 25.589136 L 19.865971 28.990995 A 24.981796 24.981796 0 0 1 23.834204 23.831104 L 19.024162 19.021061 z M 68.98752 25.55813 L 63.082971 28.967224 A 24.981796 24.981796 0 0 1 65.577393 34.991146 L 72.163037 33.226396 A 31.801638 31.801638 0 0 0 68.98752 25.55813 z M 10.778153 33.234664 A 31.801638 31.801638 0 0 0 9.6510905 41.452767 A 31.801638 31.801638 0 0 0 9.6516073 41.456901 L 16.471346 41.456901 A 24.981796 24.981796 0 0 1 16.470829 41.45225 A 24.981796 24.981796 0 0 1 17.356047 34.997347 L 10.778153 33.234664 z M 66.434188 41.45225 A 24.981796 24.981796 0 0 1 65.548971 47.90922 L 72.12738 49.671903 A 31.801638 31.801638 0 0 0 73.254443 41.452767 A 31.801638 31.801638 0 0 0 73.254443 41.45225 L 66.434188 41.45225 z M 17.35708 47.913354 L 10.779187 49.676038 A 31.801638 31.801638 0 0 0 13.977441 57.323633 L 19.870105 53.921257 A 24.981796 24.981796 0 0 1 17.35708 47.913354 z M 63.04008 53.911955 A 24.981796 24.981796 0 0 1 59.07443 59.069779 L 63.884989 63.879822 A 31.801638 31.801638 0 0 0 68.932743 57.314331 L 63.04008 53.911955 z M 23.837305 59.076497 L 19.027262 63.88654 A 31.801638 31.801638 0 0 0 25.595337 68.93481 L 28.997196 63.042664 A 24.981796 24.981796 0 0 1 23.837305 59.076497 z M 53.92074 63.034912 A 24.981796 24.981796 0 0 1 47.914905 65.54742 L 49.677588 72.12583 A 31.801638 31.801638 0 0 0 57.323116 68.928092 L 53.92074 63.034912 z M 35.003031 65.550521 L 33.240348 72.128414 A 31.801638 31.801638 0 0 0 41.452767 73.254443 A 31.801638 31.801638 0 0 0 41.461035 73.253927 L 41.461035 66.433671 A 24.981796 24.981796 0 0 1 41.45225 66.434188 A 24.981796 24.981796 0 0 1 35.003031 65.550521 z " /><path
     id="rect191"
     style="fill:#ffcb00;fill-opacity:1;stroke:none;stroke-width:0.228716;stroke-linecap:round;stroke-linejoin:round;paint-order:markers fill stroke"
     d="m 41.270565,1.252364 v 15.231629 a 24.981796,24.981796 0 0 1 0.18191,-0.01292 24.981796,24.981796 0 0 1 0.1819,0.0046 V 1.252364 Z m -10.046927,1.322917 -0.3514,0.09405 3.946012,14.725716 a 24.981796,24.981796 0 0 1 0.355534,-0.07751 z m 20.457667,0 -3.94033,14.704529 a 24.981796,24.981796 0 0 1 0.35088,0.09715 l 3.94085,-14.707629 z m -30.171286,3.97185 -0.315226,0.181902 7.635709,13.225032 a 24.981796,24.981796 0 0 1 0.319361,-0.174666 z m 39.884906,0 -7.61349,13.186792 a 24.981796,24.981796 0 0 1 0.31678,0.179318 L 61.710145,6.729033 Z M 13.15549,12.898165 12.898141,13.155514 23.7042,23.961572 a 24.981796,24.981796 0 0 1 0.257349,-0.257348 z m 56.593965,0 -10.7642,10.764201 a 24.981796,24.981796 0 0 1 0.25734,0.257348 l 10.76421,-10.7642 z m -63.020446,8.296651 -0.181901,0.315226 13.232267,7.639842 a 24.981796,24.981796 0 0 1 0.174666,-0.31987 z m 69.446926,0 -13.18421,7.611938 a 24.981796,24.981796 0 0 1 0.17932,0.31626 l 13.18679,-7.612972 z m -73.506627,9.677448 -0.09405,0.3514 14.742253,3.95014 a 24.981796,24.981796 0 0 1 0.07751,-0.35605 z m 77.566327,0 -14.70763,3.94084 a 24.981796,24.981796 0 0 1 0.0972,0.35089 l 14.70453,-3.94033 z M 1.252341,41.270594 v 0.3638 h 15.231628 a 24.981796,24.981796 0 0 1 -0.01292,-0.1819 24.981796,24.981796 0 0 1 0.01292,-0.1819 z m 65.177414,0 a 24.981796,24.981796 0 0 1 0.005,0.1819 24.981796,24.981796 0 0 1 -0.0129,0.1819 h 15.23112 v -0.3638 z m -49.112245,6.46059 -14.742253,3.95014 0.09405,0.3514 14.725716,-3.94549 a 24.981796,24.981796 0 0 1 -0.07751,-0.35605 z m 48.270435,0 a 24.981796,24.981796 0 0 1 -0.0775,0.35605 l 14.7252,3.94549 0.0941,-0.3514 z m -45.80857,6.02392 -13.232267,7.63984 0.181901,0.31523 13.225032,-7.63519 a 24.981796,24.981796 0 0 1 -0.174666,-0.31988 z m 43.34619,5.2e-4 a 24.981796,24.981796 0 0 1 -0.17415,0.31936 l 13.22452,7.63519 0.1819,-0.31523 z m -39.421365,5.18779 -10.806059,10.80606 0.257349,0.25735 10.806059,-10.80606 A 24.981796,24.981796 0 0 1 23.7042,58.943414 Z m 35.496545,5.2e-4 a 24.981796,24.981796 0 0 1 -0.25735,0.25735 l 10.80606,10.80554 0.25735,-0.25735 z m -30.37076,4.00751 -7.635192,13.22451 0.315226,0.1819 7.639844,-13.23226 a 24.981796,24.981796 0 0 1 -0.319878,-0.17415 z m 25.24497,0 a 24.981796,24.981796 0 0 1 -0.31936,0.17415 l 7.63933,13.23226 0.31522,-0.1819 z m -19.257221,2.55901 -3.945496,14.7252 0.3514,0.0941 3.950146,-14.74173 a 24.981796,24.981796 0 0 1 -0.35605,-0.0775 z m 13.269471,0 a 24.981796,24.981796 0 0 1 -0.35605,0.0775 l 3.95015,14.74173 0.3514,-0.0941 z m -6.81664,0.91106 v 15.23111 h 0.36381 v -15.23111 a 24.981796,24.981796 0 0 1 -0.1819,0.0129 24.981796,24.981796 0 0 1 -0.18191,-0.0129 z" /><path
     style="color:#000000;fill:#be9d1d;fill-opacity:1;stroke-linecap:round;stroke-linejoin:round;-inkscape-stroke:none;paint-order:markers fill stroke"
     d="m 41.452815,9.078747 c -17.871725,0 -32.374999,14.501321 -32.374999,32.373047 -2e-6,17.87173 14.503273,32.375 32.374999,32.375 17.87173,0 32.37305,-14.50327 32.37305,-32.375 0,-17.871727 -14.50132,-32.373048 -32.37305,-32.373047 z m 0,1.345703 c 17.14484,-1e-6 31.0293,13.882509 31.0293,31.027344 0,17.14484 -13.88446,31.0293 -31.0293,31.0293 -17.144835,0 -31.029297,-13.88446 -31.029296,-31.0293 0,-17.144835 13.884462,-31.027344 31.029296,-31.027344 z"
     id="circle191" /><path
     style="color:#000000;fill:#ffd531;stroke-linecap:round;stroke-linejoin:round;-inkscape-stroke:none;paint-order:markers fill stroke"
     d="m 41.452815,9.377575 c -17.709593,0 -32.074218,14.364625 -32.074218,32.074219 -10e-7,17.7096 14.364624,32.07422 32.074218,32.07422 17.7096,0 32.07422,-14.36462 32.07422,-32.07422 0,-17.709595 -14.36462,-32.07422 -32.07422,-32.074219 z m 0,0.746094 c 17.30697,-10e-7 31.32813,14.021158 31.32813,31.328125 0,17.30697 -14.02116,31.33008 -31.32813,31.33008 -17.306967,0 -31.330079,-14.02311 -31.330078,-31.33008 10e-7,-17.306966 14.023112,-31.328125 31.330078,-31.328125 z"
     id="circle202" /><circle
     style="fill:url(#radialGradient205);stroke:none;stroke-width:0.11072;stroke-linecap:round;stroke-linejoin:round;paint-order:markers fill stroke"
     id="circle203"
     cx="41.452625"
     cy="41.452625"
     r="24.139896" /><path
     style="color:#000000;fill:#c29405;fill-opacity:1;stroke-linecap:round;stroke-linejoin:round;-inkscape-stroke:none;paint-order:markers fill stroke"
     d="m 41.452815,16.686169 c -13.672497,0 -24.767577,11.093125 -24.767578,24.765625 10e-7,13.6725 11.095081,24.76758 24.767578,24.76758 13.6725,0 24.76758,-11.09508 24.76758,-24.76758 0,-13.6725 -11.09508,-24.765624 -24.76758,-24.765625 z m 0,1.027344 c 13.1164,0 23.73828,10.621881 23.73828,23.738281 0,13.1164 -10.62188,23.73828 -23.73828,23.73828 -13.116401,0 -23.73828,-10.62188 -23.738281,-23.73828 1e-6,-13.1164 10.62188,-23.738281 23.738281,-23.738281 z"
     id="path202" /><path
     style="color:#000000;fill:#ffd531;stroke-linecap:round;stroke-linejoin:round;-inkscape-stroke:none;paint-order:markers fill stroke"
     d="m 41.452815,16.914685 c -13.548461,0 -24.537108,10.988649 -24.537109,24.537109 1e-6,13.54846 10.988648,24.53906 24.537109,24.53906 13.54846,0 24.53711,-10.9906 24.53711,-24.53906 0,-13.54846 -10.98865,-24.537109 -24.53711,-24.537109 z m 0,0.570312 c 13.24044,1e-6 23.9668,10.726357 23.9668,23.966797 0,13.24044 -10.72636,23.96875 -23.9668,23.96875 -13.240437,0 -23.968749,-10.72831 -23.968749,-23.96875 0,-13.24044 10.728312,-23.966797 23.968749,-23.966797 z"
     id="path203" /><path
     id="text230"
     style="font-weight:bold;font-size:4.80116px;line-height:1.25;font-family:Poppins;-inkscape-font-specification:'Poppins Bold';fill:#f9f9f9;stroke-width:0.118873"
     d="m 25.440618,9.344296 q 0.100738,-0.180196 0.09115,-0.165979 0.284617,-0.533361 0.436927,-0.863271 0.156709,-0.331715 0.225216,-0.652889 0.0685,-0.321175 -0.02909,-0.55867 -0.0741,-0.18032 -0.19923,-0.247137 -0.125129,-0.06682 -0.292258,0.0019 -0.167126,0.06867 -0.21147,0.235982 -0.04175,0.161098 0.05222,0.389798 l -0.725681,0.298209 q -0.144828,-0.37745 -0.09831,-0.689589 0.05092,-0.313944 0.248408,-0.533902 0.201892,-0.221764 0.505358,-0.34647 0.523369,-0.21507 0.897497,-0.05522 0.378529,0.158036 0.555645,0.589044 0.193383,0.470592 0.0386,1.007148 -0.156591,0.532157 -0.496337,1.11901 l 1.187475,-0.487975 0.251216,0.611328 -2.207823,0.907274 z M 27.30525,6.588582 q -0.175795,-0.477819 0.0097,-0.852191 0.185447,-0.37437 0.682427,-0.578597 0.329854,-0.135549 0.609942,-0.116987 0.284484,0.01676 0.484562,0.16587 0.204474,0.147307 0.305684,0.393598 0.119282,0.290272 0.05005,0.534632 -0.07104,0.23996 -0.23744,0.385454 l 0.0072,0.01759 q 0.285027,-0.01945 0.509686,0.114419 0.224657,0.133873 0.34936,0.437335 0.112054,0.272678 0.07127,0.53621 -0.03821,0.257309 -0.231303,0.475448 -0.188695,0.21635 -0.518549,0.351899 Q 28.870073,8.67014 28.446776,8.540772 28.02789,8.409624 27.795223,7.893476 l 0.730078,-0.300015 q 0.08392,0.191713 0.236466,0.262687 0.150736,0.06657 0.353047,-0.01656 0.171524,-0.07049 0.224116,-0.20521 Q 29.39412,7.493469 29.32725,7.330742 29.2405,7.119635 29.066206,7.083303 28.894503,7.040763 28.599833,7.161863 l -0.140738,0.05784 -0.251216,-0.61133 0.140737,-0.05784 q 0.224302,-0.09217 0.329917,-0.222968 0.108206,-0.136998 0.02688,-0.334911 -0.06507,-0.15833 -0.189167,-0.210147 -0.124103,-0.05182 -0.278038,0.01145 -0.167127,0.06868 -0.209122,0.204173 -0.03759,0.133686 0.01066,0.288643 z m -10.167727,5.827524 -0.458565,-0.601091 1.047179,-0.798878 2.105347,2.759716 -0.672915,0.513359 -1.646782,-2.158624 z m 1.42144,-1.084395 -0.458565,-0.601091 1.047178,-0.798878 2.105346,2.759715 -0.672915,0.513359 -1.646782,-2.158623 z m -6.964817,10.338972 q -0.0029,-0.206417 -0.0041,-0.189323 -0.02019,-0.604203 -0.05324,-0.966072 -0.03014,-0.365625 -0.131405,-0.678028 -0.101266,-0.312401 -0.304525,-0.469276 -0.15433,-0.119117 -0.296107,-0.114415 -0.141768,0.0048 -0.252173,0.147741 -0.110404,0.14302 -0.06516,0.3101 0.04439,0.160398 0.240138,0.311472 l -0.479355,0.621089 Q 9.934113,20.389509 9.818325,20.095924 9.705453,19.798581 9.766495,19.509346 q 0.06396,-0.293003 0.264418,-0.552733 0.345718,-0.447933 0.749641,-0.496578 0.406833,-0.0524 0.77573,0.232309 0.402768,0.310856 0.536999,0.852917 0.13046,0.539155 0.129666,1.217265 l 0.784394,-1.01634 0.523232,0.403825 -1.458395,1.889631 z m 1.658848,-2.149361 q -0.0029,-0.206417 -0.0041,-0.189323 -0.02019,-0.604203 -0.05324,-0.966073 -0.03014,-0.365624 -0.131405,-0.678027 -0.101266,-0.312402 -0.304525,-0.469276 -0.154332,-0.119117 -0.296104,-0.114405 -0.141768,0.0048 -0.252174,0.14774 -0.110404,0.14302 -0.06515,0.310109 0.04439,0.160398 0.240132,0.311464 l -0.479355,0.621088 q -0.314148,-0.254461 -0.429935,-0.548047 -0.11287,-0.297333 -0.05183,-0.586578 0.06397,-0.292993 0.264421,-0.552723 0.345715,-0.447943 0.749638,-0.496588 0.406832,-0.0524 0.775728,0.232309 0.40277,0.310856 0.537001,0.852916 0.130461,0.539157 0.129665,1.217266 l 0.784394,-1.016339 0.523232,0.403824 -1.458395,1.889632 z m -7.561822,9.446652 -0.697665,-0.29128 0.507446,-1.215423 3.203139,1.337313 -0.326082,0.78103 -2.505478,-1.04603 z m 1.581803,-1.36975 q -0.754713,-0.315093 -1.0682,-0.78605 -0.311662,-0.475348 -0.04054,-1.124751 0.271126,-0.649404 0.826435,-0.757645 0.557134,-0.112623 1.311846,0.202471 0.763484,0.318749 1.075151,0.794105 0.313486,0.470957 0.04236,1.12036 -0.271124,0.6494 -0.828261,0.76202 -0.555308,0.10825 -1.318794,-0.21051 z M 7.994756,25.869411 Q 7.551579,25.684385 7.274335,25.68199 q -0.281633,-0.0043 -0.408036,0.298541 -0.126402,0.302762 0.07462,0.500053 0.196639,0.195453 0.639814,0.380479 0.298377,0.124574 0.510484,0.171907 0.207719,0.0455 0.374554,-0.0085 0.164348,-0.06005 0.2522,-0.270854 0.08794,-0.210611 0.01343,-0.36539 Q 8.654331,26.227238 8.475924,26.111527 8.293127,25.993988 7.994754,25.869423 Z M 5.698754,39.025484 q -0.105684,-0.17735 -0.09817,-0.16195 -0.319593,-0.51316 -0.529145,-0.81001 -0.20892,-0.30158 -0.452814,-0.5215 -0.24389,-0.21991 -0.498363,-0.25414 -0.193205,-0.0259 -0.313628,0.049 -0.120426,0.075 -0.144516,0.25404 -0.02409,0.17907 0.09863,0.30112 0.118638,0.1167 0.363691,0.14967 l -0.104587,0.77756 q -0.399294,-0.0633 -0.646353,-0.25965 -0.246429,-0.20108 -0.338173,-0.48209 -0.0911,-0.28572 -0.04737,-0.61089 0.07543,-0.56077 0.400921,-0.80486 0.326125,-0.2488 0.787949,-0.18667 0.504236,0.0678 0.891514,0.47014 0.382565,0.40169 0.720928,0.98934 l 0.171138,-1.27236 0.655036,0.0881 -0.318191,2.36567 z m -1.690899,-2.90937 -0.749289,-0.10079 0.175579,-1.30536 3.440112,0.46272 -0.112825,0.83882 -2.690829,-0.36193 z m 1.651689,10.35934 q 0.363444,-0.11872 0.316677,-0.48185 -0.0322,-0.24995 -0.26721,-0.32516 -0.235012,-0.0752 -0.734904,-0.0108 0.159556,0.0849 0.262812,0.2538 0.103255,0.16888 0.131805,0.39052 0.03887,0.30183 -0.05337,0.55342 -0.09696,0.25219 -0.324574,0.42054 -0.232933,0.16425 -0.586632,0.20981 -0.348961,0.045 -0.626581,-0.0631 -0.278209,-0.11278 -0.453705,-0.35866 -0.176104,-0.25059 -0.22287,-0.61372 -0.0899,-0.69796 0.308131,-1.03209 0.398028,-0.33413 1.242175,-0.44288 0.613077,-0.0789 1.02851,-0.0174 0.410113,0.0574 0.651632,0.29482 0.24091,0.23264 0.299231,0.68538 0.04616,0.35841 -0.06251,0.6313 -0.109287,0.26816 -0.322753,0.43469 -0.214059,0.16185 -0.489885,0.21652 z m -0.951168,-0.27541 q -0.02551,-0.19807 -0.158594,-0.30078 -0.137801,-0.10211 -0.345306,-0.0754 -0.226349,0.0292 -0.333196,0.16755 -0.10681,0.13843 -0.08009,0.34591 0.02672,0.2075 0.16985,0.31372 0.137798,0.10209 0.354736,0.0742 0.202774,-0.0261 0.314915,-0.16045 0.106809,-0.13844 0.07766,-0.36478 z m 4.64413,11.20311 q -0.180196,-0.10074 -0.165976,-0.0911 -0.533362,-0.28463 -0.863269,-0.43694 -0.331717,-0.1567 -0.652889,-0.22521 -0.321176,-0.0685 -0.558671,0.0291 -0.180321,0.0741 -0.247145,0.1992 -0.06683,0.12512 0.0019,0.29227 0.06867,0.16712 0.235983,0.21147 0.161097,0.0418 0.389796,-0.0522 l 0.29821,0.72569 q -0.377598,0.14446 -0.689589,0.0983 -0.313946,-0.0509 -0.533902,-0.2484 -0.221765,-0.2019 -0.34647,-0.50537 -0.215071,-0.52337 -0.05522,-0.89749 0.158031,-0.37853 0.589041,-0.55565 0.470591,-0.19338 1.007149,-0.0386 0.532154,0.15658 1.119011,0.49633 l -0.487974,-1.18747 0.611331,-0.25122 0.907272,2.20782 z m -2.089555,-2.10753 q -0.756465,0.31086 -1.311157,0.1995 -0.556498,-0.11574 -0.823981,-0.76665 -0.267482,-0.65091 0.04865,-1.12011 0.31432,-0.47358 1.070785,-0.78444 0.765262,-0.31448 1.321756,-0.19874 0.554692,0.11135 0.822174,0.76226 0.267483,0.65091 -0.04684,1.1245 -0.316123,0.46921 -1.081385,0.78368 z m -0.712084,-1.73284 q -0.444204,0.18254 -0.641936,0.3769 -0.202133,0.19615 -0.07743,0.49962 0.124705,0.30347 0.40636,0.30083 0.277254,-8.5e-4 0.721458,-0.18339 0.299068,-0.1229 0.482525,-0.2394 0.179059,-0.1147 0.258829,-0.27086 0.07356,-0.15875 -0.01319,-0.36986 -0.08675,-0.2111 -0.248873,-0.26786 -0.168329,-0.0593 -0.376302,-0.0151 -0.212368,0.0461 -0.511435,0.16905 z m 5.906641,10.96305 q 0.08208,0.49956 -0.32243,0.80815 -0.204144,0.15573 -0.451205,0.17685 -0.250862,0.024 -0.513556,-0.11658 -0.266462,-0.13761 -0.505838,-0.45139 -0.239371,-0.31377 -0.298808,-0.60334 -0.0661,-0.29048 0.02326,-0.52611 0.08559,-0.23275 0.28973,-0.38849 0.204144,-0.15573 0.430431,-0.17259 0.223306,-0.0209 0.434282,0.0754 -0.05744,-0.27914 0.03281,-0.52143 0.08648,-0.23942 0.31709,-0.41534 0.268419,-0.20475 0.568813,-0.21866 0.296624,-0.011 0.577512,0.14554 0.277997,0.15273 0.494295,0.43626 0.216306,0.28353 0.293046,0.59579 0.07385,0.30847 -0.01511,0.59166 -0.09276,0.28606 -0.36117,0.49083 -0.234402,0.17877 -0.488322,0.19853 -0.257525,0.0231 -0.504898,-0.10523 z m -1.20183,-0.54841 q -0.154978,0.11829 -0.168948,0.27243 -0.02061,0.15328 0.09186,0.30072 0.112478,0.14744 0.268648,0.17184 0.153287,0.0206 0.308265,-0.0977 0.147423,-0.11251 0.165173,-0.26953 0.01396,-0.15418 -0.09564,-0.29784 -0.109591,-0.14365 -0.26576,-0.16805 -0.156159,-0.0244 -0.303619,0.088 z m 1.023014,-0.26611 q 0.135561,0.17769 0.317479,0.21233 0.178152,0.0375 0.348267,-0.0923 0.158774,-0.12114 0.180093,-0.30486 0.01844,-0.18749 -0.12,-0.36896 -0.138435,-0.18145 -0.31837,-0.20566 -0.182826,-0.028 -0.3416,0.0932 -0.166329,0.12692 -0.18099,0.31152 -0.01754,0.18084 0.115127,0.35473 z m 7.771036,8.93055 -0.461922,0.59851 -1.042684,-0.80472 2.120771,-2.74788 0.670027,0.51712 -1.658853,2.14936 z m -1.138563,-3.02301 q 0.173059,-0.34093 -0.116802,-0.56465 -0.199502,-0.15397 -0.418853,-0.041 -0.21934,0.11304 -0.527307,0.512 0.172892,-0.0527 0.365302,-0.006 0.192426,0.0465 0.369345,0.18294 0.240909,0.18593 0.353585,0.42906 0.109806,0.24689 0.06786,0.52688 -0.04857,0.28085 -0.266459,0.56317 -0.21498,0.27856 -0.487695,0.39843 -0.276527,0.11685 -0.574424,0.0673 -0.301719,-0.0527 -0.591564,-0.27637 -0.557101,-0.42996 -0.511917,-0.94769 0.04519,-0.5177 0.565221,-1.19149 0.377671,-0.48935 0.714946,-0.73959 0.330613,-0.24937 0.669234,-0.25231 0.334861,-0.006 0.696224,0.27306 0.286084,0.22079 0.402193,0.4906 0.112356,0.26689 0.07916,0.5356 -0.03696,0.26579 -0.19331,0.49949 z m -0.867319,0.47783 q -0.158097,-0.12201 -0.324826,-0.10053 -0.169627,0.0253 -0.297464,0.19087 -0.139447,0.18069 -0.117113,0.35408 0.02233,0.17341 0.187956,0.30124 0.165626,0.12783 0.341934,0.10173 0.169628,-0.0252 0.303275,-0.1984 0.124921,-0.16186 0.109257,-0.33613 -0.02234,-0.1734 -0.203024,-0.31286 z m 7.606865,5.90806 2.204171,-2.18168 0.767882,0.32058 -2.182536,2.09282 1.364623,0.56972 -0.267462,0.64063 -2.119335,-0.88482 z m 12.591374,3.21097 -0.10078,0.74928 -1.305356,-0.17558 0.462708,-3.44012 0.838816,0.11283 -0.361929,2.69083 z m -2.308762,-1.16934 q 0.411281,0.29521 0.343467,0.79945 -0.03423,0.25446 -0.194064,0.44407 -0.160475,0.19431 -0.445556,0.28074 -0.285731,0.0911 -0.67686,0.0385 -0.39114,-0.0526 -0.637918,-0.21533 -0.25214,-0.15866 -0.35556,-0.38848 -0.104065,-0.2251 -0.06983,-0.47956 0.03423,-0.25448 0.182106,-0.4265 0.143166,-0.17266 0.360385,-0.25378 -0.238002,-0.15674 -0.345503,-0.39191 -0.108135,-0.23045 -0.06947,-0.5179 0.045,-0.33459 0.247611,-0.55682 0.201972,-0.21752 0.511246,-0.30548 0.304585,-0.0885 0.658011,-0.041 0.353441,0.0475 0.628501,0.21408 0.270345,0.1659 0.407668,0.42906 0.136683,0.26787 0.09169,0.60245 -0.0393,0.29217 -0.20448,0.48586 -0.165814,0.1984 -0.431417,0.28265 z m -1.237568,0.4621 q -0.02599,0.1932 0.07317,0.31208 0.0938,0.12297 0.277594,0.14769 0.183782,0.0247 0.311463,-0.0684 0.122972,-0.0938 0.148955,-0.28701 0.02473,-0.18379 -0.07381,-0.30739 -0.09916,-0.11888 -0.278226,-0.14298 -0.179063,-0.0241 -0.306751,0.0691 -0.127684,0.0932 -0.152398,0.27697 z m 0.535211,-0.91156 q 0.221481,0.0298 0.374617,-0.0744 0.152517,-0.0994 0.181026,-0.3115 0.02662,-0.19791 -0.08821,-0.3429 -0.119544,-0.14562 -0.345749,-0.17604 -0.226203,-0.0304 -0.370559,0.0796 -0.149042,0.10954 -0.175684,0.30742 -0.02789,0.20735 0.09229,0.34826 0.115473,0.14026 0.332249,0.16942 z m 10.734439,1.26086 q 0.0602,0.16963 0.16547,0.24236 0.10583,0.0774 0.28035,0.055 0.2688,-0.0347 0.35633,-0.2856 0.0881,-0.24627 0.0278,-0.75149 -0.0825,0.17842 -0.26369,0.29765 -0.18593,0.11977 -0.42173,0.15018 -0.46216,0.0595 -0.77806,-0.19703 -0.32063,-0.25595 -0.38805,-0.77942 -0.0444,-0.34426 0.0638,-0.62187 0.10334,-0.27699 0.35332,-0.4578 0.24526,-0.18024 0.6084,-0.22699 0.72625,-0.0935 1.06753,0.32274 0.34188,0.42101 0.45182,1.27461 0.11541,0.89602 -0.12581,1.36816 -0.24533,0.47745 -0.90556,0.5625 -0.3537,0.0456 -0.61244,-0.065 -0.26285,-0.10517 -0.41462,-0.31575 -0.15648,-0.20996 -0.21469,-0.47572 z m 0.25594,-0.95346 q 0.20277,-0.0261 0.32376,-0.16634 0.11688,-0.13487 0.0883,-0.35655 -0.0291,-0.22638 -0.16818,-0.33791 -0.14374,-0.11093 -0.37481,-0.0812 -0.20751,0.0267 -0.30962,0.16449 -0.10622,0.14312 -0.0782,0.36007 0.0285,0.22164 0.16285,0.33378 0.13429,0.11215 0.35595,0.0836 z m 11.3092,-2.1926 0.28737,0.69929 -1.21827,0.50062 -1.31934,-3.21057 0.78286,-0.3217 1.03198,2.51128 z m -3.72629,1.69063 0.0159,-3.10126 0.76967,-0.31628 -0.0635,3.02312 1.36778,-0.56208 0.26388,0.64212 -2.12426,0.87293 z m 9.78995,-5.20516 1.17949,-0.89981 -0.398,-0.52171 q -0.0122,0.14086 -0.10787,0.2976 -0.0958,0.15674 -0.25451,0.27788 -0.28353,0.2163 -0.56698,0.2287 -0.2871,0.0156 -0.52977,-0.12214 -0.24269,-0.13781 -0.42439,-0.37597 -0.33742,-0.44231 -0.28692,-0.89352 0.0534,-0.44741 0.50705,-0.79349 0.30244,-0.23072 0.60336,-0.29879 0.30377,-0.0644 0.56608,0.0286 0.2623,0.093 0.45822,0.32624 l -0.63134,0.48163 q -0.11209,-0.0999 -0.2596,-0.11294 -0.14459,-0.009 -0.29581,0.10614 -0.17769,0.13555 -0.17812,0.31529 -4.2e-4,0.17975 0.14373,0.36879 0.14132,0.18523 0.30703,0.21431 0.16574,0.0291 0.33962,-0.10358 0.12855,-0.0981 0.16269,-0.22577 0.037,-0.12391 -0.0144,-0.24618 l 0.62377,-0.47587 1.25456,1.64448 -1.76546,1.34685 z m 9.06115,-9.2563 0.5985,0.46193 -0.80472,1.04268 -2.74788,-2.12078 0.51712,-0.67002 2.14937,1.65886 z m -2.33645,2.73158 q 0.16252,0.0773 0.28839,0.0544 0.12961,-0.0201 0.23707,-0.15942 0.16559,-0.21458 0.05,-0.45394 -0.11181,-0.23645 -0.51169,-0.55107 0.0677,0.18452 0.024,0.39693 -0.0467,0.21618 -0.19201,0.4044 -0.2847,0.36889 -0.6895,0.41085 -0.40769,0.0458 -0.82552,-0.27674 -0.27479,-0.21207 -0.39465,-0.48478 -0.12279,-0.26895 -0.0739,-0.57357 0.0459,-0.30086 0.26969,-0.5907 0.4474,-0.57968 0.98307,-0.52665 0.53944,0.056 1.22076,0.58178 0.7152,0.55199 0.87848,1.05641 0.16414,0.51109 -0.24258,1.03808 -0.21789,0.28231 -0.47898,0.38713 -0.26032,0.11126 -0.51645,0.0699 -0.25912,-0.0378 -0.4882,-0.18458 z m -0.49321,-0.85516 q 0.12492,-0.16186 0.1113,-0.34656 -0.0128,-0.17804 -0.18968,-0.31456 -0.18068,-0.13946 -0.35785,-0.12003 -0.18006,0.0233 -0.32242,0.20766 -0.12783,0.16562 -0.10258,0.33526 0.026,0.1763 0.19924,0.30995 0.17692,0.13655 0.35118,0.12088 0.17425,-0.0157 0.3108,-0.19261 z m 5.15542,-10.90717 0.60552,0.2528 1.40443,2.2146 -0.34989,0.83808 -1.93946,-0.80971 -0.1502,0.3598 -0.64941,-0.27112 0.15022,-0.35982 -0.57042,-0.23814 0.31326,-0.75032 0.57041,0.23815 z m 1.1264,2.26341 -0.80675,-1.20247 -0.30777,0.73716 z m 3.07432,-11.79256 0.74928,0.10078 -0.17557,1.30537 -3.44011,-0.46271 0.11283,-0.83883 2.69082,0.36193 z m -0.5284,4.28528 0.19775,-1.47029 -0.65032,-0.0875 q 0.091,0.10818 0.13409,0.28673 0.0432,0.1785 0.0165,0.37644 -0.0475,0.35344 -0.23882,0.56281 -0.19192,0.21406 -0.46096,0.28824 -0.26905,0.0742 -0.56595,0.0343 -0.55135,-0.0742 -0.83468,-0.42892 -0.27861,-0.35413 -0.20255,-0.91963 0.0507,-0.377 0.21533,-0.63791 0.16936,-0.26029 0.42055,-0.38004 0.25121,-0.11971 0.55469,-0.0933 l -0.10585,0.78699 q -0.1499,0.009 -0.26334,0.10394 -0.10881,0.0957 -0.13415,0.2842 -0.0298,0.22149 0.097,0.34889 0.12678,0.12741 0.36242,0.15908 0.23091,0.0311 0.36867,-0.0655 0.13772,-0.0967 0.1669,-0.3134 0.0215,-0.16022 -0.0446,-0.27469 -0.0614,-0.11381 -0.18425,-0.16392 l 0.10459,-0.77756 2.04993,0.27573 -0.29601,2.20073 z m -0.0544,-13.23788 q 0.50703,-0.0461 0.82065,0.22988 0.31361,0.27603 0.38221,0.80896 0.0456,0.3537 -0.0449,0.61943 -0.0898,0.27045 -0.28564,0.42512 -0.19522,0.15934 -0.45943,0.19307 -0.31124,0.0401 -0.52937,-0.09 -0.2134,-0.13073 -0.31087,-0.32911 l -0.0188,0.002 q -0.055,0.28034 -0.24243,0.4627 -0.18745,0.18239 -0.51286,0.22425 -0.29239,0.0377 -0.53639,-0.0699 -0.23864,-0.1035 -0.39939,-0.34647 -0.16011,-0.23826 -0.20567,-0.59196 -0.0729,-0.56592 0.16162,-0.94131 0.2351,-0.37068 0.79388,-0.46182 l 0.10084,0.78285 q -0.20687,0.0317 -0.31493,0.16046 -0.10333,0.12833 -0.0754,0.3453 0.0237,0.18394 0.14023,0.26958 0.1218,0.0898 0.29633,0.0673 0.22634,-0.0292 0.30657,-0.18808 0.0856,-0.15483 0.0449,-0.47081 l -0.0194,-0.15092 0.65551,-0.0845 0.0194,0.15093 q 0.031,0.24052 0.12994,0.37639 0.10432,0.13998 0.31654,0.11264 0.16976,-0.0219 0.25197,-0.12828 0.0821,-0.10645 0.0609,-0.27153 -0.0231,-0.17919 -0.14306,-0.25484 -0.1194,-0.0709 -0.28156,-0.0644 z m -3.05086,-10.435905 0.69928,-0.287361 0.50064,1.218269 -3.21057,1.319338 -0.32173,-0.782903 2.51128,-1.031976 z m -1.22023,2.54745 0.60693,-0.24941 2.55903,0.572885 0.3452,0.84002 -1.94394,0.79884 0.1482,0.36065 -0.65091,0.26748 -0.1482,-0.36065 -0.57175,0.23495 -0.30905,-0.75207 0.57174,-0.23495 z m 2.39696,0.803995 -1.42073,-0.27983 0.30362,0.73889 z m -7.59992,-9.457921 q 0.20013,0.05067 0.18392,0.04508 0.58885,0.136886 0.94694,0.198615 0.36098,0.06551 0.68893,0.04856 0.32796,-0.01694 0.53209,-0.17272 0.15502,-0.118202 0.18716,-0.256388 0.0322,-0.138156 -0.0774,-0.281803 -0.10958,-0.143666 -0.28267,-0.143194 -0.16643,0.0014 -0.363,0.151315 l -0.47588,-0.623771 q 0.32734,-0.237305 0.64046,-0.273894 0.31644,-0.03207 0.58001,0.101751 0.26645,0.137617 0.46545,0.398465 0.34321,0.449878 0.2856,0.852642 -0.0547,0.406531 -0.42516,0.689167 -0.40451,0.308591 -0.96286,0.297914 -0.55455,-0.01352 -1.20934,-0.189804 l 0.77869,1.020713 -0.52548,0.400884 -1.44778,-1.897777 z m -6.05877,-8.588476 0.46192,-0.598516 1.04268,0.804736 -2.12078,2.747872 -0.67002,-0.517113 1.65886,-2.149373 z m 1.36913,1.338982 q 0.32591,-0.391149 0.74284,-0.417732 0.41695,-0.02658 0.8423,0.301703 0.28232,0.217885 0.40629,0.469731 0.12771,0.254755 0.0986,0.502576 -0.0254,0.250736 -0.18802,0.461528 -0.19174,0.248442 -0.43798,0.310665 -0.24333,0.05845 -0.45254,-0.01291 l -0.0114,0.01541 q 0.15933,0.237125 0.15575,0.498612 -0.004,0.261494 -0.20406,0.521226 -0.18012,0.233384 -0.42873,0.329819 -0.24209,0.0952 -0.52741,0.03742 -0.28171,-0.05524 -0.56403,-0.273136 -0.45169,-0.348619 -0.55131,-0.779872 -0.0959,-0.428368 0.2348,-0.887921 l 0.62486,0.482252 q -0.12391,0.168656 -0.10926,0.336129 0.0177,0.163821 0.19086,0.297464 0.14678,0.113312 0.28977,0.09149 0.14964,-0.02263 0.25715,-0.161884 0.13945,-0.180684 0.0838,-0.349792 -0.049,-0.169983 -0.30122,-0.364612 l -0.12044,-0.09298 0.40382,-0.523224 0.12044,0.09298 q 0.19197,0.148159 0.35806,0.174229 0.17273,0.02518 0.30347,-0.144192 0.10459,-0.135494 0.0875,-0.268887 -0.0171,-0.133389 -0.14895,-0.235052 -0.14302,-0.110412 -0.28138,-0.07902 -0.13456,0.03431 -0.24465,0.153539 z m -9.26846,-5.460668 0.29127,-0.697676 1.21544,0.507448 -1.3373,3.203137 -0.78105,-0.326084 1.04603,-2.505471 z m -10.68947,-2.447796 0.10078,-0.749286 1.30536,0.175575 -0.4627,3.440118 -0.83882,-0.11282 0.36192,-2.690834 z m 1.55336,2.291155 q 0.17731,-0.105738 0.16194,-0.09814 0.51317,-0.319601 0.81003,-0.529153 0.30156,-0.208941 0.52148,-0.452813 0.21993,-0.243884 0.25415,-0.498361 0.0259,-0.193215 -0.0489,-0.31364 -0.075,-0.120424 -0.25403,-0.14452 -0.17907,-0.02407 -0.30115,0.09859 -0.11671,0.118628 -0.14967,0.363685 l -0.77756,-0.104586 q 0.0637,-0.399238 0.25966,-0.646353 0.20107,-0.246425 0.48207,-0.338164 0.28574,-0.09108 0.61089,-0.04737 0.56079,0.07543 0.80488,0.400922 0.24879,0.326119 0.18667,0.787945 -0.0678,0.504237 -0.47015,0.89151 -0.40168,0.382565 -0.98934,0.720932 l 1.27237,0.171134 -0.0881,0.655043 -2.36567,-0.318191 z M 35.455087,5.08086 q -0.104477,-0.811143 0.146644,-1.318115 0.255835,-0.507578 0.953796,-0.597478 0.697961,-0.0899 1.069354,0.33689 0.376107,0.426179 0.480589,1.237322 0.105694,0.820582 -0.150142,1.328158 -0.251119,0.506977 -0.94908,0.596876 Q 36.308286,6.754403 35.932176,6.328226 35.560815,5.90144 35.455125,5.080857 Z M 37.31318,4.841534 Q 37.25183,4.365224 37.115284,4.123921 36.978116,3.877907 36.652719,3.91982 q -0.325401,0.04191 -0.395748,0.314654 -0.07094,0.268026 -0.0096,0.744342 0.0413,0.320681 0.106357,0.528042 0.06445,0.202641 0.194653,0.32011 0.134292,0.112147 0.36066,0.08298 0.226391,-0.02911 0.323163,-0.171024 0.100887,-0.147246 0.111892,-0.359597 0.01039,-0.217075 -0.03092,-0.537766 z" /><path
     id="circle248"
     style="fill:#823000;fill-opacity:1;stroke:none;stroke-width:0.033242;stroke-linecap:round;stroke-linejoin:round;paint-order:markers fill stroke"
     d="m 41.269885,21.901266 c -1.57689,-0.0083 -2.598117,2.084047 -1.68738,3.349444 0.31918,1.303978 -0.13202,2.644954 -0.12098,3.966804 -0.14003,1.43027 -0.17384,2.89232 -0.39621,4.30143 -0.447662,0.90056 -1.632595,0.96703 -2.316411,1.64014 -1.237037,0.86971 -2.062606,2.18679 -2.731047,3.5018 -0.764871,0.72291 -1.930931,0.4032 -2.883986,0.59089 -1.951163,0.11632 -3.90677,0.42864 -5.859311,0.36445 -1.072496,-0.56385 -2.581673,-0.25504 -3.143169,0.88417 -0.763755,1.34018 0.414998,3.15326 1.929308,3.09509 0.775066,0.0342 1.37787,-0.63261 2.169916,-0.47817 2.386518,0.22727 4.783145,0.36405 7.17048,0.60252 0.967498,0.44032 1.023509,1.68444 1.715575,2.40449 0.890399,1.26262 2.227463,2.12025 3.587019,2.77666 0.740716,0.75731 0.409896,1.93705 0.606986,2.88928 0.10017,1.89037 0.43062,3.78917 0.31617,5.67827 -0.48976,0.88864 -0.57383,2.11107 0.20204,2.87741 0.93212,1.08671 2.8576,0.76692 3.43136,-0.53058 0.39557,-0.71172 0.23078,-1.55383 -0.0849,-2.25499 -0.0868,-1.28632 0.22135,-2.55776 0.24108,-3.84349 0.1377,-1.43131 0.17712,-2.89227 0.39503,-4.30316 0.43773,-0.90338 1.61953,-0.96899 2.30451,-1.6336 1.2788,-0.90511 2.13066,-2.27551 2.79344,-3.65317 0.73678,-0.72394 1.88934,-0.43215 2.82294,-0.59528 1.85692,-0.13225 3.71706,-0.38537 5.57753,-0.37274 0.8161,0.34664 1.82481,0.69247 2.64148,0.13074 1.22386,-0.65481 1.41852,-2.54662 0.31869,-3.41256 -0.71329,-0.67367 -1.813,-0.67997 -2.64589,-0.24207 -1.25282,0.13626 -2.49433,-0.20266 -3.74772,-0.20985 -1.49969,-0.14164 -3.02989,-0.18234 -4.50806,-0.41633 -0.9126,-0.44833 -0.97915,-1.64929 -1.67461,-2.32781 -0.88146,-1.21597 -2.19128,-2.03301 -3.51166,-2.67233 -0.74506,-0.75586 -0.41018,-1.93335 -0.61022,-2.88603 -0.11698,-1.96688 -0.43693,-3.939197 -0.33319,-5.908376 0.60152,-1.156873 0.10632,-2.813119 -1.19825,-3.216678 -0.24578,-0.08743 -0.51107,-0.115358 -0.77055,-0.09637 z" /><circle
     style="fill:#bf7014;fill-opacity:1;stroke:none;stroke-width:0.033242;stroke-linecap:round;stroke-linejoin:round;paint-order:markers fill stroke"
     id="circle230"
     cx="41.446285"
     cy="41.460251"
     r="7.247623" /><circle
     style="fill:#e18f11;fill-opacity:1;stroke:none;stroke-width:0.030421;stroke-linecap:round;stroke-linejoin:round;paint-order:markers fill stroke"
     id="circle231"
     cx="41.446285"
     cy="41.460251"
     r="6.6325979" /><circle
     style="fill:#b06e09;fill-opacity:1;stroke:none;stroke-width:0.0226696;stroke-linecap:round;stroke-linejoin:round;paint-order:markers fill stroke"
     id="circle232"
     cx="41.446285"
     cy="41.460251"
     r="4.9425817" /><circle
     style="fill:#eda435;fill-opacity:1;stroke:none;stroke-width:0.0213646;stroke-linecap:round;stroke-linejoin:round;paint-order:markers fill stroke"
     id="circle233"
     cx="41.446285"
     cy="41.460251"
     r="4.6580529" /><circle
     style="fill:#b06e09;fill-opacity:1;stroke:none;stroke-width:0.013665;stroke-linecap:round;stroke-linejoin:round;paint-order:markers fill stroke"
     id="circle234"
     cx="41.446285"
     cy="41.460251"
     r="2.9793313" /><circle
     style="fill:#eda435;fill-opacity:1;stroke:none;stroke-width:0.0128784;stroke-linecap:round;stroke-linejoin:round;paint-order:markers fill stroke"
     id="circle235"
     cx="41.446285"
     cy="41.460251"
     r="2.8078203" /><path
     id="rect231"
     style="vector-effect:non-scaling-stroke;fill:#e18f11;stroke:none;stroke-width:0.278786;stroke-linecap:round;stroke-linejoin:round;-inkscape-stroke:hairline;paint-order:markers fill stroke"
     d="m 48.469242,39.637738 9.716555,0.775852 v 1.941949 l -9.716555,0.775851 c -0.689486,-0.932591 -0.770647,-2.378529 0,-3.493652 z" /><path
     id="path231"
     style="vector-effect:non-scaling-stroke;fill:#f4a52b;fill-opacity:1;stroke:none;stroke-width:0.214786;stroke-linecap:round;stroke-linejoin:round;-inkscape-stroke:hairline;paint-order:markers fill stroke"
     d="m 48.945956,40.294223 9.239841,0.484267 v 1.212149 l -9.239841,0.484267 c -0.655658,-0.58211 -0.732836,-1.484642 0,-2.180683 z" /><circle
     style="fill:#eda435;fill-opacity:1;stroke:none;stroke-width:0.00687527;stroke-linecap:round;stroke-linejoin:round;paint-order:markers fill stroke"
     id="circle237"
     cx="58.859463"
     cy="41.460251"
     r="1.4989867" /><circle
     style="fill:#fcc26b;fill-opacity:1;stroke:none;stroke-width:0.00297374;stroke-linecap:round;stroke-linejoin:round;paint-order:markers fill stroke"
     id="circle238"
     cx="58.859463"
     cy="41.460251"
     r="0.64835197" /><path
     id="path238"
     style="vector-effect:non-scaling-stroke;fill:#e18f11;stroke:none;stroke-width:0.278786;stroke-linecap:round;stroke-linejoin:round;-inkscape-stroke:hairline;paint-order:markers fill stroke"
     d="m 34.433154,39.637738 -9.716558,0.775852 v 1.941949 l 9.716558,0.775851 c 0.689485,-0.932591 0.770647,-2.378529 0,-3.493652 z" /><path
     id="path239"
     style="vector-effect:non-scaling-stroke;fill:#f4a52b;fill-opacity:1;stroke:none;stroke-width:0.214786;stroke-linecap:round;stroke-linejoin:round;-inkscape-stroke:hairline;paint-order:markers fill stroke"
     d="m 33.956439,40.294223 -9.239843,0.484267 v 1.212149 l 9.239843,0.484267 c 0.655659,-0.58211 0.732837,-1.484642 0,-2.180683 z" /><circle
     style="fill:#eda435;fill-opacity:1;stroke:none;stroke-width:0.00687527;stroke-linecap:round;stroke-linejoin:round;paint-order:markers fill stroke"
     id="circle239"
     cx="-24.042934"
     cy="41.460251"
     r="1.4989867"
     transform="scale(-1,1)" /><circle
     style="fill:#fcc26b;fill-opacity:1;stroke:none;stroke-width:0.00297374;stroke-linecap:round;stroke-linejoin:round;paint-order:markers fill stroke"
     id="circle240"
     cx="-24.042934"
     cy="41.460251"
     r="0.64835197"
     transform="scale(-1,1)" /><path
     id="path240"
     style="vector-effect:non-scaling-stroke;fill:#e18f11;stroke:none;stroke-width:0.278786;stroke-linecap:round;stroke-linejoin:round;-inkscape-stroke:hairline;paint-order:markers fill stroke"
     d="m 43.193113,34.424284 -0.775852,-9.716556 h -1.941948 l -0.775852,9.716556 c 0.932591,0.689485 2.378529,0.770647 3.493652,0 z" /><path
     id="path241"
     style="vector-effect:non-scaling-stroke;fill:#f4a52b;fill-opacity:1;stroke:none;stroke-width:0.214786;stroke-linecap:round;stroke-linejoin:round;-inkscape-stroke:hairline;paint-order:markers fill stroke"
     d="m 42.536629,33.947569 -0.484268,-9.239841 h -1.212149 l -0.484267,9.239841 c 0.58211,0.655659 1.484643,0.732837 2.180684,0 z" /><circle
     style="fill:#eda435;fill-opacity:1;stroke:none;stroke-width:0.00687527;stroke-linecap:round;stroke-linejoin:round;paint-order:markers fill stroke"
     id="circle241"
     cx="-24.034065"
     cy="-41.370598"
     r="1.4989867"
     transform="matrix(0,-1,-1,0,0,0)" /><circle
     style="fill:#fcc26b;fill-opacity:1;stroke:none;stroke-width:0.00297374;stroke-linecap:round;stroke-linejoin:round;paint-order:markers fill stroke"
     id="circle242"
     cx="-24.034065"
     cy="-41.370598"
     r="0.64835197"
     transform="matrix(0,-1,-1,0,0,0)" /><path
     id="path243"
     style="vector-effect:non-scaling-stroke;fill:#e18f11;stroke:none;stroke-width:0.278786;stroke-linecap:round;stroke-linejoin:round;-inkscape-stroke:hairline;paint-order:markers fill stroke"
     d="m 43.193113,48.480025 -0.775852,9.716556 h -1.941948 l -0.775852,-9.716556 c 0.932591,-0.689485 2.378529,-0.770647 3.493652,0 z" /><path
     id="path244"
     style="vector-effect:non-scaling-stroke;fill:#f4a52b;fill-opacity:1;stroke:none;stroke-width:0.214786;stroke-linecap:round;stroke-linejoin:round;-inkscape-stroke:hairline;paint-order:markers fill stroke"
     d="m 42.536629,48.95674 -0.484268,9.239841 H 40.840212 L 40.355945,48.95674 c 0.58211,-0.655659 1.484643,-0.732837 2.180684,0 z" /><circle
     style="fill:#eda435;fill-opacity:1;stroke:none;stroke-width:0.00687527;stroke-linecap:round;stroke-linejoin:round;paint-order:markers fill stroke"
     id="circle244"
     cx="58.870243"
     cy="-41.370598"
     r="1.4989867"
     transform="rotate(90)" /><circle
     style="fill:#fcc26b;fill-opacity:1;stroke:none;stroke-width:0.00297374;stroke-linecap:round;stroke-linejoin:round;paint-order:markers fill stroke"
     id="circle245"
     cx="58.870243"
     cy="-41.370598"
     r="0.64835197"
     transform="rotate(90)" /></svg>
