<?xml version="1.0" encoding="UTF-8" standalone="no"?>
<!-- Created with Inkscape (http://www.inkscape.org/) -->

<svg
   width="144.30185mm"
   height="138.26692mm"
   viewBox="0 0 144.30185 138.26692"
   version="1.1"
   id="svg1"
   xml:space="preserve"
   xmlns:xlink="http://www.w3.org/1999/xlink"
   xmlns="http://www.w3.org/2000/svg"
   xmlns:svg="http://www.w3.org/2000/svg"><defs
     id="defs1"><linearGradient
       id="linearGradient15"><stop
         style="stop-color:#7d0000;stop-opacity:1;"
         offset="0"
         id="stop15" /><stop
         style="stop-color:#ff0000;stop-opacity:1;"
         offset="1"
         id="stop16" /></linearGradient><linearGradient
       xlink:href="#linearGradient15"
       id="linearGradient16"
       x1="110.78221"
       y1="159.39899"
       x2="106.89655"
       y2="72.562805"
       gradientUnits="userSpaceOnUse" /></defs><g
     id="layer1"
     transform="translate(-38.137163,-47.05257)"><path
       style="fill:#ffffff;stroke:none"
       d="m 111.75397,185.15879 c -0.22507,-0.18874 -0.57556,-1.1875 -1.23723,-3.52565 -3.53073,-12.47649 -6.53793,-19.96146 -8.91199,-22.18211 -1.38413,-1.2947 -2.568547,-1.3479 -4.804181,-0.21582 -1.309653,0.66319 -4.252529,2.74851 -6.254816,4.43218 -4.261641,3.58348 -6.79556,5.86022 -12.017261,10.79759 -1.699786,1.60723 -3.264225,2.96583 -3.476531,3.01911 -0.540841,0.13575 -0.86267,-0.11845 -0.913896,-0.72185 -0.02408,-0.28363 0.362353,-2.1203 0.858739,-4.08148 1.572455,-6.21263 2.270862,-9.67634 2.677086,-13.27685 0.575347,-5.09951 0.07729,-6.9408 -2.048153,-7.57199 -3.199872,-0.95026 -11.90624,1.02753 -23.033764,5.2325 -3.175373,1.19993 -3.72068,1.27309 -3.795357,0.50916 -0.0518,-0.52991 0.385506,-1.16295 5.333945,-7.72142 1.634009,-2.16564 2.956134,-3.95052 2.938058,-3.9664 -0.01808,-0.0159 -1.261923,0.0314 -2.764103,0.105 -5.993179,0.29373 -8.064199,-0.41851 -8.824798,-3.03487 -0.440244,-1.51439 -0.225242,-3.49934 1.390438,-12.8369 0.808648,-4.67345 1.480712,-8.73243 1.493475,-9.01997 l 0.02321,-0.52279 -4.731187,-2.51192 c -2.602153,-1.38155 -4.906634,-2.67745 -5.121068,-2.87977 -0.7142,-0.67385 -0.474212,-1.28939 0.788178,-2.0216 0.930098,-0.53947 10.237156,-4.96742 10.452858,-4.97308 0.07071,-0.002 0.281236,-0.12135 0.467824,-0.26554 0.357458,-0.27623 0.427725,-0.63146 1.847913,-9.342009 0.256349,-1.57228 0.593846,-3.14751 0.749994,-3.50051 0.562081,-1.27068 1.884381,-2.19535 4.156469,-2.90656 0.802051,-0.25106 1.077727,-0.52813 0.735759,-0.73948 -0.0752,-0.0465 -0.770811,-0.98937 -1.545811,-2.09532 -3.113697,-4.44334 -6.396665,-8.64744 -9.007427,-11.5347 -0.796879,-0.88127 -1.448871,-1.73423 -1.448871,-1.89545 0,-0.39358 0.470124,-0.79649 0.92236,-0.79048 0.36704,0.005 1.617513,0.41971 7.043746,2.33669 5.439129,1.92154 10.108655,3.12822 14.105085,3.64496 4.829314,0.62443 6.63153,0.0313 7.289387,-2.39902 0.231988,-0.85703 0.257754,-1.41567 0.184438,-3.99888 -0.122482,-4.31557 -0.629781,-7.47286 -2.173062,-13.52457 -0.910311,-3.56962 -1.103374,-4.80173 -0.831885,-5.30901 0.335139,-0.62621 0.781331,-0.40205 2.786399,1.3999 7.023561,6.31202 14.955805,11.66193 19.608182,13.22475 1.660563,0.55781 3.190008,0.58477 4.24859,0.0749 0.963545,-0.46411 2.679678,-2.17267 3.682188,-3.66592 2.32951,-3.46983 5.17539,-9.02992 7.83509,-15.30763 1.90236,-4.49018 2.25917,-4.9811 3.11545,-4.28653 0.24251,0.19671 0.57788,1.13078 1.29389,3.60372 1.31233,4.53247 1.78201,6.04553 2.56703,8.26957 2.41804,6.85058 4.38559,10.11505 6.74849,11.19682 0.73457,0.3363 0.95904,0.36666 2.20275,0.29789 1.73844,-0.0961 2.64496,-0.4011 5.9553,-2.00345 4.61091,-2.23188 10.74999,-6.08758 17.34158,-10.89152 4.45844,-3.2493 4.81123,-3.41659 5.31315,-2.51942 0.21184,0.37867 0.18922,0.501 -0.35067,1.89669 -1.03221,2.66843 -2.65445,7.3575 -3.35085,9.68563 -1.37223,4.58746 -3.00533,11.61654 -2.7567,11.86517 0.0513,0.0513 1.74978,-0.0893 3.77449,-0.31239 2.02472,-0.22307 3.97422,-0.40438 4.33222,-0.40291 0.79868,0.003 1.73297,0.45994 2.18109,1.06606 0.1846,0.24968 0.38021,0.45397 0.43469,0.45397 0.0545,0 0.18618,-0.39261 0.29266,-0.87248 0.10647,-0.47986 0.28455,-1.05011 0.39573,-1.26722 0.25186,-0.49186 1.18166,-1.31949 1.71391,-1.52559 0.69585,-0.26945 12.83515,-2.47327 14.67964,-2.66501 0.99727,-0.10366 1.79038,0.16322 2.20171,0.74088 0.55945,0.78567 0.52871,1.50637 -0.1575,3.69273 -1.15769,3.68854 -3.06363,9.99917 -4.81187,15.93221 -2.74623,9.319929 -2.78678,9.460939 -2.78678,9.690939 0,0.11992 0.18777,0.28764 0.41727,0.3727 1.31259,0.4865 10.60284,4.91879 10.90502,5.20268 0.37952,0.35654 0.4622,0.8767 0.2133,1.34178 -0.20407,0.38132 -1.22541,1.09407 -4.22999,2.95197 -2.7446,1.69714 -6.90162,4.33387 -9.70263,6.15424 -1.3117,0.85247 -1.69027,1.17089 -1.6122,1.35606 0.47941,1.13712 0.70551,2.19689 0.71525,3.35257 0.0288,3.4154 -1.8655,6.20823 -5.56399,8.20317 l -1.14193,0.61595 1.91569,2.6082 c 2.57222,3.50207 6.50197,8.60832 8.8386,11.48472 1.0508,1.29354 2.02789,2.52072 2.1713,2.72706 0.51762,0.74475 0.20571,1.36979 -0.68356,1.36979 -0.19653,0 -1.37886,-0.33509 -2.62741,-0.74465 -6.36779,-2.08879 -11.13864,-3.43148 -14.86412,-4.18327 -3.58155,-0.72275 -4.86612,-0.88446 -7.0685,-0.88981 -1.72551,-0.004 -1.98059,0.031 -2.64748,0.36498 -0.40589,0.20329 -0.86656,0.54694 -1.02369,0.76366 -1.07484,1.4824 0.0838,7.14044 3.88088,18.95221 2.10309,6.54212 2.33289,7.57752 1.76121,7.93522 -0.41596,0.26026 -0.95293,-0.002 -2.19675,-1.07287 -4.81118,-4.14226 -11.5028,-9.07216 -15.87339,-11.69436 -1.81885,-1.09125 -4.57092,-2.3916 -5.65594,-2.67242 -1.26853,-0.32832 -2.68858,-0.30462 -3.38821,0.0565 -2.68208,1.38454 -5.39189,8.06833 -9.29447,22.92489 -0.51517,1.96118 -1.03238,3.75153 -1.14936,3.97856 -0.31565,0.61262 -0.71814,0.77967 -1.10233,0.4575 z"
       id="path1" /><path
       id="path3"
       style="fill:#ffcc00;stroke:none"
       d="m 173.62764,76.83717 c -0.63514,0.06979 -1.94729,0.302654 -4.55527,0.766879 -2.53447,0.451139 -4.90524,0.868198 -5.26841,0.926558 -1.14682,0.18428 -1.49851,0.657392 -1.85002,2.48667 -0.38564,2.006948 -4.39353,29.974333 -4.39353,30.658593 0,0.36828 0.0525,0.37178 2.35179,0.15038 2.83312,-0.2728 2.97949,-0.30161 3.33468,-0.65681 0.18566,-0.18565 0.47935,-0.77779 0.65268,-1.31568 0.33913,-1.05239 4.86298,-15.65287 5.23947,-16.910079 0.98767,-3.298207 4.86956,-15.683611 4.98161,-15.89412 0.10044,-0.18868 0.14215,-0.282184 -0.493,-0.212391 z m -17.5829,4.116028 c -0.40642,-0.09154 -2.44833,0.1942 -14.47354,1.748731 -6.0781,0.785729 -7.87426,1.084752 -8.21603,1.368392 -0.10871,0.0902 -0.24305,0.518973 -0.29818,0.952913 -0.0988,0.777379 -1.05699,6.443443 -1.23403,7.296712 l -0.0909,0.438216 0.73742,-0.07855 c 0.40557,-0.0432 1.95203,-0.268555 3.43649,-0.500744 2.05382,-0.32124 2.7413,-0.379943 2.87579,-0.245463 0.13448,0.134479 0.0257,1.019929 -0.45527,3.704166 -0.34763,1.940108 -1.01359,5.678179 -1.48001,8.306989 -0.46642,2.62882 -1.46464,8.15973 -2.21796,12.29072 -2.08685,11.44378 -2.13036,11.70008 -2.03915,11.93778 0.0488,0.12727 0.19876,0.1883 0.3514,0.14314 0.14645,-0.0433 1.25643,-0.18718 2.46652,-0.31988 4.50434,-0.49398 5.52152,-0.66653 5.78311,-0.9803 0.13473,-0.1616 0.29143,-0.72477 0.3483,-1.25109 0.0987,-0.9136 0.29305,-1.97433 1.85725,-10.13685 3.16535,-16.51784 4.41365,-22.674297 4.75785,-23.467816 0.46523,-1.072559 0.79452,-1.20191 4.39921,-1.726509 1.21009,-0.1761 2.2473,-0.366554 2.30477,-0.422714 0.0575,-0.0562 0.21273,-0.784483 0.3452,-1.619022 0.13247,-0.834539 0.48014,-2.743207 0.77205,-4.241085 0.5227,-2.682167 0.52617,-2.72789 0.24029,-3.01377 -0.0813,-0.08128 -0.0351,-0.153456 -0.17053,-0.183968 z m -32.4714,3.195154 c -2.21448,0.005 -2.98914,0.153105 -5.12476,0.976685 -3.5005,1.349938 -6.88292,4.347373 -8.7359,7.742679 -1.36875,2.508038 -2.05264,4.895878 -2.17351,7.587134 -0.072,1.60329 -0.0372,2.08816 0.22635,3.13469 0.50869,2.02033 1.42915,3.64756 3.26285,5.76968 0.18076,0.2092 1.11404,1.04656 2.07377,1.86086 3.3177,2.81504 4.37631,4.27405 4.71186,6.49211 0.17487,1.15597 0.0192,2.43596 -0.39223,3.22668 -0.26634,0.51199 -1.09192,1.27199 -1.74046,1.60197 -0.74415,0.37862 -2.64123,0.47595 -3.36724,0.1726 -1.06541,-0.44516 -1.65514,-1.89218 -1.29552,-3.1781 0.16831,-0.60185 -0.0782,-0.56021 -2.7895,0.46974 -1.28402,0.48778 -2.68961,1.00419 -3.12384,1.14773 -0.44227,0.14621 -0.82439,0.37353 -0.86868,0.51677 -0.29391,0.95054 -0.54208,2.66844 -0.54208,3.75222 0,3.57348 2.5549,6.35005 6.48849,7.05125 1.01271,0.18052 2.75675,0.0271 4.39198,-0.38654 5.08767,-1.28696 9.56299,-5.64001 11.02568,-10.72441 0.53761,-1.86876 0.7588,-3.74877 0.64802,-5.50457 -0.30294,-4.80128 -2.17347,-7.95731 -6.92825,-11.68766 -1.68983,-1.32575 -2.4848,-2.23456 -3.06958,-3.51038 -0.28086,-0.61274 -0.3367,-1.002289 -0.33538,-2.329058 0.002,-2.034268 0.30406,-2.780644 1.64899,-4.072103 1.14851,-1.102859 2.16822,-1.497179 3.09128,-1.194759 1.01618,0.33293 1.1802,1.209167 0.87644,4.675684 -0.0902,1.029229 -0.078,1.487725 0.0408,1.561145 0.2599,0.16063 6.89895,-1.56078 7.2068,-1.86862 0.16858,-0.16858 0.45853,-2.279226 0.72967,-5.309753 0.36965,-4.131616 -0.45931,-6.294368 -2.86701,-7.478097 -1.00195,-0.492589 -1.05198,-0.500477 -3.06906,-0.495577 z m -18.20768,3.600814 c -0.20987,0.0353 -1.57657,0.285685 -3.03702,0.556555 -2.519848,0.46737 -2.679793,0.517727 -3.131594,0.989087 -0.320302,0.33416 -0.533585,0.764192 -0.652673,1.314132 -0.168419,0.777729 -3.068301,18.46722 -4.188375,25.55038 -0.798438,5.04919 -0.960279,5.81251 -1.433505,6.74997 -1.24168,2.45976 -4.148202,3.23471 -5.01003,1.33584 -0.34262,-0.7549 -0.398014,-2.37581 -0.140043,-4.11138 0.337007,-2.2673 4.246865,-24.852744 4.751648,-27.448451 0.295118,-1.517569 0.316966,-1.843137 0.150895,-2.238107 -0.106887,-0.254209 -0.282844,-0.462364 -0.39119,-0.462504 -0.370523,-4.8e-4 -5.962526,1.092336 -6.377905,1.246436 -0.83921,0.31135 -1.180893,1.507634 -2.377633,8.313188 -1.322876,7.522848 -3.394154,19.810948 -3.960999,23.501408 -0.459534,2.99181 -0.536446,5.01249 -0.243396,6.38514 0.656187,3.07358 2.448098,5.11736 5.115967,5.83479 1.098354,0.29537 3.522147,0.29497 4.959904,-5.2e-4 4.41161,-0.90668 8.367083,-4.25776 10.268107,-8.69921 0.721682,-1.68609 1.055402,-3.0123 1.522392,-6.05338 2.47791,-16.13654 3.53343,-22.255188 4.86947,-28.221533 0.44763,-1.998958 0.65569,-3.236873 0.59221,-3.525882 -0.12716,-0.57898 -0.78664,-1.099889 -1.28623,-1.015959 z m -35.964728,5.22087 c -2.69114,0.07978 -5.979855,0.685621 -9.625252,1.793689 -2.448408,0.744219 -3.312362,1.168884 -3.627686,1.783353 -0.139292,0.27144 -0.561857,2.371386 -0.938961,4.666382 -0.377103,2.29499 -0.885961,5.33331 -1.13068,6.75204 -0.244718,1.41873 -0.859405,5.0038 -1.365808,7.96644 -0.506404,2.96263 -1.255123,7.29835 -1.663981,9.63507 -1.739199,9.93995 -2.43396,14.04661 -2.43396,14.38414 0,0.67646 -0.05137,0.67257 3.346565,0.25528 10.330511,-1.26865 16.391133,-3.50407 20.418392,-7.53132 2.658696,-2.6587 4.062475,-5.75821 4.250387,-9.38444 0.10402,-2.00734 -0.142904,-3.37031 -0.883667,-4.88394 -0.622924,-1.27285 -2.242464,-2.94749 -3.570325,-3.69125 -0.519107,-0.29076 -0.94353,-0.56289 -0.943095,-0.60462 4.36e-4,-0.0417 0.587686,-0.45153 1.30483,-0.91053 3.304567,-2.11505 5.61205,-5.40108 6.372221,-9.07439 0.289,-1.3965 0.204256,-4.246568 -0.160197,-5.385197 -0.826488,-2.582137 -2.827267,-4.636787 -5.20175,-5.341276 -1.132603,-0.336033 -2.532349,-0.477302 -4.147033,-0.429431 z m -3.282487,8.141104 c 1.25089,-0.0248 2.35935,0.46582 2.941939,1.34617 0.392321,0.59284 0.417546,0.7319 0.417546,2.31097 0,1.52139 -0.03894,1.7589 -0.411861,2.51458 -0.558873,1.13249 -1.168167,1.83331 -2.173511,2.50062 -1.092216,0.72498 -3.05192,1.43659 -4.269507,1.55029 -0.897059,0.0838 -0.959115,0.0695 -0.959115,-0.22324 0,-0.17223 0.10114,-0.71126 0.22531,-1.19786 0.124169,-0.4866 0.459125,-2.25825 0.74414,-3.93671 0.285016,-1.67846 0.625977,-3.26002 0.757577,-3.51451 0.348279,-0.6735 0.912889,-1.05576 1.843815,-1.24902 0.299121,-0.0621 0.595,-0.0956 0.883667,-0.10129 z m 92.687365,16.95659 c -0.87721,-0.004 -1.84944,0.24006 -2.86287,0.74207 -1.41963,0.70323 -2.29965,1.57274 -3.01067,2.97605 -0.40532,0.79995 -0.45476,1.04751 -0.45476,2.26394 0,1.21699 0.0452,1.4429 0.41755,2.07636 0.8012,1.36295 1.81115,1.80561 3.9827,1.74666 1.26679,-0.0344 1.66089,-0.10755 2.38745,-0.44338 1.70708,-0.78906 2.57373,-1.78555 3.08612,-3.5481 0.3342,-1.14963 0.23913,-2.92894 -0.20257,-3.78737 -0.68315,-1.3277 -1.88093,-2.02019 -3.34295,-2.02623 z m -95.07585,1.68 c 1.658883,0.0514 2.60617,0.59957 3.142961,1.7818 0.448175,0.98705 0.424209,2.79122 -0.05323,4.03748 -0.687166,1.7937 -3.103999,3.68775 -5.808948,4.5527 -1.250357,0.39982 -1.859915,0.46416 -2.223637,0.23409 -0.136095,-0.0861 -0.208261,-0.33695 -0.187068,-0.65164 0.07253,-1.0769 1.365805,-8.5775 1.532723,-8.88938 0.328582,-0.61397 1.328715,-0.98622 2.841687,-1.0573 0.266906,-0.0125 0.518526,-0.0151 0.755509,-0.008 z" /><path
       id="path2"
       style="fill:url(#linearGradient16);stroke:none;fill-opacity:1"
       d="m 113.54674,169.00901 c 1.21141,-4.08066 2.45081,-7.66209 3.44743,-9.96186 1.76732,-4.07822 3.46284,-5.79467 6.1799,-6.25615 3.45985,-0.58766 8.91085,2.08924 19.46699,9.55994 0.59879,0.42377 1.12625,0.77049 1.17213,0.77049 0.0459,0 -0.12785,-0.56332 -0.38608,-1.25182 -0.93337,-2.48865 -2.71234,-7.929 -3.08325,-9.42907 -1.05656,-4.27303 -1.09958,-6.80601 -0.14976,-8.81742 1.62323,-3.43747 5.7967,-4.09291 14.48335,-2.27461 2.24565,0.47006 6.74127,1.62592 7.97555,2.05057 0.47994,0.16513 0.90282,0.30022 0.93974,0.30022 0.0369,0 -0.26899,-0.39261 -0.67979,-0.87247 -0.41081,-0.47987 -2.36056,-2.89239 -4.33279,-5.36116 -3.08877,-3.86642 -3.71826,-4.57445 -4.5409,-5.10745 -1.23226,-0.79841 -2.62563,-2.21563 -3.34326,-3.40052 -2.02355,-3.34112 -1.88048,-6.62766 0.42094,-9.66906 0.79643,-1.05251 2.05036,-2.13169 3.06737,-2.63991 0.35469,-0.17724 0.64488,-0.37965 0.64488,-0.4498 0,-0.0702 -0.14563,-0.41301 -0.32363,-0.76192 -0.6563,-1.28644 -0.60529,-1.8667 1.31754,-14.9886 0.6303,-4.301299 0.6305,-4.305659 0.19619,-4.192079 -0.18,0.0471 -1.23478,0.23547 -2.34397,0.41869 l -2.01671,0.33311 -0.1672,0.77495 c -0.23227,1.07657 -1.40206,6.954799 -4.17028,20.955759 -1.30353,6.5929 -2.44334,12.22608 -2.53291,12.51817 -0.45027,1.46831 -1.52831,2.11137 -4.30446,2.56764 -5.74079,0.94351 -8.43184,0.75865 -9.87059,-0.67808 -0.82146,-0.82029 -1.13936,-1.75828 -1.25753,-3.71039 l -0.0965,-1.59322 -0.40176,0.75868 c -1.01389,1.9146 -3.23722,4.39768 -5.29217,5.91045 -1.85872,1.36831 -4.84368,2.68482 -7.27685,3.20945 -1.82701,0.39393 -5.58001,0.39569 -7.05569,0.003 -2.19495,-0.58362 -4.25953,-1.77281 -5.63196,-3.24399 l -0.62469,-0.66963 -0.3212,0.51971 c -0.52702,0.85274 -2.955173,3.08742 -4.324739,3.98015 -4.403684,2.87046 -10.119963,3.62032 -14.31124,1.87733 -1.843949,-0.76682 -3.57171,-2.12842 -4.934882,-3.88904 l -0.618971,-0.79944 -0.927712,0.90146 c -2.06919,2.01062 -4.716515,3.81638 -8.129222,5.54498 -2.147444,1.08772 -6.300485,2.81507 -6.768236,2.81507 -0.117949,0 -1.111536,1.21199 -2.207972,2.6933 -1.096436,1.48132 -2.070127,2.7905 -2.163758,2.90929 -0.208219,0.26417 -0.18673,0.25831 2.18166,-0.59511 3.662613,-1.31976 7.970706,-2.48093 10.998093,-2.96432 1.747299,-0.279 4.531621,-0.31382 5.618424,-0.0703 2.636365,0.59082 4.262187,2.31391 4.870852,5.16225 0.192691,0.90173 0.225406,1.69468 0.159485,3.86567 -0.08811,2.90191 -0.349429,4.68812 -1.413615,9.66271 -0.301453,1.40916 -0.521896,2.58831 -0.489873,2.62033 0.03202,0.032 1.423812,-1.27253 3.092867,-2.89899 6.576215,-6.40843 9.904035,-9.15486 12.745707,-10.51897 2.384937,-1.14485 4.557512,-1.19708 6.593272,-0.15852 1.52619,0.77861 3.33558,3.00514 4.75761,5.85446 0.94985,1.90321 3.0982,7.38149 4.06532,10.36652 0.57607,1.77806 0.83736,2.40413 0.91825,2.20016 0.0622,-0.15679 0.59343,-1.90323 1.18055,-3.88096 z m 51.27907,-52.04878 c 0.30194,-0.18542 1.09523,-0.7553 1.76287,-1.2664 1.34746,-1.03155 4.54412,-3.18625 6.74276,-4.54495 1.35944,-0.8401 1.41328,-0.89301 1.06215,-1.04375 -0.20343,-0.0873 -1.45922,-0.65539 -2.79063,-1.26237 -1.33142,-0.60697 -2.46689,-1.05263 -2.52327,-0.99036 -0.0564,0.0623 -0.56334,1.41057 -1.12656,2.9962 -0.56322,1.58564 -1.16164,3.1561 -1.32983,3.48991 -0.48193,0.95653 -1.2686,1.82494 -2.00895,2.21769 -0.37457,0.19871 -0.68104,0.44676 -0.68104,0.55122 0,0.2783 0.27292,0.23329 0.8925,-0.14719 z M 49.330523,115.21099 c 0.08287,-0.43813 0.105453,-0.79661 0.0502,-0.79661 -0.05526,0 -0.642718,0.16124 -1.305466,0.35832 l -1.204998,0.35831 1.061763,0.53884 c 0.583969,0.29636 1.10363,0.49359 1.154802,0.43829 0.05117,-0.0553 0.160838,-0.45901 0.243704,-0.89715 z M 81.603951,93.664571 c 0.142518,-0.89713 0.356036,-1.97851 0.474486,-2.40306 0.271908,-0.97457 1.208993,-2.0635 2.07339,-2.40936 0.719702,-0.28797 7.219743,-1.59433 7.945185,-1.59681 1.055582,-0.004 2.06161,0.45084 2.900721,1.31031 0.682965,0.69954 0.824619,0.78633 0.906221,0.55523 0.495425,-1.40303 1.26379,-2.33425 2.223791,-2.69512 0.779026,-0.29285 7.417555,-1.59916 8.128525,-1.59952 1.27838,-6.3e-4 2.56554,0.81765 3.06654,1.94949 0.25741,0.58155 0.42955,0.59696 0.90767,0.0812 1.10315,-1.1899 4.08272,-3.21052 6.20967,-4.21112 2.21415,-1.04163 3.95232,-1.47461 6.30359,-1.57023 2.3258,-0.0946 3.76501,0.18947 5.63056,1.11126 l 1.11249,0.54969 0.44401,-0.47532 c 0.69615,-0.74523 1.85208,-1.17784 4.26238,-1.5952 2.05943,-0.35661 6.77125,-1.00828 8.91445,-1.23293 0.92704,-0.0972 0.94835,-0.10948 0.94835,-0.54799 0,-1.23172 2.30678,-11.26669 3.23852,-14.08821 0.20669,-0.62591 0.35575,-1.15852 0.33124,-1.1836 -0.0245,-0.0251 -1.05965,0.68396 -2.3003,1.57563 -8.99378,6.46385 -15.61275,9.62251 -20.16399,9.62251 -1.8686,0 -3.07963,-0.32539 -4.40905,-1.18464 -2.62896,-1.69917 -4.95004,-5.91678 -7.64563,-13.89277 l -0.86493,-2.55924 -1.03966,2.62267 c -3.09071,7.79665 -6.18532,12.47839 -9.50279,14.37646 -2.155633,1.23332 -5.124674,1.42871 -7.82169,0.51472 -2.304087,-0.78083 -5.078116,-2.27148 -8.619172,-4.6316 -1.921426,-1.28064 -5.81583,-4.18036 -6.141759,-4.57308 -0.37047,-0.44639 -0.397659,-0.22133 -0.131864,1.09152 0.712707,3.52032 1.127414,8.7246 0.902025,11.31979 -0.417251,4.80438 -2.255739,6.76961 -6.796869,7.26546 -3.38282,0.36937 -10.095658,-0.73797 -15.826444,-2.61071 -0.766285,-0.25041 -1.422381,-0.45529 -1.45799,-0.45529 -0.03561,0 0.266633,0.42676 0.67165,0.94835 0.792288,1.02033 5.004115,6.93886 5.353935,7.52344 0.245121,0.40963 0.317778,0.40674 3.246514,-0.12892 1.4239,-0.26044 2.43275,-0.33571 4.627928,-0.34531 2.600462,-0.0114 2.916438,0.0178 4.292328,0.39642 2.556182,0.70341 4.510254,1.88494 6.253279,3.78106 0.500727,0.5447 0.951622,0.99838 1.00199,1.00816 0.05037,0.01 0.208182,-0.71624 0.3507,-1.61338 z m 31.755129,23.745309 c -0.21269,-0.36292 -0.88672,-1.13416 -1.49786,-1.71388 -1.27685,-1.2112 -3.76499,-3.31129 -3.82905,-3.23187 -0.0238,0.0295 -0.25805,0.97535 -0.52064,2.10199 -0.2626,1.12663 -0.51965,2.20111 -0.57123,2.38773 l -0.0938,0.33931 0.73789,-0.23579 c 3.11723,-0.99611 4.04431,-0.90602 5.43183,0.52781 0.3284,0.33936 0.62689,0.58721 0.66331,0.55079 0.0364,-0.0364 -0.10779,-0.36317 -0.32047,-0.72609 z m 18.77429,-3.61176 c 0.20602,-1.20496 0.75534,-4.68309 1.22069,-7.72918 0.46535,-3.04609 0.88586,-5.74319 0.93446,-5.99355 0.1249,-0.643369 -0.13663,-0.315389 -0.4699,0.58931 -0.31241,0.84807 -1.19689,1.80606 -1.96302,2.12617 -0.44293,0.18507 -3.34516,0.83842 -6.6148,1.48913 -0.459,0.0913 -0.85916,0.18598 -0.88924,0.2103 -0.0301,0.0243 0.46275,0.57724 1.09517,1.2287 2.83138,2.91661 4.96509,6.26614 5.86966,9.21428 0.19345,0.63049 0.37212,1.12594 0.39705,1.10101 0.0249,-0.0249 0.2139,-1.03121 0.41993,-2.23617 z" /></g></svg>
