<?xml version="1.0" encoding="UTF-8" standalone="no"?>
<!-- Created with Inkscape (http://www.inkscape.org/) -->

<svg
   width="178.19141mm"
   height="180.55859mm"
   viewBox="0 0 178.19141 180.55859"
   version="1.1"
   id="svg1"
   xml:space="preserve"
   sodipodi:docname="icon.svg"
   inkscape:version="1.3.2 (091e20e, 2023-11-25, custom)"
   xmlns:inkscape="http://www.inkscape.org/namespaces/inkscape"
   xmlns:sodipodi="http://sodipodi.sourceforge.net/DTD/sodipodi-0.dtd"
   xmlns:xlink="http://www.w3.org/1999/xlink"
   xmlns="http://www.w3.org/2000/svg"
   xmlns:svg="http://www.w3.org/2000/svg"><sodipodi:namedview
     id="namedview1"
     pagecolor="#ffffff"
     bordercolor="#999999"
     borderopacity="1"
     inkscape:showpageshadow="0"
     inkscape:pageopacity="0"
     inkscape:pagecheckerboard="0"
     inkscape:deskcolor="#d1d1d1"
     inkscape:document-units="mm"
     showgrid="false"
     inkscape:zoom="0.55370687"
     inkscape:cx="206.78812"
     inkscape:cy="567.99006"
     inkscape:window-width="1920"
     inkscape:window-height="1057"
     inkscape:window-x="-8"
     inkscape:window-y="-8"
     inkscape:window-maximized="1"
     inkscape:current-layer="layer1" /><defs
     id="defs1"><linearGradient
       id="linearGradient32"><stop
         style="stop-color:#a000e8;stop-opacity:1;"
         offset="0"
         id="stop31" /><stop
         style="stop-color:#1ca5ff;stop-opacity:1;"
         offset="1"
         id="stop32" /></linearGradient><linearGradient
       id="linearGradient15"
       inkscape:collect="always"><stop
         style="stop-color:#bebebe;stop-opacity:1;"
         offset="0"
         id="stop15" /><stop
         style="stop-color:#ffffff;stop-opacity:1;"
         offset="1"
         id="stop16" /></linearGradient><linearGradient
       id="linearGradient6"><stop
         style="stop-color:#520007;stop-opacity:1;"
         offset="0"
         id="stop5" /><stop
         style="stop-color:#b01300;stop-opacity:1;"
         offset="1"
         id="stop6" /></linearGradient><linearGradient
       id="linearGradient43"><stop
         style="stop-color:#7b3200;stop-opacity:1;"
         offset="0"
         id="stop42" /><stop
         style="stop-color:#e18f00;stop-opacity:1;"
         offset="1"
         id="stop43" /></linearGradient><linearGradient
       id="linearGradient41"><stop
         style="stop-color:#ffb400;stop-opacity:1;"
         offset="0"
         id="stop40" /><stop
         style="stop-color:#ffe79c;stop-opacity:1;"
         offset="1"
         id="stop41" /></linearGradient><linearGradient
       id="linearGradient38"><stop
         style="stop-color:#e89400;stop-opacity:1;"
         offset="0"
         id="stop38" /><stop
         style="stop-color:#fcc418;stop-opacity:1"
         offset="1"
         id="stop39" /></linearGradient><linearGradient
       id="linearGradient36"><stop
         style="stop-color:#0a73a8;stop-opacity:1"
         offset="0"
         id="stop36" /><stop
         style="stop-color:#f46a14;stop-opacity:1"
         offset="1"
         id="stop37" /></linearGradient><linearGradient
       xlink:href="#linearGradient36"
       id="linearGradient37"
       x1="158.88182"
       y1="232.46919"
       x2="48.022926"
       y2="86.727974"
       gradientUnits="userSpaceOnUse" /><linearGradient
       xlink:href="#linearGradient38"
       id="linearGradient39"
       x1="107.99186"
       y1="207.86043"
       x2="107.99186"
       y2="151.47531"
       gradientUnits="userSpaceOnUse"
       gradientTransform="translate(0.33788396,7.3514627)" /><linearGradient
       xlink:href="#linearGradient41"
       id="linearGradient40"
       gradientUnits="userSpaceOnUse"
       x1="107.99186"
       y1="207.86043"
       x2="107.99186"
       y2="151.47531"
       gradientTransform="translate(-2.0513164,5.6790224)" /><linearGradient
       xlink:href="#linearGradient43"
       id="linearGradient42"
       gradientUnits="userSpaceOnUse"
       gradientTransform="translate(1.174104,9.860123)"
       x1="107.99186"
       y1="207.86043"
       x2="107.99186"
       y2="151.47531" /><linearGradient
       inkscape:collect="always"
       xlink:href="#linearGradient6"
       id="linearGradient5"
       gradientUnits="userSpaceOnUse"
       gradientTransform="translate(-2.5291572,6.3957827)"
       x1="107.99186"
       y1="207.86043"
       x2="107.99186"
       y2="151.47531" /><linearGradient
       inkscape:collect="always"
       xlink:href="#linearGradient15"
       id="linearGradient16"
       x1="93.93174"
       y1="114.37372"
       x2="93.93174"
       y2="43.249146"
       gradientUnits="userSpaceOnUse" /><linearGradient
       inkscape:collect="always"
       xlink:href="#linearGradient15"
       id="linearGradient19"
       gradientUnits="userSpaceOnUse"
       x1="93.93174"
       y1="114.37372"
       x2="93.93174"
       y2="43.249146" /><linearGradient
       inkscape:collect="always"
       xlink:href="#linearGradient15"
       id="linearGradient21"
       gradientUnits="userSpaceOnUse"
       x1="93.93174"
       y1="114.37372"
       x2="93.93174"
       y2="43.249146" /><linearGradient
       inkscape:collect="always"
       xlink:href="#linearGradient32"
       id="linearGradient31"
       x1="99.069832"
       y1="113.30607"
       x2="97.636314"
       y2="28.489456"
       gradientUnits="userSpaceOnUse" /></defs><g
     id="layer1"
     transform="translate(-18.689453,-67.34375)"><rect
       style="fill:url(#linearGradient37);fill-opacity:1;stroke:none;stroke-width:7.223;stroke-linecap:round;stroke-linejoin:round;stroke-dasharray:none;stroke-opacity:1;paint-order:markers fill stroke"
       id="rect32"
       width="170.96928"
       height="173.33447"
       x="22.300341"
       y="70.955627"
       rx="37.16724"
       ry="37.16724" /><path
       id="path6"
       style="fill:#000000;fill-opacity:1;stroke:none;stroke-width:0.546;stroke-linecap:round;stroke-linejoin:round;stroke-dasharray:none;stroke-opacity:1;paint-order:fill markers stroke"
       d="m 134.77332,148.0745 c -3.52524,0.2416 -6.859,2.13979 -8.98047,4.94726 -1.78122,-1.31558 -4.04632,-1.87533 -6.23983,-1.65512 -13.49116,0.12821 -26.985233,0.003 -40.475011,0.19418 -3.110767,0.53533 -5.075707,3.86715 -4.736937,6.87909 -0.04795,1.06323 -0.0081,-0.16624 -0.164194,-0.56448 -0.97986,-4.2767 -5.517659,-7.12323 -9.791369,-6.70621 -3.699501,0.13632 -7.442706,-0.29833 -11.108282,0.34082 -3.051447,1.37509 -5.759588,3.37612 -8.679283,4.99452 -4.493444,2.7271 -9.068647,5.32982 -13.457435,8.22228 -2.303255,2.23848 -2.034369,6.21339 0.08755,8.47847 2.075356,3.12639 3.877844,6.45361 6.217505,9.39168 1.118323,0.64064 1.395552,2.01375 2.202237,2.94639 1.056907,1.62734 2.888174,2.79431 4.872784,2.67955 0.406465,0.0765 1.069892,-0.22879 1.298955,-0.0601 -0.06518,11.8883 -0.199099,23.77749 -0.130205,35.66562 0.492505,4.37572 4.945153,7.68908 9.264061,7.22897 4.957069,-0.005 9.921336,0.12541 14.873556,-0.0897 3.034186,-0.4935 4.984675,-3.76432 4.587251,-6.70023 0.02475,-0.50656 -0.215458,-1.57999 0.411358,-0.79134 4.874248,4.37996 11.110314,7.04223 17.504399,8.26047 8.65373,1.56351 17.88242,0.70851 25.84121,-3.15737 5.71713,-2.76832 10.70827,-7.32138 13.30962,-13.1852 2.82894,-6.07984 3.14303,-13.17878 1.21168,-19.57084 -1.05168,-3.53603 -2.47082,-7.05612 -4.93905,-9.8568 -2.47595,-2.96746 -5.72323,-5.14118 -9.02276,-7.08612 -0.49915,-0.282 -1.00901,-0.5458 -1.5257,-0.79406 2.17139,-0.014 4.35831,0.0711 6.51932,-0.11038 0.90541,-0.1995 1.76207,-0.60267 2.51193,-1.14548 1.31985,1.50852 2.72823,2.94718 4.03061,4.46531 1.31127,1.39093 2.62963,3.14402 4.65535,3.42137 0.74839,0.18808 1.66278,0.011 2.3199,-0.0156 0.56173,5.23721 3.42055,10.05485 7.41848,13.42064 2.84274,2.49449 6.1141,4.44336 9.47214,6.15749 -2.09008,-0.82968 -4.11607,-2.07366 -6.18989,-3.06486 -2.50859,-0.97676 -5.51591,0.18991 -6.90546,2.45086 -2.20006,3.0159 -4.57348,5.90474 -6.70439,8.96987 -1.21778,1.50028 -1.33909,3.64502 -0.57422,5.37857 0.63092,1.58782 1.97695,2.77214 3.50578,3.46509 3.15551,2.0645 6.11089,4.54125 9.70976,5.81924 6.77528,2.74443 14.31672,3.57337 21.53249,2.43537 5.93644,-1.01687 11.80838,-3.89395 15.36244,-8.8954 3.65826,-5.01979 5.06305,-11.84237 2.89635,-17.75905 -0.95329,-3.25958 -2.52348,-6.41282 -5.03667,-8.75244 -1.38048,-1.39136 -2.93552,-2.59618 -4.53564,-3.72304 2.06779,-0.48517 3.71693,-2.13467 4.41207,-4.11408 1.44758,-3.20359 3.54043,-6.14797 4.44968,-9.57393 0.59857,-3.9023 -2.06954,-7.88672 -5.77074,-9.1043 -3.38659,-1.7906 -6.80197,-3.6124 -10.53204,-4.58248 -6.31932,-1.80475 -13.27514,-2.04979 -19.47303,0.35722 -0.62115,-6.98682 -5.75132,-13.55452 -12.65648,-15.2451 -0.93193,-0.21879 -1.89388,-0.29186 -2.84938,-0.26662 z m -60.029296,46.92578 c 1.090589,1.21433 1.841127,2.7738 3.322266,3.58594 0.887697,0.31611 0.144991,0.37396 -0.332031,0.55664 -1.438836,0.5845 -2.631757,1.71635 -3.345703,3.08984 6.51e-4,-2.5599 0.0013,-5.11979 0.002,-7.67969 0.117838,0.14909 0.235677,0.29818 0.353515,0.44727 z m 23.806641,4.19531 c 1.764455,-0.022 3.549605,0.20104 5.208975,0.82031 0.18556,2.32037 -1.06705,4.90749 -3.42702,5.57395 -1.259336,0.45236 -2.551704,0.60898 -3.815158,0.59402 -4.006113,-0.13176 -8.105044,-1.50613 -10.988458,-4.37317 -0.776026,-0.53185 -0.493983,-0.5293 0.272328,-0.36939 2.030205,0.25361 3.895679,-0.77439 5.830298,-1.1958 2.265568,-0.61172 4.629171,-0.99815 6.919035,-1.04992 z" /><g
       id="g30"
       transform="matrix(1.1993234,0,0,1.1993234,-15.599843,65.005395)"><path
         id="rect22"
         style="fill:url(#linearGradient31);fill-opacity:1;stroke:none;stroke-width:0.223;stroke-linecap:round;stroke-linejoin:round;paint-order:markers fill stroke"
         d="m 105.33525,15.830621 c -1.76004,0.0347 -3.42773,0.929336 -4.58398,2.230469 -1.406512,-0.922378 -3.139892,-1.171256 -4.775182,-0.851841 -2.27405,0.443436 -4.46876,1.213944 -6.7177,1.765877 -1.65566,0.498244 -3.37244,0.766569 -5.10322,0.66573 -4.44245,0.01542 -8.89991,-0.141893 -13.33105,0.184527 -2.55287,0.559305 -4.49167,2.876432 -4.90684,5.411488 -7.96807,2.119892 -15.94997,4.195043 -23.87305,6.47461 -3.29721,1.38611 -4.67126,5.675409 -3.26122,8.862218 7.3393,27.36633 14.64532,54.74179 22.04052,82.092861 0.69961,2.05614 2.65104,3.32722 4.58086,4.08234 2.21074,1.43887 5.04317,1.05194 7.38968,0.18232 9.04367,-2.4222 18.08735,-4.84441 27.13102,-7.26661 2.895592,0.10408 5.840112,-0.28427 8.698842,0.29896 9.35406,2.49058 18.68436,5.07582 28.07655,7.41783 3.5739,0.39874 6.85622,-2.69887 7.20948,-6.17276 7.31956,-27.363991 14.68925,-54.716472 21.94627,-82.096009 0.39103,-2.143101 -0.72824,-4.174876 -1.98603,-5.814035 -1.23271,-2.326028 -3.88047,-3.354996 -6.33641,-3.791861 -8.20355,-2.202584 -16.4071,-4.405169 -24.61065,-6.607754 -1.09021,-0.767696 -1.91459,-1.872049 -3.10156,-2.496094 -3.19718,-1.572881 -6.83885,-0.224313 -10.18984,-1.027638 -4.56008,-1.210782 -9.08941,-2.581589 -13.7158,-3.533379 -0.19299,-0.01836 -0.38706,-0.01606 -0.58069,-0.01125 z" /><g
         id="g22"><g
           id="g18"
           transform="rotate(-15,84.292774,117.65704)"><rect
             style="fill:#000000;stroke:none;stroke-width:0.223;stroke-linecap:round;stroke-linejoin:round;paint-order:markers fill stroke"
             id="rect14"
             width="58.415955"
             height="89.595024"
             x="66.815628"
             y="29.684057"
             ry="2.0082691"
             rx="2.0082691" /><rect
             style="fill:url(#linearGradient16);fill-opacity:1;stroke:#cccccc;stroke-width:0.223;stroke-linecap:round;stroke-linejoin:round;paint-order:markers fill stroke"
             id="rect15"
             width="58.415955"
             height="89.595024"
             x="65.143188"
             y="28.250538"
             ry="2.0082691"
             rx="2.0082691" /><path
             style="font-weight:bold;font-size:34.927px;line-height:1.25;stroke-width:0.873177"
             d="M 86.896462,50.551229 H 83.89274 v 5.169196 H 78.758472 V 50.551229 H 68.105737 V 46.883894 L 79.037888,30.782548 H 83.89274 V 46.46477 h 3.003722 z m -8.13799,-4.086459 v -4.226167 q 0,-0.803321 0.03493,-1.955912 0.03493,-1.15259 0.06985,-2.130546 0.06985,-1.012883 0.104781,-1.327226 h -0.139708 q -0.314343,0.69854 -0.69854,1.362153 -0.34927,0.663613 -0.803321,1.362153 l -4.575437,6.915545 z"
             id="text16"
             aria-label="4" /></g><g
           id="g19"
           transform="translate(5.6036655,-4.0775291)"><rect
             style="fill:#000000;stroke:none;stroke-width:0.223;stroke-linecap:round;stroke-linejoin:round;paint-order:markers fill stroke"
             id="rect18"
             width="58.415955"
             height="89.595024"
             x="66.815628"
             y="29.684057"
             ry="2.0082691"
             rx="2.0082691" /><rect
             style="fill:url(#linearGradient19);fill-opacity:1;stroke:#cccccc;stroke-width:0.223;stroke-linecap:round;stroke-linejoin:round;paint-order:markers fill stroke"
             id="rect19"
             width="58.415955"
             height="89.595024"
             x="65.143188"
             y="28.250538"
             ry="2.0082691"
             rx="2.0082691" /><path
             style="font-weight:bold;font-size:34.927px;line-height:1.25;fill:#ff0000;stroke-width:0.873177"
             d="m 77.990078,39.793714 q 2.270254,0 4.051531,0.873174 1.781277,0.873175 2.79416,2.549671 1.04781,1.676496 1.04781,4.156313 0,4.051532 -2.514744,6.391641 -2.514744,2.305182 -7.43945,2.305182 -1.955912,0 -3.702262,-0.34927 -1.711423,-0.34927 -3.003722,-1.012883 v -4.54051 q 1.292299,0.663613 3.108503,1.152591 1.816204,0.454051 3.422846,0.454051 2.340109,0 3.562554,-0.943029 1.257371,-0.977956 1.257371,-3.003722 0,-3.772116 -4.99456,-3.772116 -0.977956,0 -2.025766,0.209562 -1.04781,0.174635 -1.74635,0.34927 l -2.09562,-1.117664 0.943029,-12.713427 h 13.516748 v 4.470656 h -8.906384 l -0.454051,4.889779 q 0.593759,-0.104781 1.257372,-0.209562 0.69854,-0.139707 1.920985,-0.139707 z"
             id="text19"
             aria-label="5" /></g><g
           id="g21"
           transform="rotate(15,116.50495,173.84261)"><rect
             style="fill:#000000;stroke:none;stroke-width:0.223;stroke-linecap:round;stroke-linejoin:round;paint-order:markers fill stroke"
             id="rect20"
             width="58.415955"
             height="89.595024"
             x="66.815628"
             y="29.684057"
             ry="2.0082691"
             rx="2.0082691" /><rect
             style="fill:url(#linearGradient21);fill-opacity:1;stroke:#cccccc;stroke-width:0.223;stroke-linecap:round;stroke-linejoin:round;paint-order:markers fill stroke"
             id="rect21"
             width="58.415955"
             height="89.595024"
             x="65.143188"
             y="28.250538"
             ry="2.0082691"
             rx="2.0082691" /><path
             style="font-weight:bold;font-size:34.927px;line-height:1.25;stroke-width:0.873177"
             d="m 68.734423,45.137544 q 0,-2.130547 0.314343,-4.226167 0.314343,-2.130546 1.082737,-3.981677 0.803321,-1.886058 2.200401,-3.318065 1.432007,-1.466934 3.597481,-2.270255 2.200401,-0.838248 5.308903,-0.838248 0.733467,0 1.711423,0.06985 0.977956,0.03493 1.641569,0.174635 v 4.226167 q -0.663613,-0.139708 -1.466934,-0.244489 -0.768394,-0.104781 -1.536788,-0.104781 -3.108502,0 -4.819925,0.977956 -1.676496,0.977956 -2.375036,2.759233 -0.69854,1.746349 -0.803321,4.051531 h 0.209562 q 0.69854,-1.222445 1.990839,-2.060693 1.327226,-0.838247 3.422846,-0.838247 3.283137,0 5.204122,2.060692 1.920985,2.060693 1.920985,5.832809 0,4.051532 -2.305182,6.356714 -2.270255,2.305182 -6.182078,2.305182 -2.549671,0 -4.610364,-1.152591 -2.060693,-1.187518 -3.283138,-3.597481 -1.222445,-2.44489 -1.222445,-6.182079 z m 9.011166,6.705984 q 1.536788,0 2.514743,-1.04781 0.977956,-1.082737 0.977956,-3.318065 0,-1.816204 -0.838248,-2.864014 -0.838247,-1.04781 -2.54967,-1.04781 -1.187518,0 -2.060693,0.523905 -0.838248,0.523905 -1.327226,1.327226 -0.488978,0.768394 -0.488978,1.606642 0,1.152591 0.419124,2.270255 0.419124,1.117664 1.257372,1.851131 0.873175,0.69854 2.09562,0.69854 z"
             id="text21"
             aria-label="6" /></g></g></g><path
       id="path1"
       style="fill:url(#linearGradient5);fill-opacity:1;stroke:none;stroke-width:0.546;stroke-linecap:round;stroke-linejoin:round;stroke-dasharray:none;stroke-opacity:1;paint-order:fill markers stroke"
       d="m 132.86196,143.77394 c -3.52524,0.2416 -6.859,2.13979 -8.98047,4.94726 -1.78122,-1.31558 -4.04632,-1.87533 -6.23983,-1.65512 -13.49116,0.12821 -26.985234,0.003 -40.475012,0.19418 -3.110767,0.53533 -5.075707,3.86715 -4.736937,6.87909 -0.04795,1.06323 -0.0081,-0.16624 -0.164194,-0.56448 -0.97986,-4.2767 -5.517659,-7.12323 -9.791369,-6.70621 -3.699501,0.13632 -7.442706,-0.29833 -11.108282,0.34082 -3.051447,1.37509 -5.759588,3.37612 -8.679283,4.99452 -4.493444,2.7271 -9.068647,5.32982 -13.457435,8.22228 -2.303255,2.23848 -2.034369,6.21339 0.08755,8.47847 2.075356,3.12639 3.877844,6.45361 6.217505,9.39168 1.118323,0.64064 1.395552,2.01375 2.202237,2.94639 1.056907,1.62734 2.888174,2.79431 4.872784,2.67955 0.406465,0.0765 1.069892,-0.22879 1.298955,-0.0601 -0.06518,11.8883 -0.199099,23.77749 -0.130205,35.66562 0.492505,4.37572 4.945153,7.68908 9.264061,7.22897 4.957069,-0.005 9.921336,0.12541 14.873556,-0.0897 3.034186,-0.4935 4.984675,-3.76432 4.587251,-6.70023 0.02475,-0.50656 -0.215458,-1.57999 0.411358,-0.79134 4.874248,4.37996 11.110314,7.04223 17.504399,8.26047 8.653735,1.56351 17.882421,0.70851 25.841211,-3.15737 5.71713,-2.76832 10.70827,-7.32138 13.30962,-13.1852 2.82894,-6.07984 3.14303,-13.17878 1.21168,-19.57084 -1.05168,-3.53603 -2.47082,-7.05612 -4.93905,-9.8568 -2.47595,-2.96746 -5.72323,-5.14118 -9.02276,-7.08612 -0.49915,-0.282 -1.00901,-0.5458 -1.5257,-0.79406 2.17139,-0.014 4.35831,0.0711 6.51932,-0.11038 0.90541,-0.1995 1.76207,-0.60267 2.51193,-1.14548 1.31985,1.50852 2.72823,2.94718 4.03061,4.46531 1.31127,1.39093 2.62963,3.14402 4.65535,3.42137 0.74839,0.18808 1.66278,0.011 2.3199,-0.0156 0.56173,5.23721 3.42055,10.05485 7.41848,13.42064 2.84274,2.49449 6.1141,4.44336 9.47214,6.15749 -2.09008,-0.82968 -4.11607,-2.07366 -6.18989,-3.06486 -2.50859,-0.97676 -5.51591,0.18991 -6.90546,2.45086 -2.20006,3.0159 -4.57348,5.90474 -6.70439,8.96987 -1.21778,1.50028 -1.33909,3.64502 -0.57422,5.37857 0.63092,1.58782 1.97695,2.77214 3.50578,3.46509 3.15551,2.0645 6.11089,4.54125 9.70976,5.81924 6.77528,2.74443 14.31672,3.57337 21.53249,2.43537 5.93644,-1.01687 11.80838,-3.89395 15.36244,-8.8954 3.65826,-5.01979 5.06305,-11.84237 2.89635,-17.75905 -0.95329,-3.25958 -2.52348,-6.41282 -5.03667,-8.75244 -1.38048,-1.39136 -2.93552,-2.59618 -4.53564,-3.72304 2.06779,-0.48517 3.71693,-2.13467 4.41207,-4.11408 1.44758,-3.20359 3.54043,-6.14797 4.44968,-9.57393 0.59857,-3.9023 -2.06954,-7.88672 -5.77074,-9.1043 -3.38659,-1.7906 -6.80197,-3.6124 -10.53204,-4.58248 -6.31932,-1.80475 -13.27514,-2.04979 -19.47303,0.35722 -0.62115,-6.98682 -5.75132,-13.55452 -12.65648,-15.2451 -0.93193,-0.21879 -1.89388,-0.29186 -2.84938,-0.26662 z m -60.029297,46.92578 c 1.090589,1.21433 1.841127,2.7738 3.322266,3.58594 0.887697,0.31611 0.144991,0.37396 -0.332031,0.55664 -1.438836,0.5845 -2.631757,1.71635 -3.345703,3.08984 6.51e-4,-2.5599 0.0013,-5.11979 0.002,-7.67969 0.117838,0.14909 0.235677,0.29818 0.353515,0.44727 z m 23.806641,4.19531 c 1.764458,-0.022 3.549606,0.20104 5.208976,0.82031 0.18556,2.32037 -1.06705,4.90749 -3.427021,5.57395 -1.259336,0.45236 -2.551704,0.60898 -3.815158,0.59402 -4.006113,-0.13176 -8.105044,-1.50613 -10.988458,-4.37317 -0.776026,-0.53185 -0.493983,-0.5293 0.272328,-0.36939 2.030205,0.25361 3.895679,-0.77439 5.830298,-1.1958 2.265568,-0.61172 4.629171,-0.99815 6.919035,-1.04992 z" /><path
       id="path39"
       style="fill:url(#linearGradient40);fill-opacity:1;stroke:none;stroke-width:0.546;stroke-linecap:round;stroke-linejoin:round;stroke-dasharray:none;stroke-opacity:1;paint-order:fill markers stroke"
       d="m 176.12599,167.40024 c -14.45308,-9.11471 -32.88462,-6.79146 -35.12467,8.46756 -2.64383,18.00953 28.91535,15.41839 23.8346,26.1867 -4.33777,9.19357 -20.38485,-1.09765 -20.38485,-1.09765 l -6.58588,8.46756 c 8.80961,8.14611 36.36942,11.18317 39.82886,-7.36991 3.2731,-17.55363 -29.78617,-18.30011 -23.20737,-27.75476 4.24518,-6.10093 16.93512,2.19529 16.93512,2.19529 z m -45.1603,-6.58587 c -9.85199,-6.36005 1.89057,-17.19323 7.52673,-10.34923 5.20183,6.3166 -0.16601,14.64703 -7.2131,20.07123 l -2.82253,-2.5089 c 1.97609,-2.02444 3.03748,-4.35378 2.5089,-7.2131 z m -52.686988,-9.09479 42.006758,-0.0935 -0.87592,10.50885 c -0.41529,0.7902 -0.77435,1.63664 -2.04959,1.5669 l -25.125464,-0.2503 -2.131715,2.25912 -0.486437,9.58534 c 14.422566,-2.29065 35.913176,0.79976 34.293066,21.58387 -1.81677,23.30695 -37.343088,27.5078 -51.90296,11.91731 l 6.272262,-10.03563 c 7.760203,9.37013 27.145738,11.61245 29.166018,-1.56807 1.5118,-9.86329 -8.275696,-16.17444 -25.716274,-10.03562 l -5.645035,-2.19529 z m -45.160289,11.91731 20.384852,-12.23091 h 10.976459 v 65.23153 H 49.426295 l 0.313612,-49.86449 -10.035619,7.2131 z" /><path
       id="path41"
       style="fill:url(#linearGradient42);fill-opacity:1;stroke:none;stroke-width:0.546;stroke-linecap:round;stroke-linejoin:round;stroke-dasharray:none;stroke-opacity:1;paint-order:fill markers stroke"
       d="m 179.35141,171.58134 c -14.45308,-9.11471 -32.88462,-6.79146 -35.12467,8.46756 -2.64383,18.00953 28.91535,15.41839 23.8346,26.1867 -4.33777,9.19357 -20.38485,-1.09765 -20.38485,-1.09765 l -6.58588,8.46756 c 8.80961,8.14611 36.36942,11.18317 39.82886,-7.36991 3.2731,-17.55363 -29.78617,-18.30011 -23.20737,-27.75476 4.24518,-6.10093 16.93512,2.19529 16.93512,2.19529 z m -45.1603,-6.58587 c -9.85199,-6.36005 1.89057,-17.19323 7.52673,-10.34923 5.20183,6.3166 -0.16601,14.64703 -7.2131,20.07123 l -2.82253,-2.5089 c 1.97609,-2.02444 3.03748,-4.35378 2.5089,-7.2131 z m -52.686987,-9.09479 42.006757,-0.0935 -0.87592,10.50885 c -0.41529,0.7902 -0.77435,1.63664 -2.04959,1.5669 l -25.125463,-0.2503 -2.131715,2.25912 -0.486437,9.58534 c 14.422565,-2.29065 35.913175,0.79976 34.293065,21.58387 -1.81677,23.30695 -37.343087,27.5078 -51.902959,11.91731 l 6.272262,-10.03563 c 7.760203,9.37013 27.145737,11.61245 29.166017,-1.56807 1.5118,-9.86329 -8.2757,-16.17444 -25.716273,-10.03562 l -5.645035,-2.19529 z m -45.160289,11.91731 20.384852,-12.23091 h 10.976459 v 65.23153 H 52.651716 l 0.313612,-49.86449 -10.035619,7.2131 z" /><path
       id="path35"
       style="fill:url(#linearGradient39);fill-opacity:1;stroke:none;stroke-width:0.546;stroke-linecap:round;stroke-linejoin:round;stroke-dasharray:none;stroke-opacity:1;paint-order:fill markers stroke"
       d="m 178.51519,169.07268 c -14.45308,-9.11471 -32.88462,-6.79146 -35.12467,8.46756 -2.64383,18.00953 28.91535,15.41839 23.8346,26.1867 -4.33777,9.19357 -20.38485,-1.09765 -20.38485,-1.09765 l -6.58588,8.46756 c 8.80961,8.14611 36.36942,11.18317 39.82886,-7.36991 3.2731,-17.55363 -29.78617,-18.30011 -23.20737,-27.75476 4.24518,-6.10093 16.93512,2.19529 16.93512,2.19529 z m -45.1603,-6.58587 c -9.85199,-6.36005 1.89057,-17.19323 7.52673,-10.34923 5.20183,6.3166 -0.16601,14.64703 -7.2131,20.07123 l -2.82253,-2.5089 c 1.97609,-2.02444 3.03748,-4.35378 2.5089,-7.2131 z m -52.686988,-9.09479 42.006758,-0.0935 -0.87592,10.50885 c -0.41529,0.7902 -0.77435,1.63664 -2.04959,1.5669 l -25.125464,-0.2503 -2.131715,2.25912 -0.486437,9.58534 c 14.422566,-2.29065 35.913176,0.79976 34.293066,21.58387 -1.81677,23.30695 -37.343088,27.5078 -51.90296,11.91731 l 6.272262,-10.03563 c 7.760203,9.37013 27.145738,11.61245 29.166018,-1.56807 1.5118,-9.86329 -8.2757,-16.17444 -25.716274,-10.03562 L 78.472611,186.635 Z m -45.160289,11.91731 20.384852,-12.23091 h 10.976459 v 65.23153 H 51.815495 l 0.313612,-49.86449 -10.035619,7.2131 z" /><path
       style="color:#000000;fill:#fcc418;stroke-linecap:round;stroke-linejoin:round;-inkscape-stroke:none;paint-order:markers fill stroke"
       d="m 59.466797,67.34375 c -22.528931,0 -40.777344,18.250366 -40.777344,40.7793 v 99 c 0,22.52893 18.248413,40.77929 40.777344,40.77929 h 96.634763 c 22.52893,0 40.7793,-18.25036 40.7793,-40.77929 v -99 c 0,-22.528934 -18.25037,-40.7793 -40.7793,-40.7793 z m 0,7.222656 h 96.634763 c 18.65233,0 33.55664,14.904311 33.55664,33.556644 v 99 c 0,18.65233 -14.90431,33.55468 -33.55664,33.55468 H 59.466797 c -18.65233,0 -33.554688,-14.90235 -33.554688,-33.55468 v -99 c 0,-18.652333 14.902358,-33.556644 33.554688,-33.556644 z"
       id="rect35" /><path
       style="fill:#f9f9f9;stroke:none;stroke-width:0.264583px;stroke-linecap:butt;stroke-linejoin:miter;stroke-opacity:1"
       d="m 36.532512,165.5101 19.830362,-11.70708 10.154101,0.0597 -9.735991,1.55298 z"
       id="path7"
       sodipodi:nodetypes="ccccc" /><path
       style="fill:#f9f9f9;stroke:none;stroke-width:0.264583px;stroke-linecap:butt;stroke-linejoin:miter;stroke-opacity:1"
       d="m 79.418659,186.11695 1.971089,-32.01528 h 40.676132 l -38.884232,2.03082 z"
       id="path8"
       sodipodi:nodetypes="ccccc" /><path
       style="fill:#f9f9f9;stroke:none;stroke-width:0.264583px;stroke-linecap:butt;stroke-linejoin:miter;stroke-opacity:1"
       d="m 92.499529,177.75475 c 11.766401,-1.88746 20.373211,0.47417 27.535531,4.7784 -6.90046,-2.78817 -14.09622,-5.4438 -25.385251,-2.68785 z"
       id="path9"
       sodipodi:nodetypes="cccc" /><path
       style="fill:#f9f9f9;stroke:none;stroke-width:0.264583px;stroke-linecap:butt;stroke-linejoin:miter;stroke-opacity:1"
       d="m 96.708588,208.67045 c 5.488202,0.0902 10.380032,-1.22915 13.406022,-6.9587 -1.80001,9.11296 -5.37937,8.76046 -13.406022,6.9587 z"
       id="path10"
       sodipodi:nodetypes="ccc" /><path
       style="fill:#f9f9f9;stroke:none;stroke-width:0.264583px;stroke-linecap:butt;stroke-linejoin:miter;stroke-opacity:1"
       d="m 130.65968,158.34652 c -0.76472,-5.55027 4.50292,-9.69521 9.76784,-5.78335 -6.43944,-1.35213 -8.60051,2.78809 -9.76784,5.78335 z"
       id="path11"
       sodipodi:nodetypes="ccc" /><path
       style="fill:#f9f9f9;stroke:none;stroke-width:0.264583px;stroke-linecap:butt;stroke-linejoin:miter;stroke-opacity:1"
       d="m 143.94607,179.44583 c -0.12124,-11.02234 11.9638,-18.35874 23.26682,-14.08582 -14.3238,-1.41186 -21.9203,6.07324 -23.26682,14.08582 z"
       id="path13"
       sodipodi:nodetypes="ccc" /><path
       style="fill:#f9f9f9;stroke:none;stroke-width:0.264583px;stroke-linecap:butt;stroke-linejoin:miter;stroke-opacity:1"
       d="m 158.34518,208.30006 c 5.4882,0.0902 7.9311,-0.0943 10.47925,-5.28626 0.94757,6.90295 -6.93235,7.32694 -10.47925,5.28626 z"
       id="path14"
       sodipodi:nodetypes="ccc" /></g></svg>
