<?xml version="1.0" encoding="UTF-8" standalone="no"?>
<!-- Created with Inkscape (http://www.inkscape.org/) -->

<svg
   width="101.72662mm"
   height="101.30525mm"
   viewBox="0 0 101.72661 101.30524"
   version="1.1"
   id="svg1"
   xml:space="preserve"
   xmlns="http://www.w3.org/2000/svg"
   xmlns:svg="http://www.w3.org/2000/svg"><defs
     id="defs1" /><g
     id="layer1"
     transform="translate(-50.082252,-63.551913)"><path
       style="fill:#000000;stroke:none;stroke-width:0.443522"
       d="m 72.965199,141.48035 c -0.67472,-0.26347 -1.17579,-0.70627 -1.48957,-1.31629 -0.12371,-0.24052 -0.45913,-1.42868 -0.74537,-2.64035 -0.87447,-3.70162 -3.18676,-13.56396 -3.76286,-16.04927 -0.79648,-3.436 -0.79833,-3.65557 -0.0369,-4.36655 0.54443,-0.50834 1.07501,-0.621 4.12081,-0.87493 1.62744,-0.13569 2.96294,-0.25304 2.96777,-0.26077 0.005,-0.008 -0.0257,-0.4101 -0.0679,-0.89417 -0.0422,-0.48406 -0.0516,-2.5774 -0.0209,-4.65186 l 0.0557,-3.77173 -0.8824,-1.6263 c -2.43973,-4.49651 -5.23539,-9.993552 -5.54187,-10.896842 -0.3977,-1.17209 0.10444,-2.21328 1.31948,-2.73597 0.88917,-0.38251 6.00184,-0.81021 7.25232,-0.60669 1.21458,0.19768 2.21985,1.0355 3.14364,2.62001 0.25053,0.42973 0.47169,0.78132 0.49144,0.78132 0.0198,0 0.24598,-0.41966 0.5027,-0.93258 0.94126,-1.88057 1.6382,-2.59209 2.75413,-2.8117 0.33412,-0.0658 1.92767,-0.18097 3.54121,-0.25604 3.3583,-0.15624 3.73991,-0.10781 4.36387,0.55377 l 0.37974,0.40264 0.91396,-0.45875 c 2.0661,-1.03705 4.38562,-1.54354 7.06611,-1.54295 2.806891,4.5e-4 5.117801,0.55202 6.964161,1.66171 0.51935,0.31215 0.96294,0.56754 0.98571,0.56754 0.0228,0 0.16529,-0.28007 0.31667,-0.62237 0.8282,-1.87269 1.84667,-2.21913 6.58669,-2.2405 2.56048,-0.0115 2.72354,8.7e-4 3.17643,0.24337 0.52739,0.28229 1.22698,1.00149 1.51391,1.55635 0.10212,0.19748 0.20802,0.35906 0.23534,0.35906 0.0273,0 0.20791,-0.33157 0.40132,-0.73682 0.1934,-0.40525 0.55255,-0.94048 0.79809,-1.1894 0.90309,-0.91549 1.69527,-1.07341 6.02189,-1.20039 2.55119,-0.0749 2.66162,-0.0687 3.22279,0.17951 0.3196,0.14138 0.68114,0.34744 0.80342,0.45792 0.34734,0.31382 0.76381,1.22657 0.84733,1.85701 0.15477,1.16846 -0.32927,11.961202 -0.65992,14.714002 -0.28633,2.38384 -0.79322,3.92985 -1.68618,5.14285 -0.51377,0.69791 -1.4617,1.56939 -2.17677,2.00121 -0.46652,0.28173 -0.44393,0.28479 0.99746,0.13531 2.87965,-0.29861 6.64583,-0.48925 7.22252,-0.36557 1.23893,0.26571 1.99652,0.92721 2.16149,1.88735 0.0618,0.35982 -0.19524,3.139 -1.10712,11.96956 -0.31896,3.08872 -0.33702,3.18545 -0.60809,3.25634 -0.12472,0.0326 -0.2114,0.0922 -0.19263,0.13237 0.0188,0.0402 0.20549,0.41632 0.4149,0.83584 0.43745,0.87631 0.61757,1.69771 0.61467,2.80305 -0.009,3.5545 -2.31432,5.69674 -5.91822,5.50035 -1.13045,-0.0616 -2.14148,-0.3882 -3.03773,-0.98131 l -0.45117,-0.29858 -0.40501,0.47318 c -0.22897,0.26749 -0.72168,0.62841 -1.13352,0.83033 -0.62709,0.30745 -0.94088,0.3747 -2.25403,0.48308 -0.83905,0.0693 -2.23844,0.13335 -3.10974,0.14243 -1.4159,0.0148 -1.64789,-0.0119 -2.18356,-0.25071 -0.32964,-0.14697 -0.78486,-0.46198 -1.0116,-0.70003 -0.41315,-0.43373 -1.38145,-2.00581 -1.38145,-2.24284 0,-0.0694 -0.0528,-0.12621 -0.11735,-0.12621 -0.0648,0 -0.11735,0.30671 -0.11735,0.68544 0,1.75891 -0.79074,2.82017 -2.4169,3.24374 -0.83621,0.2178 -4.03292,0.45699 -4.73517,0.3543 -0.29384,-0.043 -0.81735,-0.23032 -1.16335,-0.41633 l -0.62907,-0.3382 -0.42706,0.21599 c -0.70029,0.35418 -1.48166,0.46247 -4.4308,0.61401 -3.211831,0.16504 -3.910941,0.0878 -4.841731,-0.53517 -0.56048,-0.3751 -1.26012,-1.37482 -1.38575,-1.98013 -0.10275,-0.49507 -0.27617,-0.33185 -0.56797,0.53453 -0.59212,1.75812 -1.37186,2.55025 -2.90285,2.94902 -0.86165,0.22444 -4.67634,0.47336 -5.91474,0.38597 -1.15527,-0.0816 -2.00909,-0.41547 -2.50427,-0.97946 -0.19316,-0.21999 -0.3512,-0.45095 -0.3512,-0.51325 0,-0.21041 -0.2183,-0.1151 -0.29581,0.12915 -0.11957,0.37672 -0.75264,1.03983 -1.21861,1.27645 -0.61149,0.31051 -1.48365,0.45882 -3.47289,0.59056 -2.74988,0.18211 -4.12256,0.14905 -4.80031,-0.11561 z"
       id="path121" /><path
       id="path122"
       style="fill:#ffd42a;stroke:none;stroke-width:0.443522"
       d="m 126.7071,90.4047 c -1.54465,0.0463 -4.57165,0.22812 -4.70256,0.30902 -0.072,0.0445 -0.16263,2.27069 -0.23667,5.818246 -0.18532,8.878344 -0.19238,8.934374 -1.23455,9.895004 -1.30977,1.2073 -4.11062,1.08485 -4.93149,-0.21549 -0.51642,-0.81807 -0.54611,-1.15658 -0.41444,-4.78058 0.14549,-4.004584 0.32434,-7.90044 0.42891,-9.34879 l 0.0749,-1.04283 -1.57096,0.0827 c -2.58552,0.13615 -3.78551,0.28252 -3.93258,0.48007 -0.15273,0.20517 -0.21396,1.12105 -0.47025,7.038326 -0.27085,6.253694 -0.25888,7.773534 0.0708,8.801014 0.35081,1.09329 0.70373,1.67045 1.45366,2.3797 1.67403,1.58323 4.11207,2.10456 7.70238,1.64693 2.92275,-0.37254 5.65408,-1.8837 6.73344,-3.72535 0.83735,-1.42873 1.07108,-2.32816 1.29707,-4.99556 0.24511,-2.893314 0.71544,-12.23985 0.62064,-12.33465 -0.0233,-0.0234 -0.37344,-0.0232 -0.88832,-0.008 z m -27.408665,1.50791 c -0.31924,-0.006 -0.64788,-0.001 -0.98598,0.0145 -4.36031,0.20277 -7.37549,2.07285 -9.12193,5.657016 -1.03642,2.12703 -1.42174,4.097764 -1.30741,6.689004 0.0804,1.82262 0.3604,3.01843 1.02164,4.36408 1.59174,3.23919 5.21683,4.68978 10.03195,4.01422 3.143375,-0.441 5.783275,-2.28333 7.202655,-5.02553 1.08968,-2.10525 1.58026,-5.23842 1.2454,-7.955074 -0.62882,-5.101476 -3.29773,-7.664996 -8.086325,-7.758186 z m -10.41021,0.86455 c -0.0358,-0.0358 -1.34783,0.01 -2.91559,0.10077 -2.11707,0.12315 -2.87622,0.20626 -2.94969,0.32349 -0.0544,0.0868 -0.79595,1.65278 -1.64796,3.479896 -1.57301,3.373264 -1.81763,3.752574 -2.18436,3.385844 -0.099,-0.099 -0.87171,-1.543004 -1.71721,-3.209114 l -1.53738,-3.029266 -1.8774,0.0279 c -1.71346,0.0254 -3.90777,0.20308 -4.03128,0.3266 -0.07,0.07 3.08328,6.36149 4.82141,9.62008 l 1.43971,2.69906 0.0139,3.46181 c 0.008,1.90397 0.0212,3.52789 0.0295,3.60856 0.0198,0.19216 0.5954,0.18697 3.34863,-0.0294 1.22045,-0.0959 2.23491,-0.19006 2.25413,-0.20929 0.0192,-0.0192 -0.0224,-0.56075 -0.0925,-1.20355 -0.0701,-0.64279 -0.13296,-2.1192 -0.13952,-3.28093 -0.0161,-2.85564 -0.23569,-2.28612 3.7145,-9.622674 1.60405,-2.979136 3.06258,-5.626406 3.37861,-6.132446 0.0866,-0.13872 0.12823,-0.28155 0.0925,-0.31729 z m 9.13691,3.656106 c 2.184195,-0.0116 3.493555,1.12443 3.918095,3.39979 0.1782,0.955114 0.0618,3.888964 -0.19223,4.850354 -0.46287,1.75176 -1.37635,3.00026 -2.587955,3.53622 -0.6801,0.30085 -1.93425,0.38314 -2.67064,0.1757 h -5.1e-4 c -1.17309,-0.33094 -2.10107,-1.30562 -2.51458,-2.64118 -0.28676,-0.92615 -0.28245,-4.40954 0.006,-5.56659 0.43457,-1.738544 1.16969,-2.783914 2.37453,-3.377054 0.64809,-0.31906 0.88692,-0.3731 1.66709,-0.37724 z m 34.499695,18.035594 c -1.44204,0.0424 -4.296,0.19239 -4.51497,0.25632 -0.11509,0.0336 -0.14676,1.46228 -0.14676,6.63473 v 6.59237 l 0.72864,-0.0765 c 0.4009,-0.0419 1.40445,-0.11015 2.22984,-0.15192 1.06347,-0.0538 1.50068,-0.1179 1.50068,-0.21963 0,-0.13703 0.27075,-3.36383 0.83458,-9.94254 0.14248,-1.66236 0.22751,-3.05394 0.18913,-3.09232 -0.017,-0.017 -0.34046,-0.0146 -0.82114,-5.2e-4 z m -8.33075,0.35502 c -0.0447,-0.0427 -4.69665,0.29727 -4.98575,0.36432 l -0.26406,0.061 v 5.98982 c 0,3.55966 -0.0432,5.96282 -0.10646,5.92367 -0.1325,-0.0819 -1.88192,-3.26688 -4.29018,-7.81038 -1.00919,-1.90398 -1.90333,-3.5311 -1.98696,-3.6158 -0.1255,-0.1271 -0.51874,-0.12234 -2.25102,0.0289 -1.15446,0.10084 -2.31126,0.18453 -2.57039,0.18552 -0.25912,8.7e-4 -0.53128,0.0404 -0.60513,0.0879 -0.0934,0.06 -0.21082,2.17443 -0.38499,6.951 -0.13769,3.77568 -0.30158,8.21147 -0.36432,9.85728 -0.0627,1.64582 -0.11418,3.19314 -0.1142,3.43855 v 0.44648 l 0.96841,-0.078 c 0.53247,-0.0429 1.73374,-0.13849 2.66961,-0.21187 l 1.7017,-0.13333 0.0729,-1.70119 c 0.0402,-0.93586 0.10672,-2.65249 0.14779,-3.81423 0.14374,-4.06593 0.22533,-5.57382 0.30128,-5.57382 0.0421,0 0.18858,0.23071 0.32556,0.51263 0.13696,0.28192 1.21191,2.27517 2.38848,4.4297 1.17657,2.15454 2.37641,4.35955 2.66651,4.89996 l 0.52762,0.98237 0.71571,-0.0713 c 0.39389,-0.0393 1.61426,-0.12975 2.71147,-0.20153 1.09722,-0.0718 2.0283,-0.16511 2.06964,-0.20723 0.0903,-0.0921 0.18831,-1.67709 0.27957,-4.53615 0.11201,-3.50971 0.40684,-16.17592 0.37724,-16.20418 z m -20.53984,1.52032 c -0.0548,-0.0547 -5.131365,0.27253 -5.193475,0.33486 -0.0336,0.0336 -0.19335,3.87167 -0.4067,9.77253 -0.0677,1.87172 -0.17382,4.61686 -0.23616,6.1004 -0.0624,1.48355 -0.11368,3.13889 -0.11368,3.67833 v 0.98082 l 0.55758,-0.0672 c 0.30657,-0.0369 1.45509,-0.126 2.552295,-0.19844 1.09721,-0.0725 2.03468,-0.15589 2.08308,-0.18551 0.0485,-0.0296 0.088,-0.46014 0.0879,-0.95653 -1e-4,-0.90824 0.35141,-10.57001 0.59376,-16.31425 0.0717,-1.69941 0.10576,-3.11466 0.0754,-3.14503 z m -7.092065,0.39481 -0.63201,0.0698 c -0.34742,0.0386 -1.52898,0.13044 -2.62619,0.20412 -1.09722,0.0737 -2.03092,0.16837 -2.07481,0.20981 -0.0439,0.0414 -0.58981,2.08151 -1.21336,4.53409 -1.48666,5.84736 -2.01941,7.81906 -2.14716,7.9468 -0.12825,0.12826 -0.3008,-0.29069 -0.54105,-1.3162 -0.0983,-0.41952 -0.34055,-1.44919 -0.53899,-2.28823 -0.32417,-1.37069 -0.95642,-4.11361 -1.66346,-7.21713 -0.13969,-0.61315 -0.31079,-1.17509 -0.37982,-1.24902 -0.17887,-0.19156 -4.41663,0.15042 -4.59094,0.37052 -0.068,0.0858 -0.63428,1.91591 -1.25884,4.06693 -0.62455,2.15103 -1.44041,4.95829 -1.81281,6.23838 -0.37239,1.2801 -0.72862,2.33641 -0.79168,2.34715 -0.0631,0.0107 -0.18232,-0.28577 -0.2651,-0.65888 -0.15341,-0.69153 -1.43365,-8.50649 -1.68155,-10.26449 -0.133,-0.94319 -0.14483,-0.9679 -0.45734,-0.9679 -0.50162,0 -5.3319,0.35961 -5.37228,0.39998 -0.0627,0.0627 2.15284,10.23927 3.77962,17.35966 0.29256,1.28055 0.53226,2.3578 0.53226,2.39417 0,0.0671 1.62138,-0.003 4.67775,-0.2005 v 5.1e-4 c 0.92716,-0.0601 1.70302,-0.12636 1.72393,-0.14727 0.0209,-0.0209 0.1176,-0.40647 0.21497,-0.8568 0.47133,-2.1798 2.11513,-9.15421 2.34353,-9.94306 0.0793,-0.27396 0.19312,-0.48717 0.2527,-0.47388 0.0596,0.0133 0.49162,1.91435 0.96015,4.22455 0.46852,2.3102 0.96581,4.74173 1.10484,5.40329 l 0.2527,1.20251 0.42478,-0.002 c 1.11533,-0.003 6.04728,-0.35327 6.12365,-0.43459 0.0477,-0.0508 0.41321,-1.30659 0.81236,-2.79105 1.24352,-4.62484 1.83817,-6.82643 2.62981,-9.73997 1.57075,-5.78093 2.09642,-7.75419 2.15439,-8.08323 z m 33.363335,13.21108 c -0.7637,0.0428 -1.53007,0.2814 -2.08256,0.7028 -0.76418,0.58286 -1.09503,1.33607 -1.09503,2.49442 0,0.86036 0.0316,0.99122 0.32918,1.38131 0.82071,1.07573 2.58613,1.31747 4.1181,0.56327 0.43418,-0.21374 0.87881,-0.53997 1.05937,-0.7767 0.95976,-1.25831 0.831,-3.16893 -0.26252,-3.89537 -0.54195,-0.36001 -1.30284,-0.51257 -2.06654,-0.46973 z" /><path
       id="path116"
       style="fill:#fff6d5;stroke:none;stroke-width:0.443522"
       d="m 67.945862,153.58675 c -0.483369,-0.12962 -1.052897,-0.78938 -1.223359,-1.41717 -0.07916,-0.29154 -0.112175,-0.92298 -0.07912,-1.5134 0.07534,-1.34586 0.554164,-2.42454 1.454045,-3.27561 0.804767,-0.76112 1.511816,-1.07612 2.43708,-1.08579 1.445151,-0.0151 2.298741,0.47209 2.298741,1.31201 0,0.42993 -0.224946,0.83542 -0.463446,0.83542 -0.05205,0 -0.284212,-0.0792 -0.515918,-0.17602 -0.231704,-0.0968 -0.67381,-0.17516 -0.982456,-0.17409 -1.856822,0.006 -3.125456,2.47555 -2.204548,4.29074 0.32745,0.64544 0.363151,0.90567 0.147177,1.07278 -0.255834,0.19796 -0.488162,0.23305 -0.868191,0.13113 z M 130.09937,80.041416 c -0.62711,-0.203949 -1.27059,-0.604831 -1.63251,-1.017048 -0.56144,-0.639443 -0.64286,-0.937973 -0.39442,-1.446047 0.28845,-0.58987 0.78457,-0.640421 1.35654,-0.138221 1.02695,0.901675 2.21363,0.943719 2.97336,0.105346 0.36421,-0.401909 0.53123,-0.769138 0.73894,-1.624693 0.18292,-0.75347 0.19039,-0.763201 0.61273,-0.798442 0.36894,-0.03078 0.46546,0.01748 0.7041,0.352046 0.39308,0.551137 0.38748,1.682275 -0.0124,2.49814 -0.35406,0.72238 -1.11549,1.477411 -1.85267,1.837094 -0.59448,0.29006 -1.93221,0.414419 -2.49366,0.231825 z" /><path
       id="path115"
       style="fill:#ffd42a;stroke:none;stroke-width:0.443522"
       d="m 107.88372,155.84068 c -0.11865,-0.20087 -0.2935,-0.98117 -0.41595,-1.85629 -0.11617,-0.83037 -0.2467,-1.56715 -0.29005,-1.6373 -0.0434,-0.0702 -0.66688,-0.38304 -1.38563,-0.69531 -1.7726,-0.77014 -1.99091,-1.14649 -1.00001,-1.72399 0.26843,-0.15643 0.8841,-0.45211 1.36817,-0.65704 0.48407,-0.20494 0.9167,-0.40919 0.96141,-0.45389 0.0447,-0.0447 0.16362,-0.75065 0.26422,-1.56879 0.21472,-1.74604 0.39111,-2.36546 0.69001,-2.42301 0.30522,-0.0588 0.58696,0.23315 1.509,1.56356 0.44731,0.64541 0.89928,1.20401 1.00438,1.24132 0.10509,0.0373 0.77537,-0.0541 1.4895,-0.20313 1.47074,-0.30694 1.95264,-0.33704 2.15506,-0.13461 0.31852,0.3185 0.11155,0.92666 -0.81501,2.39486 -0.24879,0.39422 -0.45235,0.79762 -0.45235,0.89645 0,0.0988 0.26404,0.77226 0.58674,1.49651 0.618,1.387 0.70788,1.86566 0.39852,2.1224 -0.15867,0.13168 -0.37803,0.10629 -1.39677,-0.16165 -0.6647,-0.17482 -1.34184,-0.31786 -1.50478,-0.31786 -0.22943,0 -0.53944,0.27781 -1.37498,1.23216 -1.18572,1.35435 -1.44025,1.48018 -1.79148,0.88561 z M 56.535571,117.71065 c -0.19653,-0.19653 -0.49587,-1.25422 -0.67891,-2.39883 -0.0617,-0.38613 -0.16247,-0.50854 -0.70095,-0.85184 -2.06197,-1.3146 -1.91969,-1.19378 -1.91969,-1.63016 0,-0.49444 0.0611,-0.53079 1.58421,-0.94168 0.64541,-0.17411 1.21351,-0.35403 1.26244,-0.39981 0.0489,-0.0458 0.24668,-0.72917 0.43947,-1.51864 0.65885,-2.6981 0.836772,-2.7406 2.112241,-0.50451 l 0.645739,1.13209 h 1.44664 c 1.296573,0 1.463921,0.0237 1.613222,0.22779 0.09162,0.12529 0.166581,0.28399 0.166581,0.35268 0,0.0687 -0.321908,0.69267 -0.71535,1.38662 l -0.71535,1.26173 0.409916,1.02594 c 0.554379,1.38749 0.583984,1.50852 0.436413,1.78427 -0.167711,0.31336 -0.293004,0.30343 -1.313677,-0.10417 -1.456766,-0.58175 -1.331232,-0.60094 -2.449018,0.37422 -1.163067,1.01466 -1.330597,1.09763 -1.623927,0.8043 z m 88.550789,-10.17163 c -1.07948,-1.14252 -0.84369,-1.09916 -2.68856,-0.49438 -1.11317,0.36492 -1.14324,0.36831 -1.37885,0.1551 -0.3189,-0.28861 -0.30934,-0.39831 0.16494,-1.89284 0.46235,-1.45688 0.49504,-1.30386 -0.52748,-2.4691 -0.33284,-0.3793 -0.71196,-0.89791 -0.84249,-1.15247 l -0.23732,-0.46284 0.27804,-0.22577 c 0.23432,-0.19027 0.39334,-0.21436 1.01147,-0.15324 0.40338,0.0399 1.06347,0.10431 1.46686,0.14316 l 0.73342,0.0706 0.52385,-0.86273 c 1.60088,-2.636584 1.82253,-2.627904 2.3612,0.0925 0.1388,0.70093 0.29572,1.32137 0.34873,1.37876 0.053,0.0574 0.54542,0.19975 1.09426,0.31637 1.56178,0.33187 1.94544,0.45474 2.19299,0.70228 0.21139,0.21139 0.21615,0.25824 0.0575,0.56515 -0.16488,0.31883 -0.61809,0.64874 -1.85303,1.34887 -0.30538,0.17314 -0.60393,0.40577 -0.66344,0.51695 -0.0595,0.11119 -0.16762,0.7966 -0.24025,1.52315 -0.23132,2.31386 -0.391,2.39366 -1.80179,0.90049 z M 88.252823,80.759586 c -0.333215,-0.222489 -0.416287,-0.660073 -0.378671,-1.994603 l 0.0384,-1.361918 -1.150945,-0.927574 c -1.603941,-1.292648 -1.505115,-1.559442 0.788042,-2.12747 0.628702,-0.155732 1.15789,-0.301233 1.175978,-0.323336 0.0181,-0.0221 0.282368,-0.686361 0.587285,-1.476132 0.648754,-1.680331 0.844484,-1.975342 1.22952,-1.853136 0.266841,0.08469 0.516601,0.548645 1.20207,2.232946 0.323151,0.794032 0.181023,0.731599 2.266713,0.995713 0.57897,0.07332 1.12023,0.189379 1.20282,0.257918 0.29564,0.245364 0.13857,0.668303 -0.61261,1.649529 -0.8731,1.140471 -0.88958,1.226368 -0.5626,2.932087 0.31377,1.636794 0.0824,1.793437 -1.446947,0.979843 -0.555135,-0.295314 -1.100335,-0.536938 -1.211552,-0.536938 -0.111223,0 -0.740191,0.369646 -1.397709,0.82144 -1.150967,0.790854 -1.451027,0.917764 -1.729785,0.731631 z" /><path
       id="path112"
       style="fill:#ffff00;stroke:none;stroke-width:0.443522"
       d="m 75.574156,159.70867 c -0.335353,-0.13533 -0.628637,-0.57127 -0.628637,-0.93441 0,-0.35433 3.10053,-6.52785 6.603537,-13.14841 1.096734,-2.0728 1.26026,-2.25624 1.794377,-2.01288 0.229576,0.1046 0.285774,0.21743 0.285318,0.57283 -4.44e-4,0.49065 0.02053,0.44227 -3.250723,7.42483 -1.224614,2.61394 -2.510168,5.38631 -2.856794,6.1608 -0.834918,1.86555 -1.207108,2.23586 -1.947078,1.93724 z m 48.563414,-0.88811 c -0.31327,-0.13172 -0.48345,-0.3913 -1.12569,-1.71697 -0.41614,-0.85898 -2.19166,-4.51896 -3.9456,-8.1333 -1.75394,-3.61435 -3.19704,-6.72269 -3.20687,-6.90743 -0.0197,-0.37059 0.25076,-0.62385 0.54552,-0.51074 0.20689,0.0794 1.18799,1.71543 4.27262,7.12479 3.52341,6.17883 4.96258,8.84255 4.96258,9.18513 0,0.18411 -0.30699,0.90685 -0.38518,0.90685 -0.0149,0 -0.18937,0.0465 -0.38771,0.10343 -0.24661,0.0707 -0.47728,0.0544 -0.72967,-0.0518 z m -35.786042,-0.51345 c -0.599531,-0.37647 -0.871673,-0.90181 -0.813948,-1.57122 0.162809,-1.888 2.637956,-2.15115 3.127663,-0.33251 0.282603,1.04951 -0.342675,2.00698 -1.368364,2.09538 -0.424837,0.0366 -0.656698,-0.0104 -0.945351,-0.19165 z m 44.177102,-5.87743 c -0.2835,-0.223 -1.86642,-2.09987 -4.84753,-5.7477 -3.46883,-4.24462 -3.63547,-4.48805 -3.36644,-4.91747 0.0645,-0.10296 0.23837,-0.20508 0.38637,-0.22693 0.31622,-0.0467 1.37303,0.99638 5.56881,5.49645 3.28868,3.52719 3.81939,4.15504 3.81939,4.5185 0,0.91417 -0.88276,1.41033 -1.5606,0.87715 z m -42.178625,-1.46713 c -0.398244,-0.27894 -0.521654,-0.92364 -0.33643,-1.75756 0.229922,-1.03519 1.250148,-4.65949 1.381072,-4.90618 0.161446,-0.30421 0.812657,-0.22416 0.983652,0.12092 0.165678,0.33435 -0.04133,2.00046 -0.542197,4.36366 -0.343003,1.61838 -0.567061,2.2405 -0.806927,2.2405 -0.05778,0 -0.175772,0.0272 -0.262214,0.0603 -0.08645,0.0332 -0.274075,-0.0216 -0.416956,-0.12164 z m -32.528383,-5.28846 c -0.394324,-0.3318 -0.456722,-0.68087 -0.189826,-1.06192 0.09417,-0.13445 1.242722,-1.00304 2.552333,-1.93021 4.533436,-3.2095 7.545541,-5.3026 7.79364,-5.41573 0.311513,-0.14206 0.748273,0.0668 0.748273,0.35792 0,0.11245 -0.08442,0.32498 -0.187601,0.4723 -0.168583,0.24068 -3.491355,2.93647 -5.445134,4.41767 -0.419521,0.31806 -1.475659,1.14084 -2.346972,1.82841 -1.484358,1.17135 -2.179384,1.63536 -2.449491,1.63536 -0.06279,0 -0.276645,-0.13671 -0.475222,-0.3038 z m 78.734258,-1.06891 c -0.4819,-0.24958 -0.94112,-0.88715 -0.94112,-1.30662 0,-0.1637 0.10801,-0.52077 0.24003,-0.79348 0.54907,-1.13423 2.15212,-1.09103 2.75471,0.0742 0.21807,0.42171 0.22034,0.83011 0.007,1.33962 -0.31622,0.75683 -1.29533,1.08284 -2.06107,0.68625 z m 8.61713,-7.66592 c -2.36802,-1.24208 -6.0906,-3.33578 -6.29575,-3.54093 -0.49506,-0.49507 -0.0529,-1.48819 0.59083,-1.32702 0.55605,0.13922 7.42641,3.62856 7.77679,3.94968 0.5963,0.54655 0.33448,1.33266 -0.48767,1.4642 -0.34672,0.0555 -0.61179,-0.0359 -1.5842,-0.54593 z m -89.817479,0.25775 c -1.35336,-0.72582 -0.90251,-2.71929 0.615,-2.71929 0.57544,0 1.162851,0.43866 1.365254,1.01954 0.455955,1.30853 -0.761384,2.35343 -1.980254,1.69975 z m 4.622703,-4.76755 c -0.51576,-0.51577 -0.3664,-0.90229 0.518833,-1.34265 1.498624,-0.74551 4.943644,-2.14054 5.197026,-2.10449 0.34633,0.0493 0.416045,0.39776 0.140488,0.70225 -0.46445,0.51321 -4.871036,3.03292 -5.304112,3.03292 -0.145308,0 -0.393814,-0.12962 -0.552235,-0.28803 z m 84.672376,-6.63744 c -2.3038,-0.72549 -4.08853,-1.36714 -4.43622,-1.59491 -0.35978,-0.23569 -0.43457,-0.46758 -0.26842,-0.83225 0.12851,-0.28206 0.17754,-0.29758 0.74886,-0.23708 1.12924,0.11957 6.44675,1.59414 6.7391,1.86879 0.55215,0.51871 0.18213,1.39207 -0.58303,1.37616 -0.20977,-0.004 -1.1999,-0.26568 -2.20029,-0.58071 z m -93.987739,-0.3073 c -0.13377,-0.17006 -0.2425,-0.39449 -0.24161,-0.49873 0.006,-0.67817 0.32335,-0.9557 1.36526,-1.19292 2.42187,-0.55141 11.583723,-2.34105 11.984725,-2.34105 0.41317,0 0.521418,0.0472 0.605515,0.26403 0.142989,0.36868 -0.08715,0.68111 -0.64644,0.87757 -1.160382,0.40763 -12.14821,3.2003 -12.59167,3.2003 -0.12791,0 -0.34201,-0.13914 -0.47578,-0.3092 z m 99.033729,-9.33125 c -0.48407,-0.0577 -2.64915,-0.29219 -4.8113,-0.52107 -4.20661,-0.44528 -4.71756,-0.56226 -4.7931,-1.09737 -0.0733,-0.51937 0.20873,-0.59332 2.2632,-0.59339 1.91978,-6e-5 6.91361,0.18501 8.26111,0.30616 0.9587,0.0862 1.19236,0.30086 1.19236,1.09543 0,0.46643 -0.0511,0.61589 -0.26081,0.76277 -0.28445,0.19923 -0.52643,0.20544 -1.85146,0.0475 z m -82.613439,-2.83251 c -0.356199,-0.17957 -0.434759,-0.57061 -0.168189,-0.83718 0.172498,-0.1725 0.390621,-0.1869 1.795812,-0.11861 2.15628,0.1048 2.420905,0.16188 2.420905,0.52219 0,0.47173 -0.409807,0.58149 -2.170949,0.58149 -1.040845,0 -1.68483,-0.0507 -1.877579,-0.14789 z m 66.909799,-5.60544 c -0.19251,-0.0772 -0.26128,-0.18641 -0.2347,-0.37276 0.0328,-0.22937 0.19751,-0.3049 1.26975,-0.58196 1.41492,-0.3656 2.28651,-0.42155 2.38941,-0.15338 0.18285,0.47649 -0.37942,0.77396 -1.9956,1.05581 -1.1482,0.20022 -1.06731,0.19727 -1.42886,0.0523 z m -65.736312,-1.12699 c -0.419522,-0.0958 -2.795832,-0.62356 -5.280689,-1.17278 -5.036846,-1.11329 -11.029748,-2.53062 -11.880058,-2.80965 -0.92589,-0.30384 -1.28785,-1.01518 -0.78902,-1.55062 0.43995,-0.47223 0.71814,-0.42275 7.388389,1.31397 1.387648,0.36129 4.705861,1.2124 7.373806,1.89135 2.667946,0.67895 4.951844,1.28852 5.075329,1.35461 0.289785,0.15508 0.295492,0.71538 0.0099,0.97382 -0.261306,0.23648 -0.860081,0.23625 -1.897675,-8.8e-4 z m 65.319032,-7.845716 c -0.48849,-0.488491 -0.26807,-0.65039 3.29418,-2.419538 3.1222,-1.5506 3.68989,-1.727738 4.12922,-1.288411 0.31014,0.310137 0.31498,0.601519 0.0163,0.9812 -0.29841,0.379376 -0.68648,0.555996 -3.87511,1.763699 -3.08017,1.166618 -3.30131,1.226361 -3.56462,0.96305 z m -68.1354,-1.039279 c -0.970492,-0.411043 -6.662238,-2.993155 -7.334289,-3.327265 -0.856154,-0.425636 -1.23216,-0.818042 -1.23216,-1.285896 0,-0.464749 0.347684,-0.858163 0.75842,-0.858163 0.4807,0 1.302451,0.384498 3.735379,1.747789 4.502089,2.522742 5.250825,2.984755 5.326964,3.287029 0.08647,0.343322 -0.08531,0.647246 -0.386184,0.683229 -0.122491,0.01464 -0.51315,-0.09637 -0.86813,-0.246723 z m 68.43998,-8.235932 c -0.3545,-0.248306 -0.32785,-0.453076 0.12095,-0.929175 0.69072,-0.732717 7.27567,-5.56383 7.69689,-5.646896 0.4578,-0.09027 0.99292,0.230666 1.05271,0.631376 0.0849,0.568658 -0.3007,0.92823 -2.70413,2.521859 -5.51991,3.660059 -5.69164,3.755384 -6.16642,3.422836 z M 66.843939,89.091345 c -0.743433,-0.379145 -8.133758,-5.758576 -8.591263,-6.253599 -0.435613,-0.471336 -0.441289,-1.056599 -0.01351,-1.393091 0.638578,-0.502303 0.498745,-0.587193 5.49956,3.338601 3.737255,2.933861 4.165877,3.32511 4.165877,3.802638 0,0.353065 -0.258141,0.712603 -0.511639,0.712603 -0.07855,0 -0.325615,-0.09322 -0.549023,-0.207152 z m 26.427996,-1.58762 c -0.214802,-0.258821 -1.042571,-2.546364 -1.20368,-3.326378 -0.08057,-0.3901 -0.112903,-0.796806 -0.07184,-0.903797 0.107821,-0.28098 0.399521,-0.238983 0.614031,0.0884 0.302442,0.461582 1.359789,3.608892 1.321849,3.934651 -0.0401,0.344449 -0.441812,0.470444 -0.660353,0.20712 z m -8.058576,-1.160542 c -0.172921,-0.205507 -1.80664,-3.360716 -3.63048,-7.01158 -5.202181,-10.413421 -5.168846,-10.334238 -4.61934,-10.973076 0.489272,-0.568814 1.47356,-0.442615 1.740157,0.223113 0.05276,0.131736 0.923081,2.166972 1.934059,4.522745 4.553006,10.609397 5.332191,12.46183 5.404955,12.849686 0.08063,0.429804 -0.07814,0.762757 -0.363728,0.762757 -0.08317,0 -0.292703,-0.168139 -0.465623,-0.373645 z m 14.718346,0.06934 c -0.24548,-0.295785 -0.43447,-5.371087 -0.65082,-17.476843 -0.0708,-3.962087 -0.06,-4.378881 0.1229,-4.732527 0.40976,-0.792391 1.564525,-0.8817 2.037335,-0.157564 0.17717,0.271339 0.1976,0.617025 0.17104,2.893906 -0.0681,5.832859 -0.43401,18.110669 -0.56402,18.922781 -0.0333,0.207688 -0.14135,0.458522 -0.24024,0.557405 -0.23367,0.233661 -0.67936,0.230016 -0.876195,-0.0072 z m 6.838765,-0.305907 c -0.20234,-0.202339 -0.17705,-0.619813 0.1468,-2.423308 0.1582,-0.880965 0.3463,-2.077015 0.418,-2.657888 0.287,-2.324946 0.48058,-3.140511 0.82785,-3.487782 0.44369,-0.443685 0.95476,-0.437531 1.40927,0.01697 0.43581,0.435811 0.44403,0.859418 0.0457,2.356 -0.35742,1.342924 -1.74234,5.503905 -1.99368,5.989922 -0.19071,0.368807 -0.59395,0.466115 -0.85397,0.206087 z M 74.943689,85.676804 c -0.53463,-0.285806 -0.888247,-1.08031 -0.767437,-1.724278 0.184912,-0.985667 1.279553,-1.574984 2.135438,-1.149641 0.887968,0.441282 1.185279,1.30517 0.755044,2.193918 -0.409127,0.845146 -1.287715,1.126552 -2.123045,0.680001 z m 40.457771,-0.257812 c -0.25819,-0.153392 -0.26117,-0.549972 -0.009,-1.193447 0.32943,-0.840529 6.12391,-13.58264 6.4659,-14.218568 0.47186,-0.877381 1.29351,-1.044177 1.74551,-0.354337 0.18271,0.27886 0.18298,0.341926 0.004,0.907588 -0.21345,0.674372 -6.73098,13.711066 -7.22662,14.455044 -0.32475,0.487458 -0.62829,0.612535 -0.97976,0.40372 z m 8.59584,-0.711578 c -0.79387,-0.31656 -1.17023,-1.095332 -0.93515,-1.934991 0.25611,-0.914716 1.22129,-1.442224 1.94764,-1.064449 1.22452,0.636885 1.31193,2.295685 0.1537,2.916847 -0.44275,0.237449 -0.7273,0.257602 -1.16619,0.08259 z M 70.435031,79.529223 C 70.344391,79.319464 70.151775,78.838 70.006986,78.459305 69.718241,77.704091 69.296931,77.129496 68.069534,75.816956 67.018702,74.693228 66.850171,74.428 66.849237,73.896489 c -8.43e-4,-0.48721 0.320275,-0.909452 0.691673,-0.909452 0.122678,0 0.490118,0.224429 0.816534,0.498732 0.917471,0.770994 2.855291,2.866317 3.211312,3.472322 0.60181,1.024377 0.538784,2.066868 -0.160532,2.655304 -0.484318,0.407526 -0.771466,0.382693 -0.973193,-0.08417 z m 39.037089,-6.020771 c -0.41864,-0.293229 -0.34731,-1.042221 0.26178,-2.748812 0.28743,-0.805322 0.61747,-1.534604 0.73343,-1.620626 0.25314,-0.187782 0.81078,-0.102012 1.11259,0.171122 0.3329,0.301264 0.26703,1.108881 -0.20631,2.529381 -0.55894,1.677433 -1.14942,2.195699 -1.90149,1.668935 z m -9.911235,91.178888 c -0.17666,-0.0959 -0.35649,-0.3148 -0.39959,-0.48654 -0.0855,-0.34073 -0.0179,-3.86516 0.25285,-13.17691 0.19362,-6.65924 0.2285,-7.19543 0.48479,-7.45172 0.230545,-0.23055 0.347875,-0.22197 0.614785,0.0449 0.26905,0.26905 0.32087,1.05949 0.48557,7.40677 0.0628,2.42032 0.17156,6.2435 0.2417,8.49596 0.0702,2.25247 0.0947,4.27004 0.0547,4.4835 -0.13995,0.74595 -0.9975,1.08406 -1.734815,0.68399 z" /></g></svg>
