<?xml version="1.0" encoding="UTF-8" standalone="no"?>
<!-- Created with Inkscape (http://www.inkscape.org/) -->

<svg
   width="115.41605mm"
   height="114.97617mm"
   viewBox="0 0 115.41605 114.97616"
   version="1.1"
   id="svg1"
   xml:space="preserve"
   xmlns:xlink="http://www.w3.org/1999/xlink"
   xmlns="http://www.w3.org/2000/svg"
   xmlns:svg="http://www.w3.org/2000/svg"><defs
     id="defs1"><linearGradient
       id="linearGradient109"><stop
         style="stop-color:#d38700;stop-opacity:1;"
         offset="0"
         id="stop109" /><stop
         style="stop-color:#ffdf53;stop-opacity:1;"
         offset="1"
         id="stop110" /></linearGradient><radialGradient
       xlink:href="#linearGradient109"
       id="radialGradient110"
       cx="102.41959"
       cy="114.96724"
       fx="102.41959"
       fy="114.96724"
       r="55.835323"
       gradientTransform="matrix(1.355151,0.00430868,-0.00427901,1.3458213,-35.882461,-40.199414)"
       gradientUnits="userSpaceOnUse" /></defs><g
     id="layer1"
     transform="translate(-45.472538,-58.075559)"><rect
       style="fill:url(#radialGradient110);stroke:none;stroke-width:0.223;stroke-linecap:round;stroke-linejoin:round;paint-order:markers fill stroke"
       id="rect63"
       width="111.67065"
       height="110.15017"
       x="46.584263"
       y="59.892159"
       rx="6.588737"
       ry="6.588737" /><path
       style="fill:#000000;stroke-width:0.481795"
       d="m 51.750754,172.80466 c -2.324962,-0.60948 -4.325774,-2.24125 -5.394812,-4.39976 -0.982686,-1.98415 -0.900988,3.04702 -0.864599,-53.24396 l 0.03265,-50.520434 0.341533,-0.934976 c 0.497172,-1.361059 1.069052,-2.25412 2.10818,-3.292186 1.010125,-1.009091 2.391272,-1.790579 3.79146,-2.145306 0.67124,-0.170052 6.642504,-0.192479 51.249904,-0.192479 44.62413,0 50.57603,0.02237 51.22937,0.192545 2.61139,0.680179 4.66405,2.313417 5.74351,4.569923 0.30654,0.640807 0.6346,1.480606 0.729,1.866217 0.14238,0.581637 0.17164,9.259743 0.17164,50.926136 0,47.80057 -0.0112,50.26503 -0.22739,51.05362 -0.84397,3.07545 -3.16637,5.40066 -6.16475,6.17219 -0.70786,0.18215 -5.64682,0.20087 -51.30857,0.19452 -48.982519,-0.007 -50.553146,-0.0143 -51.437135,-0.24605 z M 154.45112,168.7121 c 0.98269,-0.46279 1.4206,-0.8724 1.92274,-1.79847 l 0.43554,-0.80327 0.0336,-50.16129 c 0.0334,-49.905636 0.0323,-50.165602 -0.22229,-51.007089 -0.30929,-1.022312 -1.05322,-1.914877 -2.06143,-2.473331 L 153.8775,62.091013 H 103.07882 52.280161 l -0.645463,0.340652 c -0.671526,0.354408 -1.436814,1.10569 -1.75698,1.724824 -0.102331,0.197891 -0.251664,0.703248 -0.331848,1.12302 -0.108258,0.566741 -0.136052,13.594359 -0.107977,50.605831 l 0.03781,49.84259 0.277434,0.67678 c 0.152587,0.37222 0.426785,0.87258 0.609326,1.11191 0.443872,0.58195 1.402837,1.22676 2.108314,1.41763 0.447681,0.12121 11.669984,0.15015 50.926713,0.13174 l 50.3525,-0.0236 z m -51.70831,-1.15246 c -0.52295,-0.2627 -0.55631,-0.56824 -0.55631,-5.0941 v -4.33393 l 0.3129,-0.3129 c 0.41401,-0.41401 1.06976,-0.42209 1.44952,-0.0178 0.27371,0.29134 0.27718,0.35099 0.27718,4.76618 0,4.0709 -0.02,4.49519 -0.22309,4.73984 -0.26563,0.31993 -0.88084,0.44333 -1.2602,0.25276 z m -20.862527,-1.07911 c -0.694533,-0.37657 -0.68442,-0.7022 0.07053,-2.27143 1.305064,-2.71264 3.08097,-6.12029 3.307848,-6.34716 0.234276,-0.23428 1.046814,-0.31242 1.336073,-0.12851 0.08326,0.053 0.21868,0.26718 0.300949,0.47608 0.141203,0.35855 0.0399,0.5968 -1.808539,4.25353 -1.756053,3.47394 -2.00045,3.8916 -2.368319,4.04732 -0.485304,0.20541 -0.399001,0.20848 -0.838552,-0.0298 z m 10.548609,-0.2369 c -0.172092,-0.17209 -0.312893,-0.38192 -0.312893,-0.4663 0,-0.29889 1.682772,-7.32039 1.829317,-7.63297 0.08188,-0.17465 0.303459,-0.39163 0.49241,-0.48219 0.461134,-0.22101 1.20343,0.0695 1.315192,0.51487 0.04524,0.18024 -0.235432,1.60874 -0.684148,3.48209 -0.418466,1.74706 -0.829743,3.47856 -0.913948,3.84774 -0.238453,1.0455 -1.064552,1.39814 -1.72593,0.73676 z m 20.310358,0.17756 c -0.12037,-0.0701 -0.33185,-0.51299 -0.46993,-0.98404 -0.37583,-1.28207 -1.79697,-6.91667 -1.79697,-7.12468 0,-0.32001 0.60323,-0.80665 0.99988,-0.80665 0.77486,0 0.84816,0.1667 1.87123,4.255 0.52422,2.09486 0.95314,3.90616 0.95314,4.02511 0,0.56258 -0.98955,0.96623 -1.55735,0.63526 z m 10.59368,-0.0751 c -0.36893,-0.4259 -3.93735,-7.58212 -3.93735,-7.89612 0,-0.70835 1.21228,-1.13548 1.68461,-0.59356 0.10688,0.12275 0.7558,1.313 1.4419,2.64511 0.68612,1.3321 1.52533,2.96065 1.86492,3.61899 0.67201,1.30273 0.73413,1.62634 0.39308,2.04753 -0.31551,0.38963 -1.17253,0.49508 -1.44716,0.17805 z M 69.205863,166.0848 c -0.144844,-0.12612 -0.297419,-0.38008 -0.339055,-0.56431 -0.0931,-0.41192 0.07086,-0.66223 2.062904,-3.14946 3.650115,-4.55746 4.028662,-5.0007 4.336769,-5.07803 0.431516,-0.10829 0.904207,0.0837 1.206912,0.49036 0.251009,0.33718 0.251141,0.34704 0.01109,0.82858 -0.133609,0.26804 -1.05588,1.49121 -2.049493,2.71815 -0.993613,1.22695 -2.284389,2.83313 -2.868391,3.56929 -1.006975,1.26936 -1.088565,1.34046 -1.579612,1.37662 -0.358175,0.0264 -0.598977,-0.0326 -0.781146,-0.1912 z m 66.657717,-0.006 c -0.33383,-0.28709 -5.46097,-6.82602 -5.79157,-7.38634 -0.33746,-0.57194 -0.21721,-1.00521 0.35468,-1.27792 0.3303,-0.15751 0.53226,-0.1807 0.78854,-0.0906 0.22868,0.0805 1.26007,1.25644 3.06777,3.49787 3.07876,3.81751 3.21285,4.00518 3.21351,4.49791 9.7e-4,0.78149 -1.04265,1.26665 -1.63293,0.75907 z m -80.121265,-1.068 c -0.12903,-0.075 -0.308887,-0.31303 -0.399671,-0.52894 -0.316298,-0.75226 -0.14348,-0.9423 3.486253,-3.83375 4.568662,-3.63942 4.261018,-3.42104 4.752149,-3.37344 0.31046,0.0301 0.494276,0.15319 0.711307,0.47635 0.294728,0.43886 0.290984,0.76659 -0.01306,1.14512 -0.123075,0.15321 -5.604722,4.6375 -7.140505,5.84132 -0.540453,0.42362 -0.98742,0.51112 -1.396447,0.27334 z m 92.525375,-1.03974 c -2.12432,-1.64504 -6.08979,-4.86188 -6.28847,-5.10127 -0.0905,-0.10899 -0.1465,-0.41168 -0.12444,-0.67253 0.0487,-0.57654 0.55114,-1.02224 1.01693,-0.90215 0.16385,0.0423 1.18705,0.7665 2.27377,1.60945 1.08672,0.84298 2.83632,2.19784 3.88798,3.01084 1.05167,0.81299 1.98863,1.622 2.08212,1.7978 0.33778,0.63505 -0.16797,1.44175 -0.9039,1.44175 -0.32907,0 -0.73232,-0.24558 -1.94397,-1.18389 z m -68.126882,-8.19663 c -1.120499,-0.23027 -2.58588,-0.87945 -3.330234,-1.47532 l -0.531756,-0.42568 -0.206304,0.31869 c -0.31719,0.48998 -0.932127,1.03964 -1.368234,1.22299 -0.449648,0.18902 -6.011835,0.29199 -6.553521,0.12134 -0.175277,-0.0552 -0.599804,-0.30035 -0.943392,-0.54471 -0.538523,-0.38302 -0.640326,-0.4164 -0.737931,-0.242 -0.06227,0.11124 -0.383473,0.3612 -0.713779,0.55535 l -0.600554,0.35303 -3.051901,-0.0358 c -2.878094,-0.0337 -3.080996,-0.0518 -3.562774,-0.31869 -0.28098,-0.15561 -0.628533,-0.48369 -0.772339,-0.72909 -0.25875,-0.44152 -0.261466,-0.57395 -0.261466,-12.74746 v -12.30131 l 0.318686,-0.56871 c 0.35996,-0.64235 0.945634,-1.08808 1.69476,-1.28981 0.335387,-0.0903 2.035283,-0.11994 4.984128,-0.0867 4.915081,0.0553 5.063356,0.0756 6.642217,0.90562 0.916398,0.48178 2.59507,2.09231 2.9861,2.86486 l 0.278669,0.55057 0.481826,-0.74178 c 1.080724,-1.66381 2.991306,-3.03848 4.921281,-3.54087 3.507521,-0.91307 6.694137,-0.22979 9.132799,1.95828 l 0.719069,0.64518 0.280661,-0.6915 c 0.380496,-0.93748 0.994777,-1.54284 1.811776,-1.78546 0.828897,-0.24615 5.214256,-0.27837 5.996351,-0.0441 0.278191,0.0833 0.773077,0.39185 1.099753,0.68555 l 0.593943,0.534 0.613918,-0.55581 c 0.83055,-0.75195 1.26521,-0.84488 3.70666,-0.79256 2.25952,0.0485 2.6638,0.16358 3.43884,0.97949 l 0.36873,0.38817 0.2461,-0.31287 c 0.13539,-0.17206 0.51438,-0.47055 0.84227,-0.66331 l 0.59619,-0.35047 h 2.7407 2.74071 l 0.61257,0.36008 c 0.33692,0.19803 0.67596,0.4992 0.75343,0.66924 0.0775,0.17004 0.18753,0.30917 0.24454,0.30917 0.057,0 0.35085,-0.24721 0.65299,-0.54933 0.79359,-0.7936 1.25128,-0.88717 4.06348,-0.83072 2.47094,0.0496 2.80011,0.12163 3.50806,0.7682 0.27442,0.25061 0.27453,0.25059 0.92795,-0.19888 0.38209,-0.26283 0.88882,-0.48481 1.22009,-0.5345 0.31163,-0.0468 2.24596,-0.0576 4.2985,-0.0242 3.3415,0.0545 3.82978,0.0896 4.6674,0.33625 1.59886,0.47072 3.19538,1.41051 4.17079,2.45509 0.60434,0.64721 1.35631,1.59235 1.5563,1.9561 0.20003,0.36383 0.25879,0.11517 0.31629,-1.33847 0.057,-1.44245 0.34883,-2.21299 1.03664,-2.7376 0.80711,-0.61563 1.22429,-0.69268 3.7759,-0.69738 2.2139,-0.004 2.3973,0.014 2.99565,0.29502 0.7343,0.34489 0.9959,0.60452 1.2699,1.26028 0.16893,0.40434 0.19606,1.51181 0.19606,8.00418 v 7.53491 l -0.37262,0.37261 c -0.20493,0.20494 -0.46307,0.37262 -0.57363,0.37262 -0.27743,0 -0.2677,0.0309 0.31346,0.99446 0.93687,1.55333 1.30575,3.43505 1.0264,5.23559 -0.2766,1.78265 -1.13853,2.97655 -2.66582,3.69253 -0.65737,0.30816 -0.86313,0.33913 -2.25314,0.33913 -1.44958,0 -1.57309,-0.0208 -2.35828,-0.39684 -1.33365,-0.63875 -2.22061,-1.70479 -2.66562,-3.20383 l -0.21546,-0.72581 -0.39869,0.57946 c -0.825,1.1991 -2.69062,2.6525 -3.99599,3.11307 -1.43158,0.50509 -2.10274,0.57017 -6.14976,0.59632 -3.7712,0.0244 -4.00415,0.0126 -4.54842,-0.23666 -0.31549,-0.14428 -0.6813,-0.38362 -0.8129,-0.53186 l -0.23928,-0.26952 -0.51445,0.44035 c -0.28293,0.24219 -0.72022,0.48421 -0.97172,0.53783 -0.75758,0.1615 -5.11524,0.10562 -5.63554,-0.0723 -0.25393,-0.0868 -0.70309,-0.38071 -0.99811,-0.65309 l -0.53643,-0.49523 -0.48496,0.48497 c -0.73057,0.73056 -1.09214,0.80098 -4.2002,0.81804 -2.37337,0.0126 -2.8339,-0.0166 -3.34915,-0.21542 -0.68213,-0.26323 -1.40134,-0.99182 -1.64548,-1.66697 -0.0916,-0.25342 -0.2083,-0.46078 -0.25924,-0.46078 -0.051,0 -0.22719,0.17193 -0.39164,0.38207 -0.50528,0.64563 -1.60947,1.38481 -2.5022,1.67506 -0.7383,0.24004 -1.2197,0.28372 -3.654741,0.33156 -3.224376,0.0633 -4.103729,-0.06 -5.64515,-0.79205 -1.14727,-0.54482 -2.348033,-1.65701 -2.956041,-2.73796 -0.238455,-0.42394 -0.465826,-0.76922 -0.505269,-0.76728 -0.03944,0.001 -0.301168,0.3514 -0.581613,0.77658 -1.068562,1.62008 -2.99375,2.97514 -4.971513,3.49924 -1.109646,0.29407 -3.958276,0.35341 -5.155295,0.10744 z m 4.464534,-2.58086 c 3.219717,-0.84048 4.952003,-3.82513 5.360582,-9.23603 0.32978,-4.36738 -0.316308,-8.69721 -1.623302,-10.87873 -0.932953,-1.55719 -2.478275,-2.67597 -4.115584,-2.97956 -1.644836,-0.305 -3.717394,-0.0691 -4.970251,0.56583 -2.159094,1.09408 -3.52295,3.73847 -3.975227,7.70759 -0.235621,2.06777 -0.08819,6.87465 0.260393,8.48967 0.960274,4.44907 3.237908,6.53741 7.140919,6.54745 0.622887,0.001 1.440196,-0.0903 1.92247,-0.21622 z m -2.87853,-4.02681 c -0.940567,-0.41983 -1.463781,-1.4659 -1.728623,-3.45605 -0.209962,-1.57777 -0.08535,-7.83326 0.179313,-9.00163 0.458581,-2.02438 1.514584,-2.95762 2.882831,-2.54768 1.123609,0.33664 1.675991,1.26056 1.991425,3.3309 0.260205,1.70782 0.18703,8.16948 -0.105379,9.30564 -0.531947,2.06688 -1.802198,3.00147 -3.219563,2.36882 z m 19.822108,3.98054 c 2.14811,-0.41163 3.50172,-1.70822 4.16661,-3.99107 0.20077,-0.6893 0.22691,-1.65245 0.26467,-9.74937 0.0392,-8.40964 0.0278,-8.99489 -0.17935,-9.14632 -0.27517,-0.2012 -3.63814,-0.22625 -4.00516,-0.0298 -0.23976,0.12837 -0.24657,0.35315 -0.24657,8.14099 0,8.00311 -0.0418,8.89459 -0.45821,9.77213 -0.54351,1.14534 -2.307419,1.3626 -3.197367,0.39379 -0.733188,-0.79816 -0.725113,-0.69532 -0.767128,-9.77059 -0.02126,-4.59227 -0.06559,-8.4213 -0.09851,-8.50894 -0.04455,-0.11853 -0.596413,-0.15935 -2.158088,-0.15935 -1.782579,0 -2.12997,0.0317 -2.309227,0.21101 -0.193333,0.19333 -0.206126,0.92709 -0.152805,8.76388 0.05022,7.3814 0.08713,8.67511 0.269511,9.44521 0.57137,2.41272 1.938007,3.99979 3.900324,4.52944 1.326378,0.358 3.403828,0.39938 4.9713,0.099 z m 11.94674,-0.35804 c 0.12641,-0.24806 0.15539,-1.73852 0.13104,-6.72432 -0.0171,-3.5231 -0.001,-6.40562 0.0336,-6.40561 0.0357,2e-5 0.20278,0.38723 0.37133,0.86049 1.61252,4.52762 4.63143,12.36062 4.81667,12.49756 0.17226,0.12739 0.70978,0.15928 2.18306,0.12978 1.76193,-0.0353 1.97233,-0.0636 2.13521,-0.28663 0.15261,-0.20903 0.18066,-1.96436 0.18066,-11.30615 v -11.05871 l -0.28331,-0.19844 c -0.37871,-0.26527 -3.74901,-0.2903 -4.10432,-0.0305 -0.21959,0.16056 -0.22271,0.43709 -0.0711,6.29092 0.0872,3.36763 0.13665,6.18624 0.10969,6.26358 -0.0268,0.0774 -0.375,-0.7315 -0.77364,-1.79743 -0.39863,-1.06594 -1.33542,-3.54425 -2.08177,-5.50736 -0.74635,-1.9631 -1.47368,-3.87704 -1.61628,-4.25316 -0.45188,-1.19193 -0.44109,-1.18757 -2.83252,-1.14111 -1.52349,0.0296 -2.13168,0.0869 -2.28608,0.21529 -0.1926,0.16017 -0.21038,1.11988 -0.21038,11.35161 0,8.64891 0.0353,11.21199 0.15613,11.33281 0.11264,0.11264 0.68889,0.14638 2.06787,0.12107 1.89547,-0.0347 1.91311,-0.0378 2.07405,-0.35372 z m -48.939688,0.10197 c 0.112471,-0.1125 0.15297,-1.21107 0.15297,-4.14958 v -3.99662 l 0.669241,0.0385 0.669243,0.0385 0.279348,0.82859 c 0.153643,0.45572 0.713978,2.22937 1.245189,3.94143 0.531212,1.71207 1.029188,3.18918 1.106613,3.28247 0.10726,0.12921 0.666984,0.16963 2.351487,0.16963 2.068251,0 2.219365,-0.0161 2.344972,-0.25087 0.139002,-0.25971 0.118019,-0.32699 -2.168141,-6.95146 l -0.791867,-2.29453 0.664502,-0.68126 c 1.354745,-1.38891 2.014192,-3.62018 1.870781,-6.32985 -0.154824,-2.92536 -1.05066,-4.68336 -2.884639,-5.66086 -1.265151,-0.67433 -2.045594,-0.77194 -6.191688,-0.77441 -2.712813,-0.001 -3.744048,0.0388 -3.856109,0.15076 -0.221695,0.2217 -0.221695,22.41781 0,22.63951 0.106685,0.10674 0.793176,0.15297 2.269049,0.15297 1.475874,0 2.16236,-0.0463 2.269049,-0.15297 z m 0.15297,-15.54087 v -2.94637 l 1.307563,0.0485 c 1.610249,0.0596 2.053965,0.26878 2.508291,1.18245 0.51564,1.03699 0.386023,3.12764 -0.243528,3.92798 -0.437823,0.5566 -1.005286,0.73392 -2.348713,0.73392 h -1.223613 z m 69.894708,15.48716 c 1.95483,-0.44036 3.37106,-1.36058 4.32583,-2.81078 1.22613,-1.86239 1.73114,-3.88763 1.84329,-7.39227 0.22872,-7.14673 -1.59949,-11.02542 -5.76154,-12.2237 -0.61845,-0.17805 -1.46383,-0.2312 -4.41666,-0.2776 -2.56351,-0.0403 -3.7317,-0.0146 -3.91985,0.0861 l -0.26803,0.14346 v 11.18779 c 0,8.53165 0.0364,11.22412 0.15296,11.34076 0.25363,0.25362 6.87601,0.20941 8.044,-0.0537 z m -3.35292,-10.92966 v -7.09254 h 0.96335 c 1.38421,0 2.0326,0.19793 2.67465,0.81648 0.90894,0.87568 1.09672,1.70415 1.17377,5.17861 0.11025,4.97487 -0.34657,6.77927 -1.95527,7.72203 -0.47019,0.27556 -0.78713,0.34995 -1.71659,0.40294 l -1.13991,0.065 z m 16.74525,10.7123 c 0.63585,-0.48499 0.87724,-1.01181 0.94467,-2.06171 0.0705,-1.09808 -0.11994,-1.84638 -0.61308,-2.40799 -0.51066,-0.58158 -0.99069,-0.75677 -1.8946,-0.69139 -0.93276,0.0674 -1.58547,0.51777 -1.95218,1.34678 -0.38351,0.86696 -0.2924,2.59759 0.17381,3.30165 0.47734,0.72087 1.0003,0.95366 2.03463,0.90571 0.68906,-0.0319 0.92726,-0.10365 1.30675,-0.39305 z m 0.18338,-7.88731 c 0.22076,-0.22075 0.22076,-14.26036 0,-14.48113 -0.20101,-0.20101 -3.32615,-0.21018 -3.6986,-0.0112 -0.26252,0.1405 -0.2645,0.18122 -0.17549,3.60115 0.21739,8.35164 0.3175,10.68357 0.46635,10.86293 0.19744,0.2379 3.17338,0.26229 3.40774,0.028 z M 56.884124,126.10977 c -0.177756,-0.17775 -0.360706,-0.47265 -0.406555,-0.65534 -0.100337,-0.39974 0.118285,-0.97939 0.446743,-1.18451 0.204085,-0.12739 8.305913,-1.87545 13.393516,-2.8897 0.876388,-0.17471 3.199615,-0.65976 5.162725,-1.07787 1.96311,-0.41813 4.742809,-1.0006 6.177108,-1.29439 3.287908,-0.67348 3.743906,-0.62668 3.910728,0.40133 0.05744,0.35399 0.0087,0.52104 -0.234171,0.80346 -0.263856,0.30676 -0.537218,0.40618 -1.957051,0.7118 -7.739554,1.66591 -12.294693,2.63528 -16.182468,3.4437 -1.402222,0.29157 -4.012266,0.84384 -5.800099,1.22725 -4.340772,0.93089 -4.119119,0.90563 -4.510476,0.51427 z m 89.472356,-0.41497 c -0.42067,-0.0944 -3.40357,-0.72175 -6.62868,-1.39404 -16.08443,-3.35287 -17.47224,-3.65554 -17.78272,-3.8783 -0.46024,-0.3302 -0.51813,-1.27606 -0.10211,-1.669 0.39967,-0.37752 0.59372,-0.35157 6.60334,0.88322 2.7694,0.56902 7.7887,1.57869 11.15403,2.2437 3.36534,0.66503 6.65693,1.3205 7.31464,1.45662 1.42216,0.29433 1.7998,0.56545 1.7998,1.29214 0,0.65434 -0.0987,0.85911 -0.51901,1.07646 -0.42872,0.2217 -0.81362,0.21944 -1.83926,-0.0112 z m -52.346108,-2.21326 c -0.299112,-0.24202 -0.301172,-0.26215 -0.339248,-3.31435 l -0.03831,-3.07085 h -1.150638 c -1.112373,0 -1.163551,-0.0126 -1.538913,-0.38827 -0.355821,-0.35583 -0.383007,-0.4431 -0.325252,-1.04416 0.04876,-0.50756 0.140406,-0.72247 0.405188,-0.95022 0.339479,-0.29201 0.3697,-0.29431 3.846406,-0.29431 h 3.50424 l 0.312893,0.31289 c 0.441418,0.44141 0.444129,1.43238 0.0053,1.94267 -0.287954,0.33486 -0.381015,0.36049 -1.459496,0.40198 l -1.151931,0.0444 -0.03833,2.99446 -0.03833,2.99446 -0.357665,0.30744 c -0.446826,0.38407 -1.203709,0.41367 -1.63594,0.0639 z m 6.194468,-0.0694 -0.312886,-0.31289 v -4.06277 -4.06277 l 0.295036,-0.27716 c 0.22219,-0.20875 0.45334,-0.27718 0.9363,-0.27718 0.99521,0 1.11729,0.20799 1.16988,1.99319 l 0.043,1.45731 1.29554,-0.0362 1.29554,-0.0362 0.0638,-1.46596 c 0.0351,-0.80629 0.10884,-1.53554 0.16395,-1.6206 0.30409,-0.46919 1.73711,-0.40613 2.00162,0.0881 0.0792,0.14797 0.12893,1.79683 0.12893,4.27092 v 4.02992 l -0.3373,0.31261 c -0.46029,0.42658 -1.28769,0.43523 -1.68007,0.0175 -0.25327,-0.2696 -0.27718,-0.42897 -0.27718,-1.84838 v -1.55335 l -0.95604,-0.0223 c -0.52584,-0.0126 -1.1225,-0.0323 -1.32591,-0.0447 l -0.36984,-0.0223 -0.0445,1.58539 c -0.0435,1.55504 -0.0513,1.59128 -0.40212,1.89301 -0.49369,0.42459 -1.26025,0.42218 -1.68773,-0.006 z m 9.63266,0.14915 c -0.60601,-0.30662 -0.63601,-0.52543 -0.63802,-4.65424 l -10e-4,-3.8619 0.31289,-0.31289 0.3129,-0.31289 h 2.94351 2.94349 l 0.31291,0.31289 c 0.24689,0.24691 0.31289,0.44438 0.31289,0.9363 0,1.04341 -0.13624,1.10162 -2.68998,1.14936 l -2.15406,0.0403 v 0.5015 0.5015 h 1.43759 c 1.79299,0 2.00422,0.1073 2.00422,1.01793 0,0.9544 -0.12654,1.02167 -1.92123,1.02167 h -1.52058 v 0.70111 0.70111 h 2.15782 2.15781 l 0.2642,0.33588 c 0.40271,0.51195 0.35608,1.24904 -0.10843,1.71352 l -0.37262,0.37262 -2.71864,-0.001 c -1.9244,-10e-4 -2.81102,-0.0486 -3.03482,-0.16186 z m -56.356136,-7.09254 c -0.548195,-0.5482 -0.453532,-1.50243 0.193629,-1.95184 0.07417,-0.0515 6.320205,-0.0945 13.880066,-0.0956 l 13.745204,-0.001 0.372618,0.37261 c 0.577755,0.57777 0.453615,1.48671 -0.252949,1.85208 -0.337422,0.1745 -1.954211,0.19733 -13.97376,0.19733 h -13.59219 z m 71.409666,0.19472 c -0.68736,-0.38097 -0.8364,-1.23985 -0.32139,-1.85191 l 0.33002,-0.3922 h 13.826 c 15.35311,0 14.44638,-0.0516 14.69106,0.83461 0.0834,0.30199 0.0808,0.57793 -0.008,0.83226 -0.27682,0.79408 0.46879,0.75558 -14.53516,0.75063 -11.1086,-0.004 -13.73522,-0.0362 -13.98265,-0.17339 z M 59.579243,110.6687 c -0.74782,-0.26691 -1.077115,-0.53465 -1.461189,-1.18803 l -0.356482,-0.60644 -0.06374,-5.67264 -0.06374,-5.672614 -0.872085,-2.167066 C 56.28236,94.170022 55.16771,91.330518 54.285006,89.051907 52.889263,85.44894 52.673113,84.791166 52.626555,84.005019 c -0.07799,-1.316988 0.352781,-2.092534 1.406948,-2.532993 0.602294,-0.251654 5.9489,-0.285679 6.758851,-0.043 0.518987,0.155492 1.144927,0.671812 1.514372,1.249159 l 0.203927,0.318686 0.195232,-0.465865 c 0.134662,-0.321318 0.386702,-0.578409 0.812325,-0.828584 l 0.617091,-0.36272 2.794015,-0.041 c 2.349237,-0.03447 2.880974,-0.0077 3.340272,0.167618 0.502872,0.192048 1.322982,0.940014 1.322982,1.2066 0,0.06233 0.329842,-0.106573 0.73298,-0.375359 0.982619,-0.655141 2.116176,-1.016589 3.573892,-1.139583 2.883308,-0.243276 5.14241,0.421885 6.83123,2.01136 0.308332,0.290193 0.515396,0.406601 0.550992,0.309755 0.03136,-0.08534 0.210627,-0.458198 0.398359,-0.828586 0.282832,-0.558022 0.459938,-0.73351 1.033429,-1.023988 0.691559,-0.350282 0.69425,-0.350556 3.441817,-0.349845 1.512344,3.92e-4 2.957525,0.05844 3.211514,0.128988 0.25399,0.07055 0.715157,0.351287 1.024815,0.623861 l 0.563018,0.495587 0.200816,-0.349902 c 0.110448,-0.192446 0.462292,-0.47648 0.781875,-0.631187 0.556529,-0.269413 0.707002,-0.279663 3.564384,-0.242802 l 2.983329,0.03848 0.54331,0.359819 c 1.25041,0.828098 1.32572,1.620595 1.24882,13.141777 -0.0617,9.236505 -0.0712,9.387215 -0.71621,11.228495 -0.33826,0.96574 -1.27063,2.34142 -2.035847,3.00385 -0.816725,0.707 -2.187043,1.35524 -3.376364,1.59719 -0.767376,0.15611 -1.514857,0.19134 -3.186868,0.15018 -1.937031,-0.0476 -2.300948,-0.0923 -3.214144,-0.39339 -1.749597,-0.57705 -3.43908,-1.87746 -4.223433,-3.25081 -0.425457,-0.74495 -0.388343,-0.75613 -1.118974,0.33708 -0.816428,1.22159 -2.584832,2.45366 -4.271935,2.9763 -0.837492,0.25943 -1.209007,0.29533 -2.995656,0.2895 -1.865829,-0.006 -2.126478,-0.0358 -3.059392,-0.34935 -1.283008,-0.43112 -2.124486,-0.91505 -3.029601,-1.74228 -1.078437,-0.98562 -2.147423,-2.73664 -2.726879,-4.46665 l -0.23483,-0.70111 -0.0716,2.54949 c -0.07814,2.78206 -0.147282,3.09265 -0.872336,3.91843 -0.668228,0.76108 -1.182914,0.8627 -4.337096,0.85628 -1.957791,-0.004 -2.887224,-0.0546 -3.226739,-0.1758 z m 19.129449,-2.56192 c 2.823867,-0.66573 4.462302,-2.77513 5.198994,-6.69343 0.273817,-1.45637 0.384494,-6.462743 0.187489,-8.48091 -0.568356,-5.822415 -2.474192,-8.638382 -6.182204,-9.134508 -3.43009,-0.458943 -5.867058,1.131744 -7.108514,4.639951 -0.743707,2.101632 -0.925334,3.595156 -0.927283,7.625133 -0.0018,3.840678 0.122569,5.048124 0.72248,7.011104 0.599736,1.96239 1.872515,3.69757 3.250242,4.43103 1.359539,0.72379 3.31405,0.96579 4.858796,0.60163 z m -2.602072,-4.50885 c -0.921249,-0.56178 -1.25388,-1.41335 -1.473178,-3.771539 -0.18445,-1.983457 -0.05669,-7.699272 0.198475,-8.879071 0.222896,-1.030616 0.717404,-2.040812 1.131991,-2.312459 0.762623,-0.499691 1.802811,-0.384447 2.428956,0.269108 0.854527,0.891934 1.102409,2.609418 1.097647,7.60521 -0.0038,4.005161 -0.133524,5.128101 -0.715641,6.195841 -0.580829,1.06536 -1.746003,1.45529 -2.66825,0.89291 z m 18.813822,4.52059 c 1.227177,-0.26309 1.970213,-0.63021 2.730073,-1.34884 0.809664,-0.76576 1.260125,-1.68838 1.63876,-3.35649 0.251796,-1.10926 0.267512,-1.61284 0.314239,-10.069405 0.04396,-7.962936 0.02795,-8.934267 -0.152808,-9.210046 -0.199591,-0.304617 -0.226108,-0.308293 -2.223049,-0.308293 -1.513125,0 -2.055961,0.04206 -2.159967,0.167388 -0.09654,0.116333 -0.149911,2.886619 -0.174953,9.082571 -0.03382,8.366845 -0.05062,8.948525 -0.273144,9.457435 -0.361159,0.82592 -0.856174,1.17875 -1.652921,1.17818 -0.837976,-6.2e-4 -1.383661,-0.32319 -1.769722,-1.04619 l -0.29196,-0.54677 -0.036,-8.978886 c -0.02504,-6.243044 -0.07834,-9.0299 -0.174953,-9.146308 -0.207962,-0.25058 -4.096046,-0.239299 -4.305014,0.0125 -0.111951,0.134901 -0.138482,2.486897 -0.10601,9.401257 0.04308,9.175057 0.04476,9.226137 0.334079,10.176997 0.517658,1.70126 1.495149,3.1055 2.613627,3.75465 0.51251,0.29747 1.859185,0.76815 2.502868,0.8748 0.730261,0.12106 2.414564,0.0711 3.186866,-0.0945 z m -29.83356,-0.31945 c 0.08397,-0.15691 0.131951,-1.92037 0.131951,-4.84954 v -4.602961 l 1.138073,-3.595666 c 0.62594,-1.977616 1.458167,-4.599526 1.849393,-5.826469 0.391227,-1.226945 0.864492,-2.769829 1.0517,-3.428634 l 0.340379,-1.197825 -0.291774,-0.236265 c -0.250031,-0.202463 -0.524609,-0.236264 -1.919214,-0.236264 -1.149029,0 -1.664887,0.04684 -1.754826,0.159344 -0.147258,0.184201 -0.85576,2.336675 -1.875532,5.697982 -0.688544,2.269532 -0.783825,2.532908 -0.874725,2.417906 -0.02309,-0.02921 -0.598435,-1.831386 -1.278541,-4.004831 -0.735713,-2.351147 -1.322336,-4.016253 -1.44834,-4.111057 -0.147475,-0.110954 -0.791634,-0.159344 -2.12137,-0.159344 -2.071897,0 -2.375824,0.09166 -2.375824,0.716509 0,0.26307 0.952204,2.978447 3.816238,10.88268 l 0.900326,2.484732 v 4.866503 c 0,2.67657 0.03482,4.95723 0.07737,5.06813 0.06645,0.17315 0.389975,0.20164 2.290059,0.20164 2.05715,0 2.221959,-0.0173 2.344644,-0.24657 z m 43.701298,2.89885 c -0.71823,-0.19098 -1.57467,-1.0127 -1.8038,-1.73066 -0.1059,-0.33161 -0.39976,-1.97966 -0.65317,-3.66234 -0.7931,-5.26613 -2.09101,-13.498601 -2.68358,-17.02145 -0.76673,-4.558358 -0.74412,-5.332497 0.1828,-6.259414 0.6895,-0.689512 1.18599,-0.777728 4.08385,-0.725624 2.64122,0.04748 2.9421,0.11028 3.50412,0.731296 0.24039,0.265641 0.24858,0.266089 0.50959,0.02796 0.73022,-0.666206 0.98683,-0.715494 3.9516,-0.758998 3.2105,-0.04711 3.59804,0.03198 4.32641,0.882906 l 0.43068,0.503167 0.2071,-0.316054 c 0.1139,-0.173831 0.47999,-0.476472 0.81353,-0.672538 l 0.60646,-0.356483 h 2.49484 2.49485 l 0.53267,0.352365 0.53268,0.352364 0.5319,-0.352364 c 0.52102,-0.345158 0.57643,-0.353206 2.70884,-0.39347 2.74424,-0.05181 3.09189,-1.67e-4 3.74148,0.555848 l 0.51452,0.440409 0.65536,-0.44103 c 0.36045,-0.242567 0.84354,-0.476328 1.07349,-0.519471 0.22997,-0.04315 1.53237,-0.05959 2.8942,-0.03655 2.90165,0.0491 3.23853,0.149021 3.87829,1.150376 0.21032,0.329221 0.41111,0.601544 0.44616,0.605161 0.0351,0.0037 0.17846,-0.206284 0.31868,-0.466447 0.14017,-0.260163 0.50363,-0.647212 0.80758,-0.86011 l 0.55261,-0.387086 h 2.83459 2.83457 l 0.51272,0.339181 c 0.28201,0.186549 0.62208,0.559412 0.75573,0.828585 0.23341,0.470084 0.24437,0.99178 0.27727,13.214325 0.0236,8.760706 -0.008,12.883116 -0.10252,13.232726 -0.18094,0.67193 -0.89931,1.44774 -1.58198,1.70846 -0.46231,0.17656 -0.96594,0.203 -3.14689,0.16528 -2.84574,-0.0493 -3.04505,-0.0955 -3.89961,-0.90639 l -0.41079,-0.38977 -0.27049,0.34386 c -0.14877,0.18913 -0.50886,0.47134 -0.80021,0.62713 -0.48553,0.25963 -0.73633,0.28675 -3.00692,0.32517 -2.82389,0.0478 -3.37136,-0.0472 -4.10822,-0.71295 l -0.4783,-0.43212 -0.42898,0.42899 c -0.23594,0.23594 -0.66098,0.49849 -0.94455,0.58345 -0.69626,0.20861 -4.86825,0.20756 -5.56569,-0.001 -0.70307,-0.21065 -1.55237,-1.04629 -1.72019,-1.69253 -0.13005,-0.5009 -0.2509,-1.92999 -0.26944,-3.18687 -0.0145,-0.98443 -0.22016,-0.4556 -0.31654,0.81406 -0.17373,2.28868 -0.61332,3.32227 -1.6485,3.87598 -0.48832,0.26121 -0.72612,0.28441 -3.30268,0.32231 -3.13859,0.0462 -3.62475,-0.0404 -4.51706,-0.80421 l -0.50951,-0.43611 -0.36888,0.39274 c -0.75011,0.7986 -1.08095,0.86603 -4.19312,0.85451 -1.54245,-0.006 -3.01737,-0.067 -3.27762,-0.13623 z m 5.84438,-3.03471 c 0.12023,-0.25907 0.8818,-4.96546 1.8873,-11.66393 0.17766,-1.183602 0.13988,-1.303953 0.64107,2.039594 1.23175,8.216266 1.4672,9.658816 1.60324,9.822736 0.12275,0.14785 0.60131,0.18403 2.43439,0.18403 2.24506,0 2.28364,-0.004 2.40368,-0.28683 0.0671,-0.15775 0.61518,-3.35576 1.21793,-7.10671 0.60276,-3.750943 1.43576,-8.890844 1.85113,-11.42201 0.41534,-2.531165 0.75519,-4.723305 0.75519,-4.871422 0,-0.148117 -0.11096,-0.328684 -0.24657,-0.401263 -0.38857,-0.207958 -3.90203,-0.171816 -4.11619,0.04235 -0.11404,0.113974 -0.4931,2.419455 -1.0953,6.660551 -0.50655,3.567444 -0.9198,6.615318 -0.91834,6.77307 0.006,0.532539 -0.21617,0.291642 -0.29252,-0.318692 -0.4202,-3.359066 -1.89256,-12.969328 -2.00837,-13.108891 -0.11756,-0.141637 -0.58473,-0.180342 -2.17683,-0.180342 -1.98559,0 -2.02933,0.0059 -2.13389,0.286818 -0.0587,0.157751 -0.52965,3.255385 -1.04651,6.883633 -0.51685,3.62825 -0.98366,6.596813 -1.03735,6.596813 -0.0537,0 -0.0976,-0.136516 -0.0976,-0.303411 0,-0.166881 -0.40155,-3.11984 -0.89232,-6.562139 -0.49079,-3.4423 -0.89233,-6.313257 -0.89233,-6.379904 0,-0.06664 -0.0902,-0.211318 -0.20032,-0.321492 -0.16428,-0.164294 -0.54404,-0.200318 -2.11171,-0.200318 -1.07379,0 -2.01944,0.05782 -2.15795,0.131965 -0.13849,0.07407 -0.24658,0.265884 -0.24658,0.437273 0,0.167923 0.28889,2.101927 0.64198,4.297786 0.3531,2.19586 1.15628,7.319562 1.78488,11.386005 0.62857,4.06644 1.19948,7.52383 1.26865,7.6831 0.12528,0.28854 0.13469,0.28945 2.57954,0.25496 l 2.45376,-0.0347 z m 19.72766,0.18079 c 0.0426,-0.11096 0.0774,-5.47031 0.0774,-11.909776 0,-10.4738 -0.0211,-11.729263 -0.20032,-11.908461 -0.30347,-0.303464 -3.94604,-0.294405 -4.28312,0.01067 -0.22261,0.201453 -0.23312,0.736611 -0.23312,11.863532 0,7.788625 0.0437,11.734315 0.13202,11.899125 0.12248,0.22881 0.28677,0.24656 2.28092,0.24656 1.84195,0 2.15998,-0.0288 2.22632,-0.20163 z m 7.34343,-6.42704 c 0.0562,-5.780388 0.0847,-6.504021 0.2387,-6.05505 0.60851,1.77336 4.53277,12.16205 4.68287,12.3969 0.17758,0.27787 0.247,0.28683 2.22406,0.28683 1.99889,0 2.04302,-0.006 2.15036,-0.28683 0.0602,-0.15775 0.11742,-5.47158 0.12683,-11.808504 0.0153,-10.211598 -0.006,-11.555992 -0.18038,-11.823279 -0.19202,-0.293056 -0.24708,-0.301527 -1.94745,-0.299629 -0.96241,0.0011 -1.83588,0.05638 -1.94105,0.122892 -0.16667,0.105421 -0.18532,0.902676 -0.14527,6.212439 0.0253,3.350322 0.0716,6.134513 0.10309,6.187097 0.0315,0.05253 0.0112,0.0941 -0.0459,0.09213 -0.0567,-0.0014 -1.13566,-2.732567 -2.39766,-6.068106 -1.262,-3.335541 -2.36951,-6.17347 -2.46113,-6.306507 -0.15155,-0.220094 -0.34589,-0.241887 -2.15702,-0.241887 -1.67326,0 -2.02761,0.03362 -2.22358,0.210969 -0.22265,0.201493 -0.23312,0.741654 -0.23312,12.025112 0,6.497783 0.0396,11.853793 0.0881,11.902243 0.0485,0.0485 0.98062,0.0723 2.07147,0.0531 l 1.98337,-0.035 z M 94.44078,79.166703 c -0.339928,-0.238095 -0.410828,-0.472596 -2.021634,-6.686504 -0.70596,-2.723343 -1.243487,-5.054562 -1.249192,-5.417675 -0.0093,-0.592746 0.01834,-0.651542 0.394953,-0.839744 0.60426,-0.301964 1.167314,-0.174526 1.38673,0.31386 0.238417,0.530685 2.997779,11.385279 3.015077,11.860506 0.0094,0.257075 -0.09317,0.463582 -0.332266,0.669243 -0.401496,0.345351 -0.796442,0.378542 -1.193668,0.100309 z m 8.15815,0.065 c -0.15876,-0.06378 -0.34649,-0.268059 -0.41716,-0.453942 -0.0826,-0.217352 -0.11615,-3.088793 -0.0937,-8.04564 l 0.0347,-7.707669 0.30094,-0.243637 c 0.39226,-0.317566 0.91948,-0.30947 1.33904,0.02056 l 0.33588,0.264202 v 7.836236 7.836235 l -0.31289,0.312893 c -0.32431,0.324304 -0.69061,0.380096 -1.18679,0.180759 z m 8.29679,-0.0194 c -0.66559,-0.32178 -0.64924,-0.493848 0.51372,-5.40926 0.59512,-2.515394 1.20552,-5.130276 1.35644,-5.810849 0.33209,-1.497537 0.59204,-1.885724 1.2628,-1.885724 0.51258,0 1.03277,0.403236 1.03277,0.80057 0,0.207965 -0.18084,0.9857 -1.41048,6.066078 -0.34562,1.427937 -0.77799,3.263571 -0.96084,4.07919 -0.38252,1.706393 -0.56276,2.120817 -0.96979,2.229849 -0.37886,0.101488 -0.48962,0.09211 -0.82462,-0.06986 z m 8.26523,-0.05254 c -0.56601,-0.396451 -0.57826,-0.740967 -0.0666,-1.874131 1.37957,-3.055448 6.95714,-14.073443 7.23136,-14.284906 0.4496,-0.346703 1.16469,-0.0956 1.45371,0.51046 l 0.20935,0.439028 -3.75482,7.528107 c -2.06516,4.140457 -3.86797,7.608523 -4.00627,7.706811 -0.3308,0.235107 -0.70763,0.226145 -1.06672,-0.02537 z M 86.011581,79.013277 C 85.69646,78.75178 78.348733,64.199726 78.348733,63.837131 c 0,-0.135181 0.11889,-0.396923 0.264201,-0.581656 0.33472,-0.425526 1.130589,-0.470785 1.515207,-0.08616 0.402068,0.402067 7.39877,14.51123 7.39877,14.919952 0,0.535074 -0.117822,0.75313 -0.519016,0.960598 -0.468988,0.242522 -0.668815,0.235185 -0.996314,-0.03659 z M 64.89733,78.570272 c -0.278891,-0.226125 -1.686137,-1.473785 -3.127214,-2.772576 -1.441077,-1.298789 -3.448803,-3.102878 -4.461614,-4.009083 -2.350744,-2.103313 -2.447513,-2.261695 -1.830143,-2.9954 0.418293,-0.497112 0.874562,-0.509952 1.479985,-0.04164 0.249258,0.192805 2.166816,1.862667 4.26124,3.710803 2.094425,1.848136 4.195249,3.701751 4.668499,4.119144 0.748147,0.659846 0.860454,0.816074 0.860454,1.196973 0,0.479104 -0.311487,0.878849 -0.841975,1.080538 -0.446536,0.169775 -0.44217,0.171023 -1.009232,-0.288752 z m 11.390585,0.251793 c -0.204016,-0.16466 -1.307877,-1.537447 -5.970788,-7.4254 -3.758469,-4.745899 -3.56859,-4.481345 -3.56859,-4.972026 0,-0.71128 0.778662,-1.161792 1.417296,-0.820005 0.279771,0.149728 9.362209,11.454724 9.634548,11.992211 0.420075,0.829058 -0.789385,1.808818 -1.512466,1.22522 z m 52.726215,-0.15355 c -0.63446,-0.634449 -0.65567,-0.600959 4.2845,-6.763427 2.52856,-3.154187 4.74779,-5.892636 4.93163,-6.085441 0.20383,-0.213786 0.46887,-0.350555 0.67932,-0.350555 0.43042,0 1.1369,0.635093 1.1369,1.02201 0,0.323543 -0.0476,0.38581 -5.06785,6.62647 -5.09786,6.337163 -4.67757,5.863836 -5.20672,5.863836 -0.30239,0 -0.54511,-0.100224 -0.75778,-0.312893 z m 11.51358,0.114185 c -0.62046,-0.336713 -0.7948,-1.03522 -0.38279,-1.533756 0.34122,-0.412881 9.9264,-8.491353 10.33371,-8.709345 0.6936,-0.371197 1.55047,0.119649 1.55047,0.888161 0,0.467481 -0.12935,0.603295 -2.4272,2.548659 -0.87354,0.739531 -2.96498,2.52 -4.64764,3.956597 -1.68267,1.436596 -3.20123,2.710184 -3.37457,2.830193 -0.38048,0.2634 -0.5952,0.267377 -1.05198,0.01949 z"
       id="path16" /><path
       id="path29"
       style="fill:#fffeb8;fill-opacity:1;stroke:none;stroke-width:0.481795"
       d="m 75.633826,82.813676 c -2.78131,0.045 -4.78262,1.64632 -5.86889,4.71599 -0.7437,2.10163 -0.92564,3.59541 -0.92759,7.62538 -0.002,3.840665 0.12304,5.047954 0.72295,7.010934 0.59974,1.96239 1.87221,3.6978 3.24993,4.43125 1.35954,0.72379 3.31439,0.96568 4.85914,0.60152 2.82386,-0.66573 4.46196,-2.77535 5.19865,-6.69365 0.27381,-1.456369 0.38459,-6.462454 0.18758,-8.480614 -0.56835,-5.82241 -2.47404,-8.6382 -6.18205,-9.13433 -0.42876,-0.0574 -0.84239,-0.0829 -1.23972,-0.0765 z m 55.434854,0.0811 c -0.99071,0.002 -1.98533,0.081 -2.15387,0.23358 -0.22261,0.20145 -0.23358,0.73645 -0.23358,11.86336 0,7.788614 0.044,11.734714 0.13229,11.899524 0.12248,0.22881 0.28685,0.2465 2.281,0.2465 1.84195,0 2.15988,-0.0292 2.22622,-0.20206 0.0426,-0.11095 0.0775,-5.46988 0.0775,-11.909344 0,-10.47379 -0.0213,-11.72963 -0.20051,-11.90883 -0.15173,-0.15173 -1.13836,-0.22519 -2.12907,-0.22273 z m -43.566324,0.008 c -1.02414,0.003 -2.04836,0.0689 -2.15284,0.19482 -0.11195,0.1349 -0.13841,2.48662 -0.10594,9.40097 0.0431,9.175054 0.0445,9.226294 0.33383,10.177154 0.51766,1.70126 1.49532,3.10566 2.6138,3.75481 0.51251,0.29747 1.859,0.76823 2.50269,0.87488 0.73026,0.12106 2.41458,0.071 3.186877,-0.0946 1.22718,-0.26309 1.97021,-0.63012 2.73007,-1.34875 0.80966,-0.76576 1.26002,-1.68879 1.63866,-3.3569 0.25179,-1.10926 0.26746,-1.6126 0.31419,-10.069154 0.044,-7.96292 0.0283,-8.93451 -0.15244,-9.21029 -0.1996,-0.30461 -0.22619,-0.30799 -2.22312,-0.30799 -1.51313,0 -2.05607,0.0421 -2.16008,0.16743 -0.0965,0.11634 -0.14962,2.88619 -0.17467,9.08214 -0.0338,8.366824 -0.0508,8.948894 -0.273357,9.457814 -0.36116,0.82592 -0.85639,1.17879 -1.65313,1.17822 -0.83798,-6.2e-4 -1.38334,-0.32345 -1.7694,-1.04645 l -0.29198,-0.54673 -0.0362,-8.978774 c -0.025,-6.24304 -0.078,-9.02981 -0.17467,-9.14622 -0.10398,-0.12529 -1.12818,-0.18539 -2.15232,-0.18241 z m 36.514564,0.01 c -0.95371,0.01 -1.88557,0.0722 -1.99265,0.17932 -0.11404,0.11398 -0.49334,2.41949 -1.09554,6.66058 -0.50655,3.56744 -0.91975,6.61548 -0.91829,6.77323 0.006,0.53254 -0.21613,0.29149 -0.29248,-0.31885 -0.4202,-3.35906 -1.89234,-12.96919 -2.00815,-13.10876 -0.11756,-0.14163 -0.58503,-0.18035 -2.17713,-0.18035 -1.98559,0 -2.02916,0.006 -2.13372,0.28681 -0.0587,0.15775 -0.52959,3.25505 -1.04645,6.8833 -0.51685,3.62824 -0.98397,6.59701 -1.03766,6.59701 -0.0537,0 -0.0977,-0.13645 -0.0977,-0.30334 0,-0.16688 -0.40116,-3.12009 -0.89193,-6.56239 -0.49079,-3.4423 -0.89246,-6.31333 -0.89246,-6.37997 0,-0.0666 -0.0904,-0.21126 -0.2005,-0.32143 -0.16428,-0.16429 -0.54383,-0.19999 -2.1115,-0.19999 -1.07379,0 -2.0195,0.0576 -2.15801,0.13178 -0.13849,0.0741 -0.24649,0.26579 -0.24649,0.43718 0,0.16792 0.28873,2.10207 0.64182,4.29793 0.3531,2.19586 1.1563,7.31943 1.7849,11.385865 0.62857,4.066439 1.19949,7.523979 1.26866,7.683249 0.12528,0.28854 0.13484,0.28925 2.57969,0.25476 l 2.45359,-0.0346 0.1478,-0.31833 c 0.12023,-0.25907 0.88224,-4.96542 1.88774,-11.663874 0.17766,-1.1836 0.1396,-1.3044 0.64079,2.03915 1.23174,8.216254 1.46748,9.659244 1.60352,9.823164 0.12275,0.14785 0.60088,0.18397 2.43396,0.18397 2.24505,0 2.28394,-0.004 2.40398,-0.2868 0.0671,-0.15775 0.61527,-3.35611 1.21802,-7.107059 0.60276,-3.750935 1.43568,-8.890875 1.85105,-11.422045 0.41534,-2.53116 0.75499,-4.7229 0.75499,-4.87102 0,-0.14811 -0.11089,-0.32894 -0.2465,-0.40152 -0.19428,-0.10398 -1.16968,-0.14676 -2.12338,-0.13695 z m -67.022264,0.005 c -2.07189,0 -2.37608,0.0914 -2.37608,0.71624 0,0.26307 0.95227,2.97883 3.8163,10.88305 l 0.90021,2.48461 v 4.866364 c 0,2.67656 0.035,4.95701 0.0775,5.0679 0.0665,0.17315 0.39022,0.20206 2.2903,0.20206 2.05715,0 2.22188,-0.0172 2.34456,-0.2465 0.084,-0.15691 0.13178,-1.92066 0.13178,-4.84983 v -4.602814 l 1.13791,-3.59565 c 0.62594,-1.97761 1.45828,-4.59957 1.8495,-5.82651 0.39123,-1.22695 0.86441,-2.76993 1.05162,-3.42874 l 0.34054,-1.19786 -0.29197,-0.23616 c -0.25003,-0.20246 -0.52466,-0.23616 -1.91926,-0.23616 -1.14903,0 -1.66448,0.0467 -1.75442,0.15917 -0.14725,0.1842 -0.85608,2.33654 -1.87585,5.69784 -0.68854,2.26953 -0.78347,2.53294 -0.87437,2.41794 -0.0231,-0.0292 -0.59888,-1.83148 -1.27899,-4.00492 -0.73571,-2.35115 -1.32197,-4.01606 -1.44797,-4.11086 -0.14748,-0.11096 -0.79158,-0.15917 -2.12132,-0.15917 z m 81.919544,0 c -1.67326,0 -2.02767,0.0335 -2.22364,0.21084 -0.22265,0.20149 -0.23306,0.74166 -0.23306,12.02511 0,6.497774 0.0393,11.853654 0.0879,11.902104 0.0485,0.0485 0.98086,0.0724 2.07171,0.0532 l 1.98334,-0.0351 0.0636,-6.56497 c 0.0562,-5.780384 0.0848,-6.503894 0.23875,-6.054924 0.60851,1.77336 4.53282,12.162324 4.68292,12.397174 0.17758,0.27787 0.24709,0.2868 2.22415,0.2868 1.99889,0 2.04292,-0.006 2.15026,-0.2868 0.0602,-0.15775 0.11719,-5.47166 0.1266,-11.808584 0.0153,-10.21158 -0.006,-11.55628 -0.18035,-11.82356 -0.19202,-0.29306 -0.2468,-0.30163 -1.94716,-0.29973 -0.96241,0.001 -1.8358,0.0565 -1.94097,0.12299 -0.16667,0.10542 -0.18526,0.90279 -0.14521,6.21254 0.0253,3.35032 0.0713,6.13464 0.10283,6.18722 0.0315,0.0525 0.0111,0.094 -0.046,0.092 -0.0567,-0.001 -1.13527,-2.73231 -2.39727,-6.06785 -1.262,-3.33554 -2.36973,-6.17356 -2.46135,-6.30659 -0.15155,-0.2201 -0.34584,-0.24185 -2.15697,-0.24185 z m -63.051444,4.50257 c 0.54596,-0.0308 1.09901,0.1672 1.49035,0.57568 0.85453,0.89193 1.10237,2.60943 1.09761,7.60522 -0.004,4.005145 -0.13309,5.128254 -0.71521,6.195994 -0.58082,1.06536 -1.74632,1.45535 -2.66857,0.89297 -0.92124,-0.56178 -1.25399,-1.41316 -1.47329,-3.771349 -0.18445,-1.983445 -0.0567,-7.699755 0.19844,-8.879555 0.22289,-1.03061 0.71764,-2.04036 1.13223,-2.312 0.28598,-0.18739 0.61086,-0.28849 0.93844,-0.30696 z m 6.03012,41.641384 c -1.33554,-0.0326 -2.7361,0.21936 -3.67574,0.69556 -2.15909,1.09408 -3.52268,3.73842 -3.97495,7.70754 -0.23562,2.06777 -0.0887,6.8749 0.25993,8.48992 0.96027,4.44907 3.23816,6.53737 7.14117,6.54741 0.62288,0.001 1.44009,-0.0906 1.92236,-0.21653 3.21971,-0.84048 4.95233,-3.82523 5.36091,-9.23613 0.32978,-4.36737 -0.31668,-8.69689 -1.62367,-10.8784 -0.93295,-1.55719 -2.4782,-2.67608 -4.11551,-2.97967 -0.41121,-0.0762 -0.84931,-0.11885 -1.2945,-0.1297 z m 38.070544,0.11575 c -0.93433,-0.007 -1.86563,0.0515 -2.04329,0.18139 -0.21959,0.16056 -0.22292,0.43726 -0.0713,6.29108 0.0872,3.36763 0.13651,6.18637 0.10955,6.2637 -0.0268,0.0774 -0.37495,-0.73189 -0.77359,-1.79782 -0.39863,-1.06594 -1.33518,-3.54405 -2.08153,-5.50716 -0.74635,-1.96309 -1.47384,-3.87685 -1.61644,-4.25297 -0.45188,-1.19192 -0.44096,-1.18799 -2.83238,-1.14153 -1.52349,0.0296 -2.13177,0.0871 -2.28617,0.21549 -0.1926,0.16017 -0.21032,1.12004 -0.21032,11.35176 0,8.64891 0.0352,11.21183 0.15606,11.33265 0.11264,0.11264 0.68911,0.14623 2.06809,0.12092 1.89547,-0.0347 1.91284,-0.0376 2.07378,-0.35347 0.12641,-0.24806 0.1556,-1.73834 0.13125,-6.72414 -0.0171,-3.52309 -0.001,-6.40582 0.0336,-6.40581 0.0357,2e-5 0.20301,0.38716 0.37156,0.86042 1.61252,4.52761 4.631,12.36049 4.81624,12.49743 0.17226,0.12738 0.71005,0.1592 2.18333,0.1297 1.76193,-0.0353 1.97239,-0.0633 2.13527,-0.28628 0.15261,-0.20903 0.18035,-1.96451 0.18035,-11.30629 v -11.05876 l -0.28319,-0.19844 c -0.18935,-0.13263 -1.12653,-0.20493 -2.06085,-0.21187 z m 25.39121,0.0109 c -0.85296,-0.003 -1.72735,0.0447 -1.91357,0.14418 -0.26252,0.1405 -0.2642,0.1814 -0.17519,3.60133 0.21739,8.35163 0.31727,10.68354 0.46612,10.8629 0.19744,0.2379 3.17319,0.2622 3.40755,0.0279 0.22069,-0.22334 0.22074,-14.26002 0,-14.48077 -0.10051,-0.10051 -0.93194,-0.153 -1.78491,-0.15555 z m -42.56174,5.2e-4 c -0.92102,-0.007 -1.85306,0.0356 -2.03657,0.13384 -0.23976,0.12837 -0.24701,0.35328 -0.24701,8.14111 0,8.0031 -0.0414,8.89447 -0.45785,9.77201 -0.543506,1.14534 -2.307797,1.36258 -3.197737,0.39378 -0.73319,-0.79816 -0.72487,-0.69521 -0.76688,-9.77047 -0.0213,-4.59226 -0.0658,-8.4214 -0.0987,-8.50904 -0.0446,-0.11853 -0.59634,-0.15916 -2.15801,-0.15916 -1.782577,0 -2.129647,0.0315 -2.308897,0.21084 -0.19334,0.19333 -0.20629,0.92754 -0.15297,8.76432 0.0502,7.38139 0.0869,8.6748 0.26924,9.4449 0.57137,2.41272 1.93822,3.99979 3.900537,4.52944 1.32637,0.358 3.403801,0.3996 4.971267,0.0992 2.14811,-0.41163 3.50178,-1.70812 4.16667,-3.99097 0.20077,-0.6893 0.22682,-1.65288 0.26458,-9.74979 0.0392,-8.40964 0.0278,-8.99479 -0.17931,-9.14622 -0.13759,-0.1006 -1.04734,-0.15695 -1.96836,-0.16381 z m -39.958274,0.004 c -2.71281,-0.001 -3.74404,0.0389 -3.8561,0.1509 -0.22169,0.2217 -0.22169,22.41774 0,22.63944 0.10669,0.10674 0.79272,0.15297 2.2686,0.15297 1.47587,0 2.16242,-0.0463 2.26911,-0.15297 0.11247,-0.1125 0.15296,-1.21111 0.15296,-4.14961 v -3.99666 l 0.66921,0.0388 0.66921,0.0382 0.27957,0.82889 c 0.15364,0.45572 0.71419,2.2293 1.2454,3.94136 0.53121,1.71207 1.02897,3.1892 1.10639,3.28249 0.10726,0.12921 0.66678,0.1695 2.35128,0.1695 2.06825,0 2.21947,-0.0159 2.34508,-0.25063 0.139,-0.25971 0.11833,-0.32705 -2.16783,-6.95152 l -0.7922,-2.29443 0.66456,-0.68161 c 1.35474,-1.38891 2.0141,-3.62018 1.87069,-6.32985 -0.15483,-2.92536 -1.0506,-4.68314 -2.88458,-5.66064 -1.26515,-0.67433 -2.04526,-0.77216 -6.19135,-0.77463 z m 63.869474,0.0227 c -0.636,0.014 -0.97511,0.0453 -1.06918,0.0956 l -0.26769,0.14366 v 11.18795 c 0,8.53164 0.0364,11.22375 0.15297,11.34039 0.25362,0.25362 6.87596,0.20937 8.04395,-0.0537 1.95483,-0.44036 3.37106,-1.36048 4.32583,-2.81068 1.22613,-1.86239 1.73115,-3.88768 1.8433,-7.39231 0.22872,-7.14673 -1.59936,-11.02527 -5.7614,-12.22355 -0.61845,-0.17805 -1.46396,-0.2311 -4.41679,-0.2775 -1.28175,-0.0202 -2.21498,-0.0238 -2.85099,-0.01 z m -45.181214,3.94653 c 0.16072,0.01 0.32661,0.0402 0.49764,0.0915 1.12361,0.33664 1.67618,1.26021 1.99161,3.33054 0.26021,1.70782 0.18699,8.16974 -0.10542,9.3059 -0.53194,2.06687 -1.80207,3.00149 -3.21944,2.36884 -0.94056,-0.41983 -1.46373,-1.46597 -1.72857,-3.45612 -0.20997,-1.57776 -0.0854,-7.83314 0.17931,-9.00151 0.40126,-1.77133 1.25986,-2.70744 2.38487,-2.63912 z m -17.85369,0.33383 1.30793,0.0486 c 1.61025,0.0596 2.05353,0.26868 2.50786,1.18235 0.51564,1.03699 0.38615,3.12759 -0.2434,3.92793 -0.43782,0.5566 -1.00527,0.73432 -2.34869,0.73432 h -1.2237 v -2.94659 z m 66.542184,0.41135 h 0.96325 c 1.38421,0 2.03272,0.19793 2.67477,0.81648 0.90894,0.87568 1.09652,1.70404 1.17357,5.1785 0.11025,4.97486 -0.34673,6.77925 -1.95543,7.72201 -0.47019,0.27556 -0.78723,0.35008 -1.71669,0.40307 l -1.13947,0.0651 v -7.09259 z m 15.78767,12.64263 c -0.1801,-0.0163 -0.37967,-0.0153 -0.60565,0.001 -0.93276,0.0674 -1.58563,0.51819 -1.95233,1.3472 -0.38351,0.86696 -0.29206,2.59755 0.17414,3.30161 0.47734,0.72087 1.00018,0.95332 2.03451,0.90537 0.68906,-0.0319 0.9274,-0.10334 1.30689,-0.39274 0.63585,-0.48499 0.87722,-1.01199 0.94465,-2.06189 0.0705,-1.09808 -0.12026,-1.84651 -0.6134,-2.40812 -0.383,-0.43619 -0.74853,-0.64351 -1.28881,-0.69247 z" /><path
       id="path87"
       style="fill:#ffffff;stroke:none;stroke-width:0.481795"
       d="m 92.827778,122.13 c -0.299112,-0.24202 -0.301172,-0.26215 -0.339248,-3.31435 l -0.03831,-3.07085 h -1.150638 c -1.112373,0 -1.163551,-0.0126 -1.538913,-0.38827 -0.355821,-0.35583 -0.383007,-0.4431 -0.325252,-1.04416 0.04876,-0.50756 0.140406,-0.72247 0.405188,-0.95022 0.339479,-0.29201 0.3697,-0.29431 3.846406,-0.29431 h 3.50424 l 0.312893,0.31289 c 0.441418,0.44141 0.444129,1.43238 0.0053,1.94267 -0.287954,0.33486 -0.381015,0.36049 -1.459496,0.40198 l -1.151931,0.0444 -0.03833,2.99446 -0.03833,2.99446 -0.357665,0.30744 c -0.446826,0.38407 -1.203709,0.41367 -1.63594,0.0639 z m 6.194468,-0.0694 -0.312886,-0.31289 v -4.06277 -4.06277 l 0.295036,-0.27716 c 0.22219,-0.20875 0.45334,-0.27718 0.9363,-0.27718 0.995214,0 1.117294,0.20799 1.169884,1.99319 l 0.043,1.45731 1.29554,-0.0362 1.29554,-0.0362 0.0638,-1.46596 c 0.0351,-0.80629 0.10884,-1.53554 0.16395,-1.6206 0.30409,-0.46919 1.73711,-0.40613 2.00162,0.0881 0.0792,0.14797 0.12893,1.79683 0.12893,4.27092 v 4.02992 l -0.3373,0.31261 c -0.46029,0.42658 -1.28769,0.43523 -1.68007,0.0175 -0.25327,-0.2696 -0.27718,-0.42897 -0.27718,-1.84838 v -1.55335 l -0.95604,-0.0223 c -0.52584,-0.0126 -1.1225,-0.0323 -1.32591,-0.0447 l -0.36984,-0.0223 -0.0445,1.58539 c -0.0435,1.55504 -0.0513,1.59128 -0.40212,1.89301 -0.49369,0.42459 -1.260254,0.42218 -1.687734,-0.006 z m 9.632664,0.14915 c -0.60601,-0.30662 -0.63601,-0.52543 -0.63802,-4.65424 l -0.001,-3.8619 0.31289,-0.31289 0.3129,-0.31289 h 2.94351 2.94349 l 0.31291,0.31289 c 0.24689,0.24691 0.31289,0.44438 0.31289,0.9363 0,1.04341 -0.13624,1.10162 -2.68998,1.14936 l -2.15406,0.0403 v 0.5015 0.5015 h 1.43759 c 1.79299,0 2.00422,0.1073 2.00422,1.01793 0,0.9544 -0.12654,1.02167 -1.92123,1.02167 h -1.52058 v 0.70111 0.70111 h 2.15782 2.15781 l 0.2642,0.33588 c 0.40271,0.51195 0.35608,1.24904 -0.10843,1.71352 l -0.37262,0.37262 -2.71864,-0.001 c -1.9244,-10e-4 -2.81102,-0.0486 -3.03482,-0.16186 z" /></g></svg>
