<?xml version="1.0" encoding="UTF-8" standalone="no"?>
<!-- Created with Inkscape (http://www.inkscape.org/) -->

<svg
   width="100.623mm"
   height="140.623mm"
   viewBox="0 0 100.623 140.623"
   version="1.1"
   id="svg1"
   xml:space="preserve"
   xmlns:xlink="http://www.w3.org/1999/xlink"
   xmlns="http://www.w3.org/2000/svg"
   xmlns:svg="http://www.w3.org/2000/svg"><defs
     id="defs1"><linearGradient
       id="linearGradient4"><stop
         style="stop-color:#ededed;stop-opacity:1;"
         offset="0"
         id="stop4" /><stop
         style="stop-color:#f5f5f5;stop-opacity:1;"
         offset="1"
         id="stop5" /></linearGradient><linearGradient
       id="linearGradient2"><stop
         style="stop-color:#cfcfcf;stop-opacity:1;"
         offset="0"
         id="stop2" /><stop
         style="stop-color:#ffffff;stop-opacity:1;"
         offset="1"
         id="stop3" /></linearGradient><linearGradient
       xlink:href="#linearGradient2"
       id="linearGradient3"
       x1="86.426285"
       y1="112.67091"
       x2="9.0498734"
       y2="25.113398"
       gradientUnits="userSpaceOnUse" /><linearGradient
       xlink:href="#linearGradient4"
       id="linearGradient5"
       x1="51.358032"
       y1="127.82946"
       x2="51.358028"
       y2="17.194757"
       gradientUnits="userSpaceOnUse" /></defs><g
     id="layer1"><rect
       style="fill:url(#linearGradient3);stroke:none;stroke-width:0.623001;stroke-linecap:round;stroke-linejoin:round;paint-order:markers fill stroke;fill-opacity:1"
       id="rect1"
       width="100"
       height="140"
       x="0.31150049"
       y="0.31150049"
       rx="2.7030716"
       ry="2.7030716" /><rect
       style="fill:#f9f9f9;stroke:none;stroke-width:0.623001;stroke-linecap:round;stroke-linejoin:round;paint-order:markers fill stroke;fill-opacity:1"
       id="rect2"
       width="97.264694"
       height="137.41437"
       x="1.4913578"
       y="1.5113554"
       rx="1.8687865"
       ry="1.8687865" /><text
       xml:space="preserve"
       style="font-style:normal;font-weight:normal;font-size:42.4511px;line-height:1.25;font-family:sans-serif;fill:#000000;fill-opacity:1;stroke:none;stroke-width:1.06128"
       x="11.186439"
       y="88.680748"
       id="text5"><tspan
         x="11.186439"
         y="88.680748"
         id="tspan8" /></text><text
       xml:space="preserve"
       style="font-style:normal;font-weight:normal;font-size:42.4511px;line-height:1.25;font-family:sans-serif;fill:#000000;fill-opacity:1;stroke:none;stroke-width:1.06128"
       x="11.638932"
       y="101.80307"
       id="text9"><tspan
         id="tspan9"
         style="font-style:normal;font-variant:normal;font-weight:normal;font-stretch:normal;font-family:Poppins;-inkscape-font-specification:Poppins;stroke-width:1.06128"
         x="11.638932"
         y="101.80307" /></text><path
       style="fill:#0000ff;stroke-width:1.02972"
       d="m 2.0057604,70.289454 0,-66.6847249 1.2182568,-1.3150596 h 46.7730858 47.10116 l 0.890183,1.099867 -0.04883,66.8550585 -0.04883,66.975055 -1.062475,0.98087 -46.880041,0.0438 -46.7086946,0.0437 -1.2338233,-1.05872 z M 19.589541,135.80427 c 2.443662,-0.78603 4.784449,-2.84406 5.739099,-5.04587 0.383656,-0.88486 0.47837,-1.42051 0.47837,-2.70539 0,-1.40986 -0.06805,-1.72905 -0.567192,-2.66044 -1.17095,-2.18494 -3.226327,-3.44163 -5.904014,-3.60977 -1.978246,-0.12423 -3.205597,0.15067 -4.416613,0.98924 -2.531473,1.7529 -2.978126,5.22831 -0.879825,6.84592 0.519921,0.40081 0.81232,0.48216 1.733079,0.48216 1.633112,0 2.537022,-0.64483 2.547992,-1.81766 0.0089,-0.95043 -0.585274,-1.41134 -1.736218,-1.34684 l -0.880597,0.0494 -0.0588,-0.64447 c -0.04713,-0.51653 0.05447,-0.74825 0.511743,-1.1672 0.588053,-0.53875 1.725812,-0.94747 2.637502,-0.94747 1.113028,0 2.629011,1.04402 3.309533,2.27918 1.172345,2.12785 -0.09947,4.97238 -2.846613,6.36674 -0.954025,0.48424 -1.174076,0.52154 -3.076648,0.52154 -1.975811,0 -2.101879,-0.0239 -3.523339,-0.66703 -3.6469995,-1.65019 -6.0879726,-5.21502 -6.2742676,-9.16306 -0.045166,-0.95727 -0.036558,-1.54023 0.019134,-1.29548 0.179478,0.78874 1.216818,2.58453 1.7769543,3.07619 0.2993122,0.26272 0.8216949,0.52853 1.160852,0.59067 0.5161623,0.0946 0.7129013,0.0248 1.2073203,-0.42817 0.324871,-0.29763 0.590672,-0.62366 0.590672,-0.72451 0,-0.10076 -0.31095,-0.31853 -0.691002,-0.48377 -1.2412135,-0.53962 -2.0975126,-1.9653 -2.3465894,-3.90692 -0.1390139,-1.08364 0.3430297,-3.34172 0.9484236,-4.4428 0.5785941,-1.05232 1.8811018,-2.70962 2.3551268,-2.99662 0.350545,-0.21225 0.295682,-0.0288 -0.357567,1.19495 -1.777054,3.32926 -0.752263,6.4299 2.125137,6.4299 0.630871,0 1.190426,-0.11723 1.528617,-0.32024 l 0.533467,-0.32023 -0.930605,-0.56981 c -1.368003,-0.83762 -1.856415,-1.80365 -1.750953,-3.46323 0.06599,-1.03839 0.226177,-1.56143 0.817774,-2.67014 0.625789,-1.17278 1.096742,-1.7042 3.152054,-3.55679 l 2.41634,-2.17803 -1.519985,0.65659 c -4.895535,2.1147 -6.888823,3.28234 -8.8426441,5.17988 -4.1755433,4.05525 -5.1457919,9.46591 -2.8906376,16.11985 0.9677917,2.85551 0.7314167,4.46171 -0.771107,5.23978 -0.7318559,0.37898 -0.6680103,0.74528 0.2015486,1.1563 0.7817083,0.36952 2.1088836,0.29813 2.8619482,-0.15395 0.6642863,-0.39876 1.2161306,-1.31878 1.2169681,-2.02888 l 7.28e-4,-0.61558 0.8257568,0.72863 c 1.115039,0.9839 2.192949,1.57025 3.880646,2.11099 1.196126,0.38322 1.653344,0.44026 2.968285,0.37023 0.854903,-0.0455 2.078967,-0.25149 2.720144,-0.45773 z m 57.46268,0.0225 c -0.822478,-0.49996 -2.127656,-1.53225 -5.286317,-4.18108 -0.912683,-0.76537 -2.163154,-1.70111 -2.778821,-2.0794 -2.107351,-1.29488 -4.303708,-1.33001 -5.547856,-0.0888 -0.616868,0.61544 -0.638383,0.68437 -0.509228,1.63143 0.102444,0.75122 0.07046,1.02621 -0.133104,1.14433 -0.935066,0.54261 -2.113769,-0.42148 -2.113769,-1.72889 0,-0.95783 0.565591,-2.04209 1.322974,-2.53618 1.123972,-0.73324 2.579552,-1.12992 3.874442,-1.05585 0.667892,0.0382 1.214306,0.0657 1.214252,0.061 -5.4e-5,-0.005 -0.187198,-0.44901 -0.415875,-0.98749 -0.642554,-1.51306 -0.563153,-3.69399 0.189883,-5.21556 1.114129,-2.25119 3.07565,-3.48704 5.779862,-3.64161 2.911091,-0.1664 4.743911,0.72268 4.743911,2.3012 v 0.71508 l 1.020054,-0.12667 c 1.582093,-0.19646 3.654821,-1.18151 4.676272,-2.22238 1.974881,-2.01242 1.948542,-4.06397 -0.08798,-6.8536 -0.543421,-0.74437 -1.024253,-1.32023 -1.068517,-1.27968 -0.04426,0.0405 0.05281,0.54254 0.215697,1.11552 0.162897,0.57298 0.296176,1.53361 0.296176,2.13473 0,0.93678 -0.085,1.20045 -0.594875,1.84531 -0.677258,0.85656 -1.855681,1.42739 -2.958765,1.43325 -0.865732,0.005 -2.122766,-0.53751 -2.553842,-1.10136 -0.44252,-0.57883 -0.386287,-1.55095 0.118177,-2.04292 0.505696,-0.49316 0.896986,-0.51616 1.708693,-0.10046 0.586408,0.30031 0.618407,0.29909 0.890078,-0.0341 0.711418,-0.87233 0.169317,-3.12963 -1.200348,-4.99824 -2.34526,-3.19957 -3.097494,-4.61041 -3.654502,-6.85409 -0.310805,-1.251964 -0.295392,-1.685538 0.123246,-3.466926 0.231353,-0.984455 1.184435,-2.863528 2.131799,-4.203009 0.694197,-0.981519 0.914194,-1.057363 0.413675,-0.142604 -0.412997,0.754798 -0.597954,4.509935 -0.275933,5.602206 0.352555,1.195843 1.321292,2.357573 2.373109,2.845903 1.111611,0.51607 1.354673,0.53197 2.17764,0.14236 0.843041,-0.39909 1.094072,-0.74426 1.101374,-1.5144 0.0065,-0.698343 -0.205862,-0.918214 -1.968288,-2.036766 -1.305837,-0.828773 -1.809886,-1.89633 -1.798363,-3.808848 0.0162,-2.687977 0.821733,-4.333915 4.356429,-8.901371 0.747648,-0.966092 1.35936,-1.818686 1.35936,-1.894663 0,-0.51397 -8.750102,8.349951 -10.266316,10.399859 -1.882879,2.545638 -2.781671,5.063216 -3.133718,8.777759 -0.39549,4.17291 -1.668155,6.21515 -3.873093,6.21515 -0.575335,0 -0.602098,0.0324 -0.602098,0.72962 0,0.58724 0.118179,0.83077 0.605567,1.24789 0.333061,0.28505 0.821863,0.568 1.086229,0.62879 0.655331,0.15069 1.788731,-0.18634 2.620945,-0.77937 1.725813,-1.22979 2.222877,-2.90303 1.918107,-6.45682 -0.337695,-3.93772 -0.309889,-3.95954 0.905241,-0.71037 1.067762,2.8551 1.098766,2.99194 1.109966,4.89898 0.01091,1.85785 -0.0214,2.02298 -0.609515,3.11516 -0.82859,1.53876 -2.001868,2.56818 -3.463528,3.03884 -2.353097,0.75773 -4.992554,-0.32782 -6.241416,-2.56693 -1.173225,-2.10351 -0.637539,-4.20239 1.304185,-5.10995 1.067698,-0.49904 2.085901,-1.36325 2.515833,-2.13534 0.202758,-0.36413 0.459693,-1.33296 0.570968,-2.15296 0.111276,-0.82002 0.283862,-1.75127 0.383525,-2.06945 0.356911,-1.139504 -0.11321,-0.54321 -1.21837,1.54534 -1.324239,2.50256 -2.157566,3.32572 -3.864045,3.8169 -1.039173,0.29911 -1.176131,0.30138 -2.05479,0.0341 -0.530045,-0.1613 -1.232143,-0.5613 -1.606759,-0.91541 -0.603274,-0.57024 -0.665352,-0.7259 -0.665352,-1.6684 0,-0.76576 0.09571,-1.13637 0.363512,-1.40747 0.463796,-0.46953 1.55872,-0.80314 2.172654,-0.66197 0.411746,0.0947 0.475421,0.21139 0.475421,0.87138 0,0.89479 0.255705,1.18927 1.032708,1.18927 0.674165,0 1.538092,-0.79016 2.270323,-2.07644 0.726418,-1.27607 2.083559,-3.221784 3.060142,-4.387278 0.476727,-0.568943 0.83135,-1.066896 0.788053,-1.106562 -0.0433,-0.03964 -0.948711,0.419041 -2.012032,1.019345 -5.366406,3.029625 -10.959213,4.459945 -17.476985,4.469625 -4.878883,0.007 -9.148715,-0.70622 -13.367658,-2.233647 -1.391099,-0.503626 -4.711832,-2.138538 -6.233933,-3.069172 -0.45112,-0.275827 -0.315214,-0.0315 0.695952,1.251066 0.691097,0.876608 1.77398,2.424172 2.406402,3.439023 0.632422,1.01487 1.342409,2.03619 1.577748,2.26962 0.872062,0.86499 2.195107,0.34359 2.195107,-0.86508 0,-1.08406 1.865288,-1.05868 2.671568,0.0364 1.302812,1.76941 -0.32665,3.96065 -2.960681,3.9814 -2.084112,0.0163 -3.408809,-1.07275 -5.159154,-4.24186 -0.674644,-1.22149 -1.255869,-2.194081 -1.291614,-2.161337 -0.03575,0.03273 0.139758,1.155597 0.390006,2.495237 0.564232,3.02046 0.944625,3.61348 2.888727,4.50338 1.662188,0.76085 2.16106,1.38175 2.257781,2.81005 0.106077,1.56644 -0.461952,2.83051 -1.788427,3.97987 -2.771135,2.40114 -6.599749,1.61792 -8.405292,-1.71945 -0.511591,-0.94564 -0.544904,-1.14736 -0.548395,-3.3209 -0.0037,-2.28718 0.0069,-2.34313 0.906943,-4.80624 0.500864,-1.37067 0.945899,-2.65234 0.988965,-2.84815 0.06471,-0.29422 0.105574,-0.26611 0.235392,0.16194 0.08868,0.29241 0.04705,1.62029 -0.09563,3.04948 -0.138997,1.39235 -0.197015,2.9039 -0.128928,3.359 0.402988,2.69367 2.682198,4.62148 4.782332,4.045 0.992442,-0.27242 1.56479,-0.94104 1.56479,-1.82798 0,-0.67345 -0.01507,-0.68804 -0.711539,-0.68804 -1.212996,0 -2.244265,-0.70471 -2.948113,-2.01458 -0.712064,-1.32516 -0.750501,-1.48828 -0.993365,-4.21572 -0.247365,-2.77802 -0.82945,-4.936747 -1.852262,-6.869347 -1.131658,-2.138253 -1.931023,-3.05844 -7.482443,-8.613298 -3.021868,-3.023734 -4.664874,-4.444456 -3.452958,-2.985797 1.168738,1.406698 3.547011,4.72379 4.041482,5.636863 1.66779,3.079679 1.50778,6.544639 -0.372024,8.055993 -0.405226,0.325797 -1.013548,0.728841 -1.351826,0.895633 -0.781256,0.385229 -1.09003,0.99849 -0.920234,1.827713 0.221291,1.0807 1.896703,1.6999 3.086803,1.14082 0.646409,-0.30367 1.684321,-1.25044 2.025603,-1.84772 1.001528,-1.752824 1.069786,-4.913034 0.153793,-7.120364 -0.218981,-0.5277 0.714482,0.525385 1.460879,1.648084 1.700383,2.557639 2.057022,5.162932 1.053699,7.69738 -0.728817,1.84103 -1.08625,2.46004 -2.74492,4.75366 -2.035265,2.81438 -2.693964,4.85168 -1.903098,5.88614 l 0.301598,0.3945 0.794661,-0.37142 c 0.668008,-0.31222 0.865628,-0.33662 1.239954,-0.15308 0.554634,0.27194 0.920594,1.04666 0.761451,1.61194 -0.386718,1.37365 -2.431304,2.15568 -4.115223,1.57404 -0.663762,-0.22928 -1.742748,-1.14876 -2.117908,-1.80484 -0.351353,-0.61444 -0.339621,-2.33741 0.02218,-3.2575 0.153995,-0.39162 0.281307,-0.74308 0.282916,-0.78102 0.01212,-0.28573 -1.334593,1.54291 -1.820593,2.4721 -1.685212,3.222 0.488285,6.38233 5.061653,7.35979 l 1.194913,0.25538 -0.01288,-0.78078 c -0.0149,-0.90311 0.328498,-1.33827 1.505861,-1.90823 0.638239,-0.30898 1.124541,-0.3772 2.720142,-0.38159 1.70676,-0.005 2.077512,0.0524 3.049766,0.46998 1.411884,0.60633 2.660802,1.75178 3.375601,3.09594 0.511045,0.96101 0.562057,1.22669 0.561837,2.92607 -1.96e-4,1.52074 -0.07335,2.00181 -0.392461,2.58112 l -0.39222,0.71204 1.464693,0.004 c 3.061362,0.008 5.239654,1.68395 5.01178,3.8567 -0.110885,1.05726 -0.572706,1.56888 -1.416156,1.56888 -0.880576,0 -1.105702,-0.32673 -0.952787,-1.38283 0.223992,-1.54699 -0.702278,-2.35352 -2.704295,-2.35469 -1.894808,-0.001 -3.555858,0.91649 -6.972282,3.85164 -1.203314,1.0338 -2.741922,2.25211 -3.41913,2.70734 -0.677207,0.45526 -1.113571,0.84992 -0.969695,0.87703 0.143875,0.0271 1.04296,-0.23174 1.997965,-0.57523 0.955007,-0.34349 2.331027,-0.75695 3.057822,-0.91878 1.294678,-0.2883 1.342125,-0.28625 2.342056,0.10142 0.561336,0.21762 1.1299,0.43723 1.263478,0.48802 0.181027,0.0688 0.242871,-0.23127 0.242871,-1.1785 0,-1.70826 0.320351,-2.35726 1.399908,-2.83606 1.245067,-0.5522 1.394457,-0.50054 0.935591,0.32352 -0.539734,0.96927 -0.493679,1.60584 0.177604,2.45483 0.941741,1.19107 3.075315,1.5415 4.895066,0.80402 1.115388,-0.45202 1.694128,-1.19032 1.917132,-2.44566 0.479542,-2.69942 -0.833707,-5.00361 -3.558307,-6.2433 -1.058343,-0.48156 -1.231097,-0.60578 -0.715301,-0.51437 2.321345,0.41142 4.419387,1.8027 5.351972,3.54904 0.956475,1.79109 0.833444,4.02918 -0.312491,5.68466 l -0.562116,0.81207 h 8.641889 c 4.827863,0 8.641889,-0.0689 8.641889,-0.15622 0,-0.0858 -0.137541,-0.26078 -0.305645,-0.38861 -0.471145,-0.35824 -0.986451,-1.40015 -1.232225,-2.49147 -0.402817,-1.78864 0.422874,-3.97541 1.991205,-5.27353 0.844676,-0.69915 2.730822,-1.54338 3.869749,-1.7321 1.015908,-0.16832 0.908642,-0.0102 -0.227427,0.33574 -1.20979,0.36814 -2.451233,1.37046 -3.299727,2.66412 -0.551076,0.8402 -0.676789,1.2295 -0.754283,2.33581 -0.209162,2.98599 1.397595,4.41581 4.641345,4.13025 2.073966,-0.18257 3.4291,-2.44326 2.272255,-3.79067 l -0.427997,-0.49851 0.638644,0.11702 c 0.83321,0.15268 1.704822,0.73114 2.066094,1.3712 0.175107,0.31022 0.288511,1.00441 0.288511,1.76605 0,0.69019 0.02185,1.25457 0.04858,1.25415 0.02672,-4e-4 0.4787,-0.20066 1.004408,-0.44501 0.52571,-0.24436 1.181736,-0.44429 1.457837,-0.44429 0.68125,0 2.662604,0.5437 4.775278,1.31035 2.117595,0.76845 2.610169,0.81559 1.505456,0.14408 z m -27.291687,-7.15072 c -0.919052,-2.3574 -2.782916,-4.90722 -5.790385,-7.9214 -1.940047,-1.94437 -3.176116,-3.55668 -3.889384,-5.07326 -0.389028,-0.82716 -0.45964,-1.26901 -0.455159,-2.84814 0.0071,-2.50508 0.450738,-3.58148 2.096665,-5.08726 1.03679,-0.94851 1.347553,-1.12278 2.517738,-1.41182 2.434453,-0.60131 4.288108,0.0912 5.338491,1.99427 l 0.546993,0.99108 0.438377,-0.77977 c 0.648954,-1.15431 1.515924,-1.89167 2.618783,-2.22727 0.845977,-0.25745 1.141724,-0.26836 2.151939,-0.0795 2.109054,0.3944 3.476528,1.45991 4.533106,3.53217 0.460211,0.9026 0.520756,1.23763 0.522271,2.89005 0.0014,1.54631 -0.07987,2.06892 -0.47072,3.02615 -0.587169,1.43808 -1.91559,3.27242 -3.529713,4.87402 -3.337163,3.31126 -4.534965,4.85401 -5.748556,7.40403 l -0.637553,1.33965 z m 35.125324,7.46009 c 1.592957,-0.26847 3.668837,-1.18827 4.941656,-2.1896 l 1.068627,-0.84069 0.109038,0.67774 c 0.178903,1.11203 0.664227,1.75911 1.567789,2.09033 1.028526,0.37704 2.090132,0.23581 2.807771,-0.37352 l 0.525852,-0.44649 -0.781548,-0.427 c -1.600292,-0.8743 -1.761841,-2.30906 -0.629961,-5.59484 1.256863,-3.64859 1.502387,-6.09918 0.900833,-8.99125 -0.439565,-2.11327 -1.23556,-3.76806 -2.638224,-5.4846 -2.081562,-2.54735 -3.974838,-3.75376 -9.719056,-6.19307 l -2.051586,-0.87121 1.068628,0.83373 c 1.701561,1.32753 3.778074,3.29009 4.332498,4.09473 1.866216,2.70847 1.597927,5.75282 -0.61682,6.99918 -0.434932,0.24477 -0.793138,0.50305 -0.796013,0.57397 -0.01091,0.26917 1.175194,0.67207 1.976658,0.67143 1.753515,-0.001 2.857422,-1.2504 3.027869,-3.42584 0.100899,-1.28782 -0.375773,-2.89396 -1.1623,-3.91636 -0.614046,-0.7982 -0.05993,-0.55744 0.819373,0.35601 2.909753,3.02275 3.28812,7.85547 0.797882,10.19098 -0.494315,0.4636 -1.029904,0.88188 -1.190197,0.92949 -0.24402,0.0724 -0.228211,0.15208 0.09715,0.48904 0.586982,0.60792 1.180501,0.75487 1.903678,0.47135 1.214832,-0.47626 2.031522,-1.63402 2.463745,-3.49263 0.14958,-0.64321 0.17263,-0.41592 0.117413,1.15776 -0.08285,2.36121 -0.530567,3.72648 -1.792911,5.46734 -1.169191,1.6124 -2.894144,2.99992 -4.811043,3.8699 -1.498329,0.68002 -1.684325,0.72027 -3.328422,0.72013 -1.512099,-1.2e-4 -1.895952,-0.0672 -2.915028,-0.50883 -4.08644,-1.77116 -4.636885,-6.92194 -0.898954,-8.41192 1.073674,-0.42798 1.992515,-0.42563 2.919069,0.007 0.890142,0.41605 1.154516,0.69151 1.392099,1.45047 0.258546,0.82594 -0.04093,1.09812 -1.054911,0.95881 -0.673254,-0.0925 -0.860628,-0.0453 -1.210648,0.30473 -0.60094,0.60101 -0.716571,1.12038 -0.381569,1.71389 0.450974,0.79898 1.116687,1.10339 2.413071,1.10339 1.425762,0 2.280296,-0.47027 2.901435,-1.59674 0.547417,-0.99276 0.565469,-2.17016 0.05252,-3.42533 -0.512095,-1.2531 -1.296297,-2.08799 -2.557856,-2.72321 -0.964639,-0.4857 -1.189417,-0.52404 -3.080669,-0.52543 -1.926388,-0.001 -2.108113,0.0309 -3.260106,0.5796 -1.548932,0.73778 -2.560899,1.66558 -3.265433,2.99384 -0.502338,0.94706 -0.556373,1.22823 -0.560616,2.91718 -0.0045,1.77224 0.02984,1.93366 0.661792,3.11515 0.900553,1.68368 2.420494,3.05658 4.301731,3.88557 2.267448,0.99918 3.429523,1.17035 5.5357,0.81539 z m -53.999214,-9.54831 c 0.456025,-0.85866 0.556979,-1.30717 0.616085,-2.7371 0.06059,-1.46573 0.0088,-1.84212 -0.362805,-2.63338 -0.534589,-1.13851 -1.681041,-2.07151 -2.979568,-2.4248 -1.168962,-0.31806 -1.591984,-0.31972 -2.353346,-0.009 -0.530932,0.21647 -0.548249,0.24898 -0.194296,0.36468 1.240106,0.40533 1.513218,0.54419 2.064842,1.04978 0.334208,0.30631 0.836955,0.99751 1.117215,1.53598 0.472857,0.90853 0.508304,1.14576 0.492061,3.29318 -0.0142,1.87781 -0.0954,2.51548 -0.430661,3.38216 l -0.413157,1.06805 0.949118,-0.93116 c 0.522014,-0.51214 1.194546,-1.39328 1.494512,-1.9581 z m 40.240496,1.33168 c -0.566792,-2.18034 -0.427043,-5.0335 0.314564,-6.42224 0.579792,-1.08571 1.583622,-1.96328 2.595825,-2.26934 0.806742,-0.24393 0.66421,-0.46792 -0.389678,-0.61238 -0.963281,-0.13204 -2.446976,0.26581 -3.372744,0.90439 -0.334705,0.23088 -0.859304,0.8034 -1.165775,1.27227 -0.519112,0.79418 -0.557221,0.98051 -0.557221,2.72435 0,1.74944 0.04084,1.94737 0.624452,3.02615 0.579333,1.07089 1.942273,2.81723 2.214016,2.83684 0.06509,0.005 -0.05347,-0.65232 -0.263439,-1.46004 z M 6.2202358,112.09714 c 0.7803582,-0.97409 2.4562522,-2.18562 3.8085052,-2.75319 0.595507,-0.24995 0.548408,-0.25879 -1.060331,-0.19893 -1.4821038,0.0552 -1.7677365,0.12147 -2.3874625,0.55454 -0.3871696,0.27056 -0.9058051,0.78593 -1.1525227,1.14527 -0.5330439,0.77636 -0.9919363,2.39994 -0.8015817,2.83603 0.1197818,0.2744 0.1715403,0.25981 0.4570864,-0.12891 0.1771054,-0.24108 0.6884429,-0.89575 1.1363063,-1.45481 z M 95.281139,111.8215 c -0.548045,-1.83517 -1.977739,-2.72296 -4.384998,-2.72296 h -1.360072 l 0.97148,0.41694 c 1.291497,0.55429 2.984432,1.84234 3.687272,2.80541 0.312824,0.42866 0.704075,0.92895 0.869449,1.11179 0.284036,0.31403 0.303973,0.29745 0.360212,-0.2997 0.03274,-0.34768 -0.03176,-0.93784 -0.143343,-1.31148 z m -80.743293,-4.58464 c 4.037365,-0.66397 7.120953,-2.23356 8.717609,-4.43738 0.38816,-0.53577 0.705743,-1.03083 0.705743,-1.10013 0,-0.0693 -0.371591,0.18734 -0.825757,0.57032 -1.879219,1.58472 -3.773663,2.5186 -6.264807,3.08834 -3.858085,0.88236 -7.6856838,-0.12535 -9.1456909,-2.40782 -0.7702859,-1.20422 -0.8785388,-3.05475 -0.2443627,-4.177277 0.6556584,-1.160555 1.7560819,-1.797974 3.2999846,-1.911512 1.142367,-0.08405 1.294569,-0.05223 1.869001,0.390637 0.463554,0.357352 0.624588,0.627681 0.622382,1.044791 -0.0047,0.894759 -0.230478,1.09211 -0.976632,0.853804 -0.348011,-0.11115 -0.750851,-0.202087 -0.895198,-0.202087 -0.448086,0 -1.039935,0.68812 -1.033454,1.201564 0.01213,0.96047 0.819896,1.46857 2.334717,1.46857 2.132686,0 3.417903,-1.33235 3.256553,-3.375988 -0.10403,-1.317682 -0.774075,-2.292371 -2.047198,-2.977991 -0.840212,-0.452496 -1.100529,-0.499367 -2.773068,-0.499367 -1.6817332,0 -1.9380498,0.04685 -2.883465,0.526593 -1.3972048,0.709055 -2.5125004,1.76153 -3.1203397,2.944576 -0.436058,0.848712 -0.503165,1.216045 -0.5040676,2.759147 -8.711e-4,1.48887 0.070623,1.91333 0.4370514,2.59458 0.9819923,1.8257 2.7939564,3.08179 5.2225389,3.62034 1.491699,0.3308 2.364053,0.3362 4.24846,0.0263 z m 74.512484,0.0701 c 1.63463,-0.23724 3.786742,-1.17458 4.719605,-2.05557 3.156781,-2.98122 2.138163,-8.10663 -1.999462,-10.060714 -0.730083,-0.344802 -1.178856,-0.41395 -2.720143,-0.419143 -2.138318,-0.0072 -3.036022,0.314507 -4.066215,1.457196 -1.161301,1.288109 -1.194795,2.944597 -0.08649,4.277561 0.661065,0.79508 1.419705,1.11238 2.659637,1.11238 1.38443,0 2.07596,-0.4592 2.07596,-1.37848 0,-1.061437 -0.812879,-1.572481 -1.761437,-1.107383 -0.575811,0.282332 -1.153003,-0.08039 -1.153003,-0.724564 0,-1.359441 2.29841,-2.046391 4.199918,-1.255262 1.828773,0.760865 2.715433,2.941479 2.010885,4.945489 -0.794448,2.25973 -4.115184,3.79787 -7.668022,3.55177 -3.137051,-0.21729 -5.732462,-1.27265 -8.145413,-3.31215 l -0.956464,-0.80843 0.463947,0.76636 c 0.577782,0.95439 2.505248,2.73805 3.58563,3.31811 1.772671,0.95178 4.990661,1.82014 6.89811,1.86143 0.37402,0.008 1.248353,-0.0678 1.942959,-0.1686 z M 54.465657,99.658607 c 9.683524,-1.038176 19.367989,-7.167483 24.002554,-15.19125 4.246267,-7.351502 4.851468,-16.296512 1.656953,-24.49014 C 76.64826,51.059284 68.466155,44.309639 58.060132,41.775158 c -0.74804,-0.182192 -2.40927,-0.448975 -3.691623,-0.592852 -5.880526,-0.659782 -11.215063,-0.04609 -16.562851,1.905418 -8.277518,3.02062 -15.426703,9.964551 -18.108795,17.588894 -1.105929,3.143797 -1.417121,5.049241 -1.513688,9.268399 -0.08131,3.55231 -0.0512,4.017763 0.4031,6.230316 1.267089,6.171138 4.211717,11.081526 9.388198,15.655506 1.161758,1.02654 2.988352,2.404335 4.059099,3.061774 2.150414,1.320334 6.148066,3.135157 7.957039,3.612257 2.266064,0.597673 4.290594,1.00969 5.634582,1.146715 2.015459,0.20548 6.952744,0.209403 8.840464,0.0072 z M 46.013785,97.612114 C 38.892913,96.856635 31.512002,93.177373 27.163286,88.215471 23.898133,84.489918 22.160752,81.230175 21.024388,76.697424 c -0.343711,-1.371006 -0.439602,-2.415483 -0.506624,-5.518283 -0.07726,-3.576872 -0.0497,-3.978545 0.421394,-6.141309 1.146435,-5.26324 2.96129,-8.778403 6.525237,-12.638636 1.543944,-1.672298 2.12736,-2.173877 4.3004,-3.697175 4.395287,-3.081088 8.882559,-4.758434 14.443286,-5.398908 7.874465,-0.906969 15.329988,0.819312 21.858291,5.061155 2.264767,1.47156 5.520551,4.699228 7.212368,7.150089 2.156919,3.124619 3.779808,7.3602 4.36514,11.392567 1.268938,8.741765 -2.02146,17.413428 -8.882067,23.408182 -6.633586,5.796396 -15.169543,8.313242 -24.748028,7.297008 z m 4.583371,-1.824408 c 0.276737,-0.170682 0.788534,-0.61073 1.137329,-0.977869 0.776468,-0.81732 1.56735,-0.887402 2.556718,-0.226569 0.363106,0.242534 0.943679,0.577488 1.290161,0.74435 0.612372,0.294914 0.643116,0.292068 1.100763,-0.10183 0.258937,-0.22287 0.527831,-0.617906 0.59754,-0.877859 0.211387,-0.788284 0.656981,-1.273677 1.169231,-1.273677 0.262326,0 0.963672,0.218692 1.558547,0.485993 1.00863,0.453208 1.117052,0.467863 1.607247,0.21727 0.356188,-0.182096 0.60659,-0.525283 0.776703,-1.064528 0.488875,-1.549689 0.627863,-1.686774 1.700888,-1.677698 0.529376,0.004 1.190638,0.07043 1.469472,0.146516 0.756138,0.206375 1.489697,-0.45647 1.704993,-1.540643 0.238031,-1.198666 0.599384,-1.486048 2.197558,-1.747718 1.823416,-0.298541 1.970392,-0.45461 1.811065,-1.923027 -0.112938,-1.040889 -0.08101,-1.21887 0.28236,-1.574108 0.275321,-0.269151 0.635159,-0.400515 1.097109,-0.400515 0.506026,0 0.842533,-0.142126 1.275288,-0.538606 0.623071,-0.570831 0.619426,-0.532741 0.24245,-2.534508 -0.147833,-0.785002 0.05622,-1.075331 1.098047,-1.56228 1.5173,-0.709177 1.675641,-1.225627 0.761879,-2.484965 -0.718448,-0.990167 -0.736312,-1.513508 -0.06882,-2.016076 1.944926,-1.464372 2.069357,-1.940202 0.846004,-3.23519 -0.427451,-0.452487 -0.777184,-0.948551 -0.777184,-1.102365 0,-0.153823 0.29346,-0.53324 0.652134,-0.843163 1.214602,-1.049486 1.363298,-1.626325 0.583478,-2.263509 -1.924575,-1.572533 -1.931883,-1.595755 -0.944168,-3.000328 0.374019,-0.531878 0.680036,-1.106805 0.680036,-1.277631 0,-0.455697 -0.616958,-0.904779 -1.743863,-1.269349 -1.36423,-0.441348 -1.55289,-0.857736 -0.971204,-2.143516 0.390419,-0.862991 0.413219,-1.044365 0.192622,-1.532289 -0.211453,-0.4677 -0.429851,-0.599197 -1.409776,-0.848803 -1.499957,-0.38207 -1.751529,-0.727034 -1.724323,-2.364471 0.0204,-1.2274 0.0092,-1.256853 -0.610094,-1.602782 -0.408153,-0.227996 -0.977258,-0.35264 -1.612062,-0.353071 -1.019615,-6.91e-4 -1.447504,-0.215851 -1.447504,-0.727861 0,-0.575554 -0.641648,-2.114488 -1.00841,-2.41858 -0.325908,-0.270219 -0.498431,-0.281684 -1.459531,-0.097 -1.422547,0.27337 -1.936467,0.05219 -2.391867,-1.029449 -0.185497,-0.440569 -0.565993,-1.030532 -0.84555,-1.311024 -0.566408,-0.568306 -0.892188,-0.568687 -2.487766,-0.0029 -1.15511,0.409588 -1.589048,0.222061 -2.396006,-1.035445 -0.965398,-1.50441 -1.168544,-1.521842 -2.905874,-0.249372 -1.040646,0.762201 -1.716928,0.681053 -2.727354,-0.327254 -1.05642,-1.054205 -1.628718,-1.08051 -2.625331,-0.120673 -1.251316,1.205141 -1.923272,1.293997 -2.816308,0.372411 -0.213726,-0.220559 -0.681027,-0.51436 -1.038449,-0.652891 -0.570421,-0.221088 -0.706487,-0.21788 -1.113158,0.02624 -0.254816,0.152967 -0.606499,0.537705 -0.781516,0.854975 -0.471147,0.854086 -1.061689,1.377892 -1.553443,1.377892 -0.23967,0 -0.843484,-0.160119 -1.34181,-0.35582 -1.418408,-0.557035 -2.215612,-0.192007 -2.816912,1.28982 -0.160779,0.396216 -0.513725,0.871448 -0.784326,1.056069 -0.439021,0.29953 -0.598866,0.313076 -1.484434,0.125797 -0.909882,-0.192421 -1.041391,-0.177939 -1.581025,0.174105 -0.433124,0.282558 -0.641165,0.608559 -0.787617,1.234198 -0.415332,1.77429 -0.456295,1.816101 -1.779267,1.816101 -0.997625,0 -1.253963,0.0683 -1.663069,0.443111 -0.424582,0.388992 -0.478454,0.579226 -0.441076,1.557578 0.06401,1.675317 -0.148007,1.899609 -2.30033,2.433479 -1.032531,0.256111 -1.134214,0.555373 -0.721291,2.122754 0.180127,0.68374 0.274385,1.36998 0.209462,1.524982 -0.06492,0.155002 -0.683281,0.537194 -1.374131,0.849301 -1.677819,0.75802 -1.77145,1.167904 -0.621442,2.720488 0.749148,1.011386 0.665372,1.440682 -0.467345,2.39475 -1.188746,1.001255 -1.241151,1.44363 -0.291443,2.460148 0.37402,0.400332 0.680035,0.880948 0.680035,1.068055 0,0.187097 -0.323007,0.685905 -0.717793,1.108462 -1.049401,1.123228 -0.981519,1.754334 0.310807,2.889636 1.164659,1.023145 1.226684,1.393516 0.406986,2.430219 -0.889938,1.125545 -0.728525,1.751855 0.574598,2.229555 1.532072,0.561624 1.886237,1.317916 1.260106,2.690843 -0.289006,0.633708 -0.282482,0.69066 0.145722,1.272326 0.446494,0.606512 0.568776,0.660599 1.955538,0.864941 1.072077,0.157971 1.417222,0.722887 1.162572,1.902823 -0.179518,0.831811 -0.159477,0.949252 0.221574,1.298362 0.244769,0.224252 0.919152,0.481075 1.622099,0.617754 1.443108,0.280573 1.767563,0.5701 1.97297,1.760575 0.242974,1.408201 0.415206,1.514941 2.212669,1.371291 1.810933,-0.144729 1.951531,-0.07094 2.368384,1.242782 0.295467,0.931172 1.00541,1.68785 1.5836,1.68785 0.143516,0 0.731975,-0.21165 1.307687,-0.470342 1.407218,-0.632307 1.868742,-0.512173 2.392069,0.622671 0.222336,0.482141 0.63565,1.015534 0.918476,1.185312 0.50794,0.304924 0.528818,0.29972 1.70761,-0.425473 1.291201,-0.794341 2.121065,-0.930278 2.580157,-0.422649 0.869012,0.960899 1.654248,1.646448 1.884671,1.645411 0.144264,-6.41e-4 0.48872,-0.140825 0.765456,-0.311509 z m -0.795502,-3.915017 c -4.95e-4,-0.07337 -0.573289,-0.774341 -1.272876,-1.557583 -0.699586,-0.783234 -1.639087,-2.098914 -2.08778,-2.923723 l -0.815805,-1.499656 0.01212,-2.505545 c 0.01121,-2.318266 0.0569,-2.625304 0.611162,-4.107632 0.329477,-0.881141 0.572399,-1.628185 0.539827,-1.660106 -0.03257,-0.03191 -0.467744,0.701118 -0.967046,1.628957 -1.050178,1.951513 -2.324503,3.478619 -3.69832,4.431946 -1.837918,1.275364 -4.360351,2.145509 -6.834206,2.357524 -0.726706,0.0623 -1.518009,0.150714 -1.75845,0.196527 -0.386801,0.07368 -0.437165,0.01219 -0.437165,-0.534093 0,-0.917096 0.729757,-4.315764 1.174708,-5.470924 0.978255,-2.539702 2.661226,-4.164076 5.87371,-5.66922 2.013008,-0.943144 1.788256,-1.095657 -0.442358,-0.300168 -0.899774,0.32089 -1.467731,0.380382 -3.594474,0.376572 -2.900319,-0.005 -3.609373,-0.191782 -5.980534,-1.573744 -1.375075,-0.801413 -3.804889,-2.692661 -3.629085,-2.824696 3.88771,-2.919748 4.885163,-3.516769 6.764221,-4.048698 0.679148,-0.192258 1.707413,-0.349558 2.285034,-0.349558 1.105846,0 3.86019,0.504632 5.296469,0.970381 1.550087,0.50265 1.310964,0.28102 -0.810298,-0.751007 -3.081396,-1.499158 -4.993874,-3.407409 -5.839562,-5.826652 -0.379396,-1.085331 -0.901687,-3.994724 -0.902753,-5.028754 -9.04e-4,-0.874772 -0.117284,-0.849675 2.23362,-0.481665 3.683067,0.576547 6.296217,1.663655 7.962391,3.31246 0.947519,0.937646 2.118182,2.828792 3.000151,4.846596 0.123212,0.281895 0.25533,0.482152 0.293597,0.445017 0.03827,-0.0371 -0.200152,-0.788436 -0.529816,-1.669578 -0.56635,-1.513772 -0.599865,-1.754172 -0.608006,-4.361222 -0.0086,-2.727799 -0.0017,-2.772286 0.595441,-3.9162 0.513859,-0.984283 3.317864,-4.644169 3.742186,-4.88443 0.139169,-0.0788 1.214779,1.108697 2.599198,2.869579 0.403857,0.513676 1.012185,1.517601 1.351838,2.230943 0.580027,1.218172 0.617737,1.426787 0.620573,3.433091 0.003,2.043537 -0.325533,3.654942 -1.160966,5.696294 -0.300527,0.734319 0.233235,-0.02104 0.691875,-0.97906 2.018554,-4.216607 4.751653,-6.051136 10.461668,-7.022131 2.57428,-0.437759 2.434581,-0.501896 2.281343,1.047379 -0.297241,3.005217 -0.94005,5.087889 -2.066932,6.696786 -0.854082,1.219397 -2.74296,2.741686 -4.158568,3.351482 -3.376583,1.454523 -3.39577,1.412958 0.251798,0.545476 2.752491,-0.654614 4.159091,-0.673669 6.186712,-0.08384 1.629615,0.474072 3.901371,1.773034 5.596037,3.199742 l 0.97148,0.817868 -1.235864,1.05964 c -2.540879,2.178588 -4.792148,3.164782 -7.601873,3.3301 -1.68056,0.09888 -1.805622,0.07957 -5.342342,-0.824108 -1.374613,-0.351235 -1.982233,-0.359325 -0.953375,-0.01271 0.947917,0.319365 2.84687,1.267479 3.767143,1.880872 1.678172,1.118563 2.854799,2.488797 3.573589,4.161616 0.434565,1.011346 1.089513,4.261273 1.089513,5.406279 v 0.878692 L 65.297661,86.05595 c -2.811121,-0.213713 -5.453347,-1.031875 -7.244129,-2.243133 -1.755056,-1.187081 -2.820835,-2.511277 -3.936,-4.890347 -0.367135,-0.783243 -0.757882,-1.504179 -0.868326,-1.602076 -0.13732,-0.12173 -0.153723,-0.06545 -0.05189,0.17801 0.08191,0.195806 0.413716,1.15705 0.737349,2.136099 0.498751,1.508813 0.591452,2.092064 0.608283,3.827201 0.02779,2.865622 -0.409951,3.844853 -3.163133,7.075857 -1.136927,1.334237 -1.575662,1.705391 -1.578161,1.335061 z m 1.123608,-8.464922 c 0.687641,-1.731001 0.710999,-4.149563 0.05505,-5.699047 -0.7241,-1.710452 -1.31223,-1.557249 -1.957467,0.509886 -0.648007,2.076026 -0.409176,4.525066 0.621852,6.376638 0.462736,0.830998 0.488047,0.807532 1.280569,-1.187477 z M 40.767795,80.347701 c 2.049049,-1.053998 4.565955,-3.869904 4.565955,-5.108378 0,-0.677937 -0.49433,-0.658597 -2.007675,0.07856 -2.040215,0.993755 -3.901155,2.897624 -4.684488,4.792561 -0.579109,1.400894 -0.214947,1.441536 2.126208,0.237281 z m 20.657979,0.132412 c -0.588625,-1.98942 -2.848672,-4.439213 -4.904452,-5.316227 -1.109201,-0.473199 -1.487025,-0.518312 -1.816068,-0.216854 -0.172756,0.158275 -0.05668,0.504164 0.4877,1.453285 0.955421,1.665756 2.89361,3.455416 4.528829,4.181758 1.721439,0.764646 1.956243,0.750591 1.703991,-0.101962 z m -10.224137,-5.0504 c 1.295234,-0.251163 1.918479,-0.542519 2.902128,-1.356698 1.204385,-0.996885 1.78994,-2.19555 1.804975,-3.694911 0.01096,-1.093249 -0.06923,-1.384331 -0.653899,-2.373542 -1.160247,-1.963038 -2.853763,-2.877725 -5.328036,-2.877725 -1.203443,0 -1.608737,0.08537 -2.63437,0.554926 -0.789746,0.361561 -1.407695,0.802288 -1.773384,1.264785 -0.693161,0.876669 -1.351078,2.448522 -1.351078,3.227914 0,0.858224 0.543635,2.422689 1.103529,3.175718 0.901907,1.213026 2.808423,2.155712 4.570063,2.259687 0.181751,0.01077 0.793783,-0.07033 1.360072,-0.180154 z m -2.663671,-1.912417 c -0.888057,-0.369619 -1.974001,-1.417918 -2.155623,-2.080895 -0.259305,-0.946548 0.01736,-2.506866 0.560089,-3.158776 0.997477,-1.198137 3.136112,-1.716083 4.666636,-1.1302 1.436668,0.549957 2.430925,2.272676 2.183633,3.783511 -0.179742,1.098117 -0.82373,1.867244 -2.033655,2.428817 -1.223458,0.567854 -2.12885,0.612133 -3.22108,0.157543 z m -7.642707,-2.235542 c 1.131459,-0.247848 2.301234,-0.776962 2.301234,-1.040889 0,-0.08221 -0.50274,-0.36407 -1.1172,-0.626361 -0.879607,-0.375473 -1.481507,-0.49081 -2.830205,-0.542335 -0.942152,-0.03598 -2.1009,0.02408 -2.574997,0.133417 -1.281398,0.295614 -2.998097,0.910795 -2.998097,1.074386 0,0.179769 1.677437,0.84803 2.660936,1.060056 1.115182,0.240421 3.323657,0.212188 4.558329,-0.05824 z m 23.146349,-0.0752 c 1.239954,-0.374781 2.141192,-0.863407 1.994245,-1.081245 -0.05496,-0.08151 -0.838105,-0.368146 -1.740306,-0.637022 -1.44384,-0.430301 -1.857426,-0.479042 -3.45215,-0.406794 -1.391845,0.06301 -2.064969,0.187279 -2.904114,0.535962 -0.600781,0.249649 -1.150097,0.539531 -1.220702,0.644197 -0.178434,0.264506 0.826071,0.705133 2.267174,0.994487 1.777573,0.356916 3.775759,0.337322 5.055853,-0.04959 z M 45.33375,65.363781 c 0,-0.704766 -1.133855,-2.372484 -2.413248,-3.549503 -1.414718,-1.301514 -2.794576,-2.082847 -4.063591,-2.30096 l -0.723648,-0.124372 0.422985,1.044355 c 0.553865,1.367511 1.261906,2.295959 2.61481,3.428781 1.886298,1.579465 4.162692,2.400676 4.162692,1.501699 z m 12.453865,-0.693496 c 1.903948,-1.159641 3.310501,-2.843192 3.835015,-4.590251 l 0.205832,-0.68559 -0.71839,0.122492 c -1.78799,0.304883 -4.596536,2.554418 -5.818658,4.660527 -0.725249,1.249835 -0.759954,1.431504 -0.291443,1.52555 0.59068,0.11856 1.373646,-0.171496 2.787644,-1.032728 z m -6.824187,-1.592991 c 0.88461,-1.960354 0.530203,-5.993819 -0.6574,-7.481818 -0.243862,-0.30555 -0.283172,-0.287524 -0.601005,0.275573 -1.019256,1.805809 -1.313913,4.273265 -0.765075,6.406772 0.579046,2.250917 1.249061,2.515646 2.02348,0.799473 z M 7.047837,94.062214 c 0.7775006,-0.721282 0.9341526,-0.943388 0.61072,-0.865897 -0.5772166,0.138294 -1.7668787,1.178919 -1.7668787,1.545531 0,0.159778 0.024842,0.290502 0.055213,0.290502 0.030372,0 0.5257918,-0.436562 1.1009477,-0.970136 z m 87.229357,0.136353 c -0.294006,-0.50331 -1.114745,-0.946314 -1.753199,-0.946314 -0.342829,0 -0.244004,0.113813 0.480681,0.553595 0.501728,0.304466 1.01225,0.724798 1.134493,0.934068 0.154969,0.265289 0.248654,0.307943 0.309432,0.140897 0.04794,-0.13178 -0.0292,-0.438787 -0.171407,-0.682246 z M 17.93149,93.87838 c 0.705241,-0.334121 1.064646,-1.25881 1.041678,-2.68006 -0.01389,-0.859678 -0.157193,-1.329268 -0.715715,-2.34538 -0.384089,-0.698761 -0.774387,-1.313537 -0.867327,-1.36617 -0.09542,-0.05406 -0.09834,0.308319 -0.0066,0.8323 0.27171,1.553915 -0.254063,3.709922 -1.008955,4.137358 -0.114982,0.06515 -0.293582,0.322057 -0.396891,0.571004 -0.380498,0.916894 0.763317,1.415031 1.953932,0.850948 z M 83.998636,93.7863 c 0.543588,-0.498016 0.485396,-0.917127 -0.211642,-1.52427 -0.961983,-0.837929 -1.148004,-1.330213 -1.15275,-3.050615 l -0.0043,-1.566425 -0.38204,0.445026 c -0.596888,0.695285 -1.164108,2.244353 -1.159419,3.166338 0.01055,2.074228 1.753617,3.589555 2.910172,2.529946 z M 11.229323,91.93079 c 1.02708,-0.393166 2.34397,-1.617778 2.842477,-2.643291 0.923115,-1.899002 0.461409,-5.147465 -1.102026,-7.753601 C 11.423666,78.956635 8.0995015,75.432619 5.7945307,73.927261 4.7353652,73.235534 3.5950797,72.689895 3.4625016,72.81136 c -0.046053,0.04218 0.2027411,0.445861 0.5528735,0.897057 0.8739168,1.126144 1.832281,3.083795 2.0686297,4.22558 0.2421905,1.170018 0.029996,1.989034 -0.7810885,3.014852 l -0.5899107,0.746088 0.6771905,0.259222 c 1.7438576,0.66756 3.0508871,-1.168067 2.4720494,-3.47179 -0.1100319,-0.437923 -0.1737,-0.820357 -0.1414862,-0.84988 0.1544193,-0.141476 1.9772077,1.785626 2.7376757,2.894341 1.321314,1.926391 1.868878,3.43492 1.874135,5.163187 0.0027,0.872289 -0.107307,1.690208 -0.276603,2.057449 C 11.196044,89.61285 8.7576464,90.269921 7.5549063,88.96036 6.9385168,88.289232 6.890364,87.353069 7.4460451,86.843966 7.8994203,86.428595 7.9587702,86.421999 8.8068326,86.692857 9.363074,86.870512 9.4832419,86.854139 9.7101572,86.569826 10.180728,85.980234 10.035619,85.144653 9.3740975,84.634676 8.4674464,83.935733 7.1638637,83.985103 6.0525047,84.760491 5.5900305,85.083158 5.0849791,85.583806 4.9301687,85.873048 4.54926,86.584725 4.4410343,88.366845 4.7208984,89.319064 c 0.2882733,0.980828 1.5801736,2.257747 2.627999,2.597529 1.011958,0.328144 3.0409046,0.335574 3.8804256,0.01423 z m 81.609778,-0.07896 c 1.261757,-0.526959 1.985492,-1.204306 2.417756,-2.262788 0.981373,-2.403084 0.02571,-4.735141 -2.218526,-5.413718 -1.371728,-0.414762 -2.980126,0.565751 -2.739109,1.669822 0.184635,0.845785 0.458318,1.026336 1.366607,0.901548 1.002678,-0.137766 1.320778,0.151252 1.305193,1.18583 -0.02603,1.72712 -2.336738,2.315746 -3.891027,0.991194 -1.68621,-1.436973 -1.716625,-4.323662 -0.07714,-7.321816 0.569866,-1.042129 1.788257,-2.575983 2.835279,-3.569381 0.662335,-0.628405 0.734854,-0.659767 0.617489,-0.267007 -0.07313,0.24476 -0.175529,1.045798 -0.22753,1.780088 -0.08582,1.211643 -0.05191,1.382429 0.366692,1.847446 0.370057,0.411082 0.660013,0.529865 1.466714,0.600882 1.25626,0.110591 1.440378,-0.171831 0.744454,-1.141968 -0.857065,-1.194753 -1.022117,-2.144087 -0.618336,-3.556465 0.367703,-1.286177 1.423126,-3.260801 2.103236,-3.935007 0.488854,-0.484611 0.343407,-0.688638 -0.277798,-0.389681 -1.006411,0.484337 -4.06941,2.716778 -4.930332,3.593427 -2.405955,2.449924 -4.331438,5.210403 -4.988311,7.151529 -0.607395,1.794914 -0.602148,4.289026 0.01168,5.550437 0.501616,1.030828 1.510226,1.994583 2.652804,2.534824 1.0198,0.482192 2.988604,0.506716 4.080214,0.05081 z m -75.17055,-10.0084 c -0.878736,-1.752557 -1.434399,-3.63661 -1.972965,-6.689592 -0.491475,-2.786047 -0.761943,-3.461616 -1.730051,-4.321283 l -0.654454,-0.581157 0.835956,-0.737673 c 0.94175,-0.831029 1.110172,-1.261727 1.57621,-4.030833 0.383517,-2.278773 1.069395,-4.725822 1.835464,-6.548511 0.315485,-0.750621 0.570327,-1.446698 0.566315,-1.546842 -0.0087,-0.216995 -0.699289,0.493798 -3.373222,3.471911 -1.101181,1.226441 -2.736436,2.943387 -3.633899,3.815443 -0.897463,0.872045 -1.456886,1.522888 -1.2431609,1.446302 0.7263279,-0.260248 2.8662799,-0.434417 3.3343349,-0.271387 0.473878,0.165074 0.934739,0.955198 0.732235,1.255395 C 13.703035,67.458415 9.7828895,69.13717 7.74401,69.7591 l -2.1307352,0.649959 1.4506994,0.398268 c 1.9841083,0.544704 6.3841658,2.15805 6.7168238,2.462831 0.367618,0.336794 0.344169,0.481694 -0.165857,1.024903 -0.602328,0.641504 -2.094312,0.630101 -3.497326,-0.02673 -0.8488518,-0.397404 -0.6319567,-0.004 0.777184,1.409381 0.721323,0.723527 2.020557,2.110083 2.887184,3.081225 1.76416,1.976919 4.362657,4.572902 4.474635,4.470309 0.04024,-0.03689 -0.224387,-0.660486 -0.588067,-1.385812 z m 65.638363,0.175002 c 0.604339,-0.598037 1.986666,-2.09999 3.07184,-3.337672 1.085174,-1.23767 2.493804,-2.750965 3.13029,-3.362875 0.636486,-0.611909 1.121531,-1.111693 1.077877,-1.110626 -0.04365,0.001 -0.508575,0.121212 -1.033157,0.267016 -1.443269,0.401124 -2.374989,0.346682 -2.940964,-0.171851 -0.513759,-0.470688 -0.555935,-0.597469 -0.314635,-0.945767 0.246309,-0.355523 5.782423,-2.419242 7.608336,-2.83619 l 0.67881,-0.155012 -1.358846,-0.329884 c -0.747364,-0.181435 -2.145742,-0.687743 -3.107507,-1.125128 -0.961765,-0.437384 -2.207687,-0.952697 -2.768717,-1.145139 -1.11498,-0.382454 -1.299008,-0.770266 -0.723026,-1.523661 0.490265,-0.641279 2.012453,-0.68626 3.701568,-0.109371 0.205184,0.07002 -0.37012,-0.592803 -1.278453,-1.473061 -0.908333,-0.880257 -2.175837,-2.196515 -2.816675,-2.925022 -2.09832,-2.385371 -4.236641,-4.623311 -4.333084,-4.534955 -0.05201,0.04767 -0.0069,0.188701 0.100223,0.313449 0.107131,0.124748 0.389005,0.747491 0.626385,1.383872 1.066341,2.858711 1.49099,4.479172 2.040359,7.78604 0.282401,1.699873 0.658596,2.431073 1.636693,3.181165 l 0.489859,0.375666 -0.727616,0.585304 c -0.954156,0.767541 -1.211587,1.271909 -1.362043,2.668565 -0.292255,2.712957 -1.309368,6.513928 -2.265568,8.466467 -0.308675,0.630314 -0.486868,1.146013 -0.395986,1.146013 0.09089,0 0.6597,-0.489306 1.264037,-1.087343 z M 4.7827199,67.188716 c 4.0610484,-2.240449 7.9199941,-6.660423 9.2600231,-10.606275 0.500387,-1.473445 0.528335,-3.681158 0.0634,-5.008317 -1.099448,-3.138382 -5.6289514,-4.212229 -8.1842153,-1.9403 -1.824022,1.621769 -1.8224789,5.067374 0.00281,6.25814 1.5833245,1.032922 3.852865,0.429681 3.852865,-1.024084 0,-0.798436 -0.5802097,-1.170635 -1.3894454,-0.891313 C 7.8638181,54.157552 7.7608737,54.134208 7.4291144,53.759075 6.8665338,53.122946 6.9453,52.207586 7.6154523,51.593609 8.4297345,50.847584 9.0228318,50.770262 10.116727,51.267513 13.752725,52.92033 12.711656,58.770025 8.0476759,62.893379 7.1684267,63.670707 7.1095641,63.644376 7.5562714,62.673528 7.7237542,62.309528 7.9083454,61.491031 7.9664747,60.85465 8.057371,59.859584 8.015169,59.631857 7.6650344,59.22807 7.1513933,58.635725 6.4778596,58.478069 5.4958161,58.720339 4.6152699,58.937568 4.5609176,59.062702 5.1413195,59.5365 c 1.0124158,0.826455 1.2385088,2.721371 0.5313203,4.453063 -0.2273386,0.556675 -0.8807872,1.641092 -1.4521078,2.409792 -0.5713206,0.768711 -0.9266301,1.397653 -0.7895761,1.397653 0.1370541,0 0.7453524,-0.273734 1.3517738,-0.608292 z M 96.622132,67.6635 c -0.0032,-0.07348 -0.441945,-0.734289 -0.975088,-1.468578 -1.057266,-1.45615 -1.744616,-3.178696 -1.729983,-4.335471 0.0091,-0.721484 0.297186,-1.366016 1.039603,-2.326112 0.263072,-0.340198 0.308987,-0.531949 0.160052,-0.668393 -0.332783,-0.304894 -1.675545,-0.25718 -2.236326,0.07947 -0.927299,0.556656 -1.131695,2.428289 -0.406906,3.726001 0.46204,0.827268 0.302362,0.783843 -0.808115,-0.219759 -1.330574,-1.202508 -2.475992,-2.789543 -3.216455,-4.45655 -0.740021,-1.666011 -0.808464,-4.041436 -0.152228,-5.283403 0.487528,-0.92268 1.565778,-1.636957 2.677285,-1.773545 0.705764,-0.08673 0.85535,-0.03268 1.471113,0.531459 0.552745,0.50641 0.685461,0.763967 0.685461,1.330248 0,0.959515 -0.473243,1.340189 -1.482307,1.192358 -0.988763,-0.144855 -1.536408,0.326949 -1.338371,1.153025 0.397214,1.656904 3.280796,1.69546 4.462352,0.05968 1.441779,-1.996048 0.951445,-4.765147 -1.058786,-5.979366 -0.979427,-0.591591 -2.366701,-0.897388 -3.508856,-0.773455 -1.206495,0.130913 -2.792754,0.902419 -3.430536,1.668501 -0.636173,0.76415 -1.221037,2.529723 -1.221037,3.686033 0,3.383457 3.075668,8.384994 7.105172,11.554167 2.328054,1.830993 3.985028,2.793965 3.963956,2.303694 z M 19.890127,53.289241 c 3.729662,-3.505226 5.346366,-5.28487 6.789509,-7.473791 1.54456,-2.342749 2.330327,-4.820257 2.717416,-8.567976 0.247446,-2.395722 0.586337,-3.505841 1.374576,-4.50276 0.638178,-0.80713 1.843813,-1.429101 2.782931,-1.435673 0.524166,-0.0036 0.550942,-0.03899 0.43434,-0.573133 -0.173001,-0.792495 -0.598865,-1.331108 -1.324158,-1.674732 -0.520156,-0.246435 -0.770017,-0.26133 -1.564695,-0.09328 -2.77253,0.586332 -3.946281,2.958247 -3.482231,7.036899 0.271009,2.381977 0.289457,3.310734 0.06576,3.310734 -0.08995,0 -0.27133,-0.340442 -0.403072,-0.756539 -0.131741,-0.416096 -0.449596,-1.246242 -0.706344,-1.84477 -1.102007,-2.568985 -1.401297,-5.402231 -0.772307,-7.311062 0.385249,-1.169138 1.585353,-2.568646 2.729388,-3.182896 1.198152,-0.643304 3.031453,-0.787375 4.313081,-0.338946 2.781426,0.973194 4.398418,4.273638 3.172451,6.475291 -0.347752,0.624512 -0.627169,0.837773 -1.646785,1.256898 -1.180126,0.485101 -1.839962,1.059743 -2.442535,2.127167 -0.278941,0.494129 -1.175772,5.000123 -0.994474,4.996589 0.06601,-0.0013 0.469753,-0.69678 0.897203,-1.545542 1.706176,-3.387843 2.813404,-4.473296 4.725026,-4.632104 1.469708,-0.122098 2.303864,0.138359 3.231967,1.009148 0.970277,0.910362 1.16822,2.125575 0.506105,3.107095 -0.493675,0.731826 -1.488704,1.081338 -2.286914,0.803298 -0.453378,-0.157923 -0.485703,-0.239127 -0.393504,-0.988533 0.07942,-0.645633 0.02363,-0.886861 -0.266694,-1.152844 -0.92406,-0.846599 -2.012546,0.03406 -4.022835,3.254774 -0.346734,0.555506 -1.236851,1.777093 -1.978038,2.714637 -0.741188,0.937544 -1.316113,1.704626 -1.277612,1.704626 0.0385,0 1.056723,-0.534832 2.262715,-1.188514 5.768578,-3.126738 11.181005,-4.507773 17.666453,-4.507773 6.811869,0 13.144813,1.646006 18.473735,4.801538 0.667229,0.395101 1.250151,0.684462 1.29538,0.643024 0.04523,-0.04144 -0.346501,-0.582507 -0.870511,-1.202374 -0.524013,-0.619867 -1.329879,-1.727811 -1.790815,-2.462099 -1.836554,-2.925698 -2.601815,-3.794469 -3.527718,-4.00488 -0.792474,-0.18009 -1.216212,0.322642 -1.073873,1.274066 0.09504,0.635227 0.05157,0.795231 -0.257118,0.946588 -0.956046,0.46877 -2.336608,-0.111882 -2.834032,-1.191968 -0.255518,-0.55482 -0.270392,-0.798016 -0.08471,-1.385026 0.681537,-2.154571 3.818554,-2.999186 5.998582,-1.615067 0.948434,0.602171 1.441256,1.25999 2.810283,3.751175 0.591839,1.076955 1.080576,1.850841 1.086081,1.719748 0.0055,-0.131094 -0.173139,-1.210534 -0.396984,-2.398758 -0.587982,-3.121123 -0.971469,-3.687623 -3.155399,-4.661259 -0.986349,-0.439732 -1.27505,-0.674271 -1.635024,-1.328283 -0.791841,-1.438643 -0.377033,-3.506768 0.988413,-4.927965 0.976002,-1.015851 2.057554,-1.513043 3.523253,-1.61965 1.789639,-0.130167 2.684042,0.17192 3.985139,1.345995 1.577332,1.423341 2.018787,2.525782 2.008907,5.016826 -0.008,1.997541 -0.341303,3.239927 -1.59973,5.961587 l -0.575354,1.244349 0.03634,-3.647469 c 0.03554,-3.567554 0.02574,-3.666483 -0.44736,-4.515193 -0.869764,-1.560304 -2.475818,-2.380447 -4.034098,-2.060045 -0.964236,0.198262 -1.796824,1.049852 -1.796824,1.837837 0,0.531935 0.04958,0.586853 0.464338,0.514215 0.255385,-0.04472 0.861064,0.07946 1.345951,0.275966 1.633196,0.661882 2.431293,2.427043 2.840023,6.281312 0.540127,5.093342 1.568765,7.108857 6.213806,12.175353 1.489732,1.624898 6.983181,6.80935 6.696124,6.319475 -0.086,-0.14677 -0.689129,-0.947819 -1.340274,-1.780091 -2.871529,-3.670321 -3.78503,-5.691053 -3.78503,-8.372784 0,-2.238181 0.815008,-3.571261 2.815869,-4.60582 1.012134,-0.523331 1.07005,-0.590994 1.07005,-1.250134 0,-0.489986 -0.149324,-0.859441 -0.503011,-1.24454 -0.444363,-0.483828 -0.622243,-0.547685 -1.525634,-0.547685 -1.211525,0 -2.006077,0.420065 -2.958503,1.564107 -0.743944,0.893613 -0.996649,1.624794 -1.163026,3.365116 -0.107829,1.127904 0.0875,2.747806 0.454219,3.766742 0.193379,0.537322 -0.883635,-0.759375 -1.500633,-1.806723 -0.768694,-1.30485 -1.352432,-3.159171 -1.352432,-4.296172 0,-1.131868 0.501348,-2.973811 1.11763,-4.106147 0.266427,-0.489524 1.080488,-1.731137 1.809023,-2.759139 1.885953,-2.661173 2.583617,-4.1016 2.673217,-5.519238 0.06337,-1.002649 0.01803,-1.203759 -0.337989,-1.49894 -0.407087,-0.337527 -0.416569,-0.33619 -0.952777,0.134468 -1.487359,1.305531 -2.998656,-0.555159 -1.646607,-2.027285 0.970717,-1.056927 2.560059,-1.349655 3.90273,-0.718813 1.917308,0.900832 2.372203,2.317895 1.609434,5.013614 l -0.374359,1.323029 0.758349,-0.774681 c 2.821932,-2.882706 2.456492,-6.662357 -0.836252,-8.649139 -0.946304,-0.570982 -3.740735,-1.41096 -4.07935,-1.226209 -0.08015,0.04373 -0.145722,0.348996 -0.145722,0.678373 0,1.106145 -1.360427,2.164594 -3.108735,2.418683 -2.859498,0.41558 -6.035226,-1.120553 -7.324141,-3.542764 -0.453796,-0.852802 -0.547329,-1.28425 -0.604621,-2.788964 -0.05672,-1.489808 -0.0031,-1.917973 0.329114,-2.625631 0.218289,-0.465049 0.378139,-0.847238 0.35522,-0.84931 -0.02293,-0.002 -0.784851,-0.0236 -1.693185,-0.04784 -1.413589,-0.03772 -1.802449,-0.120171 -2.699199,-0.572329 -1.398068,-0.704932 -2.037999,-1.594565 -2.051141,-2.851503 -0.01443,-1.3802451 0.867693,-2.3927296 1.881546,-2.1595991 0.632313,0.1453975 0.796759,0.5492652 0.514666,1.263986 -0.479889,1.2158641 0.94964,2.5935741 2.686407,2.5890291 2.03556,-0.0052 3.635779,-0.888311 7.282558,-4.0184383 C 74.383202,6.6611195 76.011738,5.376258 76.58004,5.0265272 77.148341,4.6767964 77.576515,4.356939 77.531538,4.3157322 77.486568,4.2745232 76.204802,4.6428934 74.683185,5.1343276 71.433848,6.1837618 70.38188,6.2695974 69.086425,5.590999 L 68.26067,5.1584518 68.260368,6.5277007 c -4.57e-4,2.0781771 -0.67153,2.978493 -2.477601,3.3239788 L 65.150675,9.9725929 65.734193,9.4379884 C 66.453025,8.7794128 66.491038,8.0490646 65.864865,6.9273123 65.211952,5.7576547 64.095006,5.2515761 62.458812,5.3840557 c -1.435213,0.116206 -2.17816,0.46489 -3.017351,1.4161186 -0.539539,0.611572 -0.610136,0.8307409 -0.672435,2.0875725 -0.06266,1.2642732 -0.01164,1.5155722 0.511945,2.5208502 0.843352,1.619254 2.084426,2.693314 3.830854,3.315332 0.54603,0.194476 0.524688,0.202109 -0.337516,0.120705 -4.495772,-0.424459 -7.230371,-5.7471739 -4.713258,-9.1740456 l 0.652838,-0.8887926 h -8.642916 -8.642918 l 0.475652,0.5785288 c 1.058985,1.2880252 1.360821,3.1757778 0.789569,4.9381424 -0.383272,1.182426 -0.68788,1.641025 -1.813919,2.730918 -1.098628,1.063363 -2.45107,1.716302 -3.769756,1.819984 -0.711934,0.05598 -0.863293,0.03493 -0.519168,-0.07218 1.806348,-0.562268 3.355408,-1.851905 4.20172,-3.49806 0.637688,-1.240362 0.645727,-3.2516379 0.01706,-4.2685869 -1.058694,-1.7125802 -4.074305,-2.1760108 -5.7506,-0.8837377 -0.783013,0.6036309 -1.299805,2.0220808 -1.012155,2.7780686 0.115888,0.3045703 0.364102,0.6642118 0.551584,0.7992056 0.30468,0.2193783 0.27898,0.2330483 -0.242008,0.1287256 C 32.597272,9.4806283 32.034,8.721416 32.028336,6.6953921 32.024059,5.1538196 31.896451,5.0421787 30.858704,5.6718405 29.859187,6.2783047 28.348174,6.1548507 25.432083,5.2284711 24.050385,4.7895337 22.894886,4.4533234 22.864312,4.481336 c -0.03058,0.028009 0.444156,0.3866917 1.054961,0.7970647 0.610804,0.410374 2.072318,1.5887592 3.247808,2.6186353 4.014248,3.51698 6.411344,4.567884 8.551006,3.748816 1.01489,-0.388501 1.490772,-1.223134 1.341713,-2.3531716 -0.108598,-0.8232833 -0.07694,-0.9400604 0.305729,-1.1276913 0.621711,-0.3048378 1.319688,-0.073395 1.756051,0.582283 0.940774,1.4136089 -0.0094,3.4793109 -2.045407,4.4468609 -0.545802,0.259372 -1.225574,0.384799 -2.283267,0.421291 -0.828346,0.02857 -1.50552,0.115384 -1.50483,0.192899 6.88e-4,0.07751 0.10868,0.421298 0.239981,0.763965 0.131302,0.342668 0.23815,1.464124 0.237441,2.492126 -10e-4,1.582781 -0.07015,2.002315 -0.450847,2.738776 -1.004586,1.943397 -3.046633,3.27542 -5.670514,3.698864 -1.043041,0.168327 -1.336941,0.144804 -2.481625,-0.19862 -0.714154,-0.214257 -1.492649,-0.555958 -1.729988,-0.759335 -0.5278,-0.452274 -0.903359,-1.431353 -0.735217,-1.91671 0.173773,-0.501615 -0.519753,-0.477695 -2.116687,0.073 -1.502002,0.517962 -2.110425,0.850359 -3.096224,1.691549 -1.245646,1.062917 -1.584993,1.829329 -1.582,3.572923 0.0022,1.316482 0.08015,1.663412 0.599503,2.670134 0.547299,1.060902 1.587088,2.413155 1.74459,2.268856 0.03619,-0.03316 -0.06108,-0.497146 -0.216166,-1.031071 -0.569848,-1.961803 -0.250955,-3.789882 0.809933,-4.642991 1.134724,-0.912485 2.379603,-1.080515 3.6922,-0.498361 1.378305,0.611295 1.994063,1.91497 1.320577,2.795905 -0.398274,0.520953 -1.084492,0.501703 -1.800813,-0.05052 -0.662916,-0.511049 -1.137703,-0.4386 -1.408937,0.214994 -0.466774,1.124798 0.0584,2.817017 1.55116,4.998235 1.924535,2.812109 2.402474,3.535722 2.772569,4.197739 0.54573,0.976186 1.116199,2.687818 1.24894,3.747299 0.221423,1.767313 -0.881659,4.732065 -2.325937,6.251413 l -0.671545,0.706453 0.271181,-1.068054 c 0.509647,-2.007257 0.291196,-4.570356 -0.511222,-5.998191 -0.334158,-0.594608 -1.17104,-1.38239 -1.776299,-1.672087 -0.288565,-0.138117 -0.929181,-0.251121 -1.423591,-0.251121 -0.738505,0 -1.002305,0.09472 -1.478215,0.530731 -0.48918,0.448174 -0.569969,0.646964 -0.519368,1.277977 0.05555,0.692723 0.130418,0.782702 1.026091,1.233183 2.650259,1.332953 3.412275,3.798759 2.33309,7.549642 -0.375495,1.305091 -1.747002,3.58327 -3.132053,5.20258 -2.605293,3.045937 -2.425767,2.940214 1.882043,-1.108372 z M 43.916923,35.449124 c -0.541648,-0.07477 -0.540957,-0.076 0.441745,-0.792851 2.079244,-1.516744 3.947202,-4.658408 4.36984,-7.349507 l 0.138708,-0.883208 -0.87303,0.889623 c -0.490228,0.499546 -1.36369,1.117065 -1.992047,1.408336 -0.965562,0.447577 -1.334584,0.518099 -2.690942,0.514258 -1.305928,-0.0036 -1.736313,-0.08249 -2.543402,-0.46564 -1.023135,-0.485706 -2.313172,-1.635357 -2.857004,-2.546095 -0.556736,-0.932344 -0.799733,-2.738385 -0.559391,-4.157582 0.406426,-2.399896 1.061657,-3.290603 5.447455,-7.405165 3.376636,-3.16781 4.756499,-4.631038 6.432837,-6.8214753 0.85534,-1.1176569 0.863059,-1.1224801 1.153149,-0.7206235 1.409743,1.9528835 3.738194,4.4830748 6.607333,7.1797998 3.567641,3.353251 4.348598,4.242671 5.207481,5.930711 0.461486,0.906999 0.518231,1.231291 0.520751,2.976019 0.0025,1.730952 -0.05249,2.057306 -0.474052,2.813316 -0.597144,1.070895 -2.069879,2.348051 -3.269684,2.835471 -0.64808,0.263282 -1.31491,0.371817 -2.276609,0.370545 -1.883501,-0.0025 -3.096634,-0.509107 -4.467469,-1.865654 -1.05252,-1.041551 -1.062101,-1.046251 -0.951642,-0.466803 0.318195,1.669182 0.741518,2.874934 1.518272,4.32451 0.685572,1.27941 1.148605,1.860338 2.293414,2.877345 l 1.434413,1.274283 -0.569243,0.104306 c -0.631163,0.11565 -11.181558,0.0947 -12.040883,-0.02391 z M 18.26131,51.863831 c 0.594255,-1.146438 0.694037,-1.522956 0.701956,-2.648784 0.01098,-1.561457 -0.411019,-2.407436 -1.310895,-2.627926 -1.505905,-0.368982 -2.028146,0.421964 -1.089014,1.649339 0.712649,0.931383 1.07126,2.475097 0.915328,3.940224 -0.05992,0.562954 -0.0642,1.023553 -0.0095,1.023553 0.05468,0 0.411145,-0.601383 0.792144,-1.336406 z m 64.72988,-2.647544 c 0.131967,-0.282025 0.41263,-0.734963 0.623693,-1.006528 0.820982,-1.056315 0.173071,-2.035873 -1.091211,-1.649772 -0.810649,0.247565 -1.296553,0.969488 -1.396619,2.074998 -0.08992,0.993354 0.172308,1.979347 1.001085,3.764211 l 0.413279,0.890045 0.104916,-1.78009 c 0.0577,-0.979049 0.212889,-2.010838 0.344857,-2.292864 z M 7.1546021,46.817483 C 6.5134252,46.441786 5.8222676,45.961922 5.6186949,45.751119 5.0934071,45.207173 4.8585836,45.276359 5.1967281,45.875444 c 0.5028167,0.890833 1.5922064,1.62871 2.4017998,1.626814 l 0.7218495,-0.0017 z M 12.66572,45.53602 c 2.869886,-0.606239 4.143828,-3.289142 2.530616,-5.329442 -0.681166,-0.861496 -1.548239,-1.24706 -2.80445,-1.24706 -1.541957,0 -2.5036285,1.261199 -1.731636,2.270983 0.269462,0.352462 0.413831,0.381176 1.428115,0.284049 1.051923,-0.100729 1.136039,-0.08111 1.241865,0.289643 0.155838,0.54597 -0.120084,1.130351 -0.747035,1.582173 -0.39692,0.286044 -0.794893,0.378674 -1.617452,0.376466 -1.2984668,-0.0034 -2.3214336,-0.4716 -3.1899762,-1.459749 C 7.2753499,41.733756 7.1810923,41.45412 7.1001611,40.298746 6.8982859,37.416788 8.397785,35.755115 11.784095,35.108236 c 1.803249,-0.34447 5.090527,-0.06531 6.82926,0.579969 1.508364,0.559777 3.550805,1.695661 4.665769,2.594821 l 0.885239,0.713902 -0.772897,-1.066079 c -1.013404,-1.397816 -2.281658,-2.374231 -4.190517,-3.226231 -2.033419,-0.907596 -3.602492,-1.256461 -6.235827,-1.386463 -1.853405,-0.0915 -2.343715,-0.05393 -3.4973262,0.267949 -1.8649057,0.520348 -3.0577072,1.262728 -3.836104,2.387527 -1.110705,1.604992 -1.3980216,3.604189 -0.7883095,5.485207 0.9866591,3.043937 4.3686971,4.806734 7.8223377,4.077182 z m 78.944402,-0.385785 c 2.178148,-0.913599 3.411559,-2.433459 3.868274,-4.766645 0.561915,-2.870605 -1.095536,-5.458436 -4.235959,-6.613738 -0.967674,-0.355989 -1.460295,-0.413038 -3.552178,-0.411374 -4.976055,0.0039 -8.506438,1.476473 -11.010002,4.592246 -1.034861,1.28792 -1.099877,1.708429 -0.113439,0.733691 0.996763,-0.98494 3.302576,-2.347058 4.975753,-2.939338 0.782339,-0.276936 2.199623,-0.58385 3.249705,-0.703724 3.291757,-0.37578 5.791561,0.248249 7.250664,1.809992 2.409237,2.578712 0.505034,6.916581 -3.034943,6.91375 -1.485629,-0.0012 -2.487005,-0.855195 -2.205912,-1.881277 0.135465,-0.494491 0.589845,-0.554053 1.620895,-0.212474 0.590926,0.19577 0.692956,0.18237 0.9367,-0.123027 0.326024,-0.40849 0.35565,-1.225574 0.06262,-1.7272 -0.348941,-0.597349 -1.703553,-1.048151 -2.595666,-0.863813 -1.520774,0.31424 -2.461655,1.307986 -2.590961,2.736539 -0.147206,1.626306 0.974301,3.119738 2.834195,3.774101 1.091825,0.384134 3.222406,0.235045 4.540249,-0.317709 z M 18.52773,32.587338 c -2.844623,-2.033123 -4.084649,-3.269629 -5.131152,-5.116589 -1.41404,-2.495615 -0.914231,-5.408907 1.098186,-6.401133 0.397137,-0.19581 0.722304,-0.407398 0.722594,-0.470196 9.45e-4,-0.205618 -1.546827,-0.686862 -2.209077,-0.686862 -1.238373,0 -2.488842,1.146153 -2.849682,2.611958 -0.2423503,0.984476 0.113762,2.49437 0.95836,4.063378 l 0.766578,1.424072 -1.148701,-1.115912 C 7.6937652,23.941789 7.0786435,19.659569 9.3466421,17.23203 c 0.3552015,-0.380187 0.8816329,-0.796921 1.1698489,-0.926076 1.002154,-0.449084 0.293244,-1.555657 -0.9966099,-1.555657 -0.6652345,0 -0.8972975,0.11207 -1.5728275,0.759563 -0.5358578,0.513619 -0.9282201,1.133238 -1.2117505,1.913597 L 6.3160041,18.57749 6.2981319,17.400226 C 6.273843,15.799652 6.5540442,14.576577 7.2519626,13.236803 10.153879,7.6660783 17.098359,5.2866894 20.733905,8.6174826 c 3.283343,3.0081154 1.959296,7.7348964 -2.166668,7.7348964 -0.570409,0 -1.29893,-0.124046 -1.618937,-0.275656 -0.737088,-0.349212 -1.340166,-1.24587 -1.341105,-1.99396 l -7.26e-4,-0.578529 h 1.038513 c 1.542705,0 2.192297,-0.848453 1.569781,-2.050343 -0.606014,-1.170028 -2.035435,-1.4702034 -3.587178,-0.753297 -0.677541,0.313023 -0.987041,0.614399 -1.416753,1.379568 -0.471586,0.839735 -0.536274,1.126131 -0.454595,2.01266 0.183239,1.988816 1.458175,3.601981 3.530268,4.466817 3.133749,1.307941 7.69429,-0.51114 9.103962,-3.631332 0.735826,-1.628689 0.548992,-4.116639 -0.448553,-5.9730837 C 24.212698,7.5981424 22.253272,5.7632361 20.935392,5.2033101 18.542246,4.186539 15.22267,4.1699371 12.773537,5.1624864 11.833293,5.5435367 10.205986,6.6234125 9.8151479,7.1256638 9.4434112,7.603368 9.2589638,7.5276698 9.1385771,6.8479951 8.966823,5.8783221 8.1438131,4.8441372 7.3538,4.6052658 6.5255007,4.3548169 5.2816271,4.5117277 4.7051816,4.9393733 L 4.294776,5.2438422 4.9687343,5.7148045 C 5.3394109,5.9738328 5.7861454,6.4627322 5.9614782,6.8012454 6.31145,7.4769343 6.3863799,9.1812935 6.1036122,10.03423 4.9306694,13.572279 4.78188,14.150217 4.5396958,16.108899 c -0.5824926,4.710962 1.5065363,9.561159 5.3397501,12.397555 1.2958221,0.958845 4.8621511,2.815448 7.0870941,3.689484 0.801471,0.314845 1.54028,0.643734 1.641801,0.730862 0.101512,0.08712 0.276385,0.154655 0.388591,0.150058 0.112207,-0.0045 -0.09894,-0.224883 -0.469207,-0.489525 z M 84.535941,31.546495 C 89.193957,29.51874 91.3489,27.998803 93.154325,25.46773 95.922196,21.587381 96.379532,16.752795 94.499319,11.249563 93.420964,8.0933082 93.543406,6.9677285 95.095243,5.7714019 L 95.71691,5.2921529 95.292662,4.9034674 C 94.741008,4.3980564 93.079959,4.3599359 92.289344,4.8345435 91.814544,5.119567 91.23456,6.0221312 90.903096,6.9918071 90.796166,7.3046237 90.735028,7.2872322 90.161316,6.7807969 87.364032,4.3115409 82.276998,3.6742174 78.946943,5.3758157 c -1.443017,0.7373565 -3.108774,2.3222855 -3.755071,3.5728649 -1.982117,3.8353754 -0.582595,7.8297954 3.332449,9.5112534 0.926832,0.398062 1.366,0.47292 2.754173,0.469463 1.397315,-0.0034 1.818889,-0.07883 2.738932,-0.489542 2.010385,-0.897448 3.172026,-2.320509 3.411516,-4.179257 0.22964,-1.78229 -0.755285,-3.335936 -2.401207,-3.787729 -1.692583,-0.464602 -3.36065,0.385696 -3.36065,1.713093 0,0.97688 0.431495,1.318275 1.666191,1.318275 0.978962,0 1.028602,0.02305 1.151207,0.534474 0.168006,0.700808 -0.455442,1.641387 -1.344031,2.027705 -0.812505,0.353238 -2.672097,0.372423 -3.377401,0.03484 -1.30416,-0.624214 -2.17618,-1.969366 -2.17618,-3.356914 0,-1.725415 0.472951,-2.7592235 1.814548,-3.9663561 0.988303,-0.8892478 1.402546,-1.1298124 2.37556,-1.3795691 3.097005,-0.7949467 5.898727,0.028944 8.638551,2.5402995 2.34826,2.1524437 3.496803,4.6698987 3.489222,7.6479137 -0.002,0.820376 -0.05913,1.089259 -0.191319,0.901855 -0.103593,-0.146858 -0.189685,-0.412328 -0.191321,-0.589936 -0.01002,-1.086293 -1.56193,-3.008492 -2.62662,-3.253313 -0.724518,-0.166598 -1.519227,0.285002 -1.666545,0.947032 -0.117643,0.528665 -0.07162,0.60033 0.571458,0.890045 2.367473,1.066566 3.103095,4.905416 1.516577,7.914273 -0.612883,1.162343 -2.574989,3.48123 -2.783765,3.289954 -0.04486,-0.0411 0.09039,-0.345162 0.300547,-0.675693 1.705997,-2.683093 1.481738,-5.94558 -0.467222,-6.797067 -0.850025,-0.371371 -1.772461,-0.384076 -2.679376,-0.03692 -0.928042,0.355257 -1.031514,0.573261 -0.338297,0.712754 0.727406,0.146373 1.675356,1.12294 1.941115,1.999715 0.627042,2.06869 -0.224935,4.706796 -2.210611,6.845048 -0.55259,0.595052 -2.415186,2.072084 -3.614448,2.866244 l -0.477876,0.316453 0.456499,-0.111558 c 0.251074,-0.06136 1.64265,-0.627923 3.092393,-1.259034 z M 10.554779,31.418572 c 0,-0.03551 -0.546456,-0.311998 -1.2143491,-0.614417 C 7.9826479,30.189359 6.4831008,28.960949 5.5122617,27.668165 4.9713812,26.947921 4.8375605,26.856443 4.686529,27.103699 c -0.2998043,0.490813 0.1764607,2.09863 0.8401724,2.836333 0.7991518,0.888239 1.5332341,1.203785 3.1683036,1.361899 0.7557187,0.07308 1.483327,0.143747 1.616905,0.15704 0.133579,0.01329 0.242869,-0.0048 0.242869,-0.04039 z m 83.200952,-0.751673 c 0.447367,-0.288064 0.978931,-0.783434 1.181256,-1.10082 0.432461,-0.678406 0.70073,-2.711171 0.357798,-2.711171 -0.121704,0 -0.22128,0.07206 -0.22128,0.160135 0,0.336272 -1.580554,2.066671 -2.565353,2.808561 -0.566018,0.426404 -1.466289,0.935908 -2.000603,1.13223 l -0.97148,0.356949 1.703135,-0.06107 c 1.513865,-0.05428 1.793528,-0.11927 2.516527,-0.584818 z m -64.62191,-9.29774 c 0.922979,-0.433557 1.446043,-0.945094 2.035484,-1.990628 0.369455,-0.655332 0.451164,-1.076269 0.449196,-2.314117 -0.002,-1.311307 -0.08127,-1.66737 -0.593853,-2.670135 -0.565127,-1.105568 -2.149059,-3.137702 -2.322093,-2.979173 -0.04532,0.04152 0.06567,0.428432 0.246641,0.8598 0.248089,0.591343 0.331707,1.375546 0.339868,3.187428 0.0096,2.140151 -0.03791,2.500516 -0.434534,3.293165 -0.568342,1.135823 -1.245935,1.785255 -2.464633,2.362204 -0.928845,0.439728 -0.950162,0.466015 -0.48574,0.598969 0.760909,0.217832 2.402056,0.04124 3.229664,-0.347513 z M 74.065258,21.7594 c 0.785333,-0.1439 0.770124,-0.34589 -0.0446,-0.592232 -1.020413,-0.308537 -2.15996,-1.318497 -2.662159,-2.359423 -0.363027,-0.752458 -0.470518,-1.34162 -0.533565,-2.924483 -0.07408,-1.859789 0.08474,-2.835974 0.669395,-4.114615 0.05596,-0.122381 0.02171,-0.222512 -0.07611,-0.222512 -0.288946,0 -1.803169,1.960892 -2.40556,3.115158 -1.071202,2.052576 -0.64598,4.827126 0.950184,6.199889 0.987198,0.849028 2.528792,1.18656 4.102406,0.898218 z"
       id="path1" /></g></svg>
