<?xml version="1.0" encoding="UTF-8" standalone="no"?>
<!-- Created with Inkscape (http://www.inkscape.org/) -->

<svg
   width="100.623mm"
   height="140.623mm"
   viewBox="0 0 100.623 140.623"
   version="1.1"
   id="svg1"
   xmlns:xlink="http://www.w3.org/1999/xlink"
   xmlns="http://www.w3.org/2000/svg"
   xmlns:svg="http://www.w3.org/2000/svg">
  <defs
     id="defs1">
    <linearGradient
       id="linearGradient4">
      <stop
         style="stop-color:#ededed;stop-opacity:1;"
         offset="0"
         id="stop4" />
      <stop
         style="stop-color:#f5f5f5;stop-opacity:1;"
         offset="1"
         id="stop5" />
    </linearGradient>
    <linearGradient
       id="linearGradient2">
      <stop
         style="stop-color:#cfcfcf;stop-opacity:1;"
         offset="0"
         id="stop2" />
      <stop
         style="stop-color:#ffffff;stop-opacity:1;"
         offset="1"
         id="stop3" />
    </linearGradient>
    <linearGradient
       xlink:href="#linearGradient2"
       id="linearGradient3"
       x1="86.426285"
       y1="112.67091"
       x2="9.0498734"
       y2="25.113398"
       gradientUnits="userSpaceOnUse" />
    <linearGradient
       xlink:href="#linearGradient4"
       id="linearGradient5"
       x1="51.358032"
       y1="127.82946"
       x2="51.358028"
       y2="17.194757"
       gradientUnits="userSpaceOnUse" />
  </defs>
  <g
     id="layer1">
    <rect
       style="fill:url(#linearGradient3);stroke:none;stroke-width:0.623001;stroke-linecap:round;stroke-linejoin:round;paint-order:markers fill stroke;fill-opacity:1"
       id="rect1"
       width="100"
       height="140"
       x="0.31150049"
       y="0.31150049"
       rx="2.7030716"
       ry="2.7030716" />
    <rect
       style="fill:url(#linearGradient5);stroke:none;stroke-width:0.623001;stroke-linecap:round;stroke-linejoin:round;paint-order:markers fill stroke;fill-opacity:1"
       id="rect2"
       width="97.264694"
       height="137.41437"
       x="1.4913578"
       y="1.5113554"
       rx="1.8687865"
       ry="1.8687865" />
    <text
       xml:space="preserve"
       style="font-style:normal;font-weight:normal;font-size:42.4511px;line-height:1.25;font-family:sans-serif;fill:#000000;fill-opacity:1;stroke:none;stroke-width:1.06128"
       x="11.186439"
       y="88.680748"
       id="text5"><tspan
         x="11.186439"
         y="88.680748"
         id="tspan8" /></text>
    <text
       xml:space="preserve"
       style="font-style:normal;font-weight:normal;font-size:42.4511px;line-height:1.25;font-family:sans-serif;fill:#000000;fill-opacity:1;stroke:none;stroke-width:1.06128"
       x="11.638932"
       y="101.80307"
       id="text9"><tspan
         id="tspan9"
         style="font-style:normal;font-variant:normal;font-weight:normal;font-stretch:normal;font-family:Poppins;-inkscape-font-specification:Poppins;stroke-width:1.06128"
         x="11.638932"
         y="101.80307" /></text>
    <path
       id="rect9"
       style="fill:#ff0000;fill-opacity:1;stroke-width:0.256518;stroke-linecap:round;stroke-linejoin:round;paint-order:markers fill stroke"
       d="m 50.116155,61.637964 c 3.68054,-13.34842 31.91675,-4.93266 9.55361,15.08134 l -9.55361,8.55006 -9.55361,-8.55006 c -22.05835,-19.74122 5.17936,-28.352491 9.55361,-15.08134 z" />
    <path
       id="path15"
       style="fill:#ff0000;fill-opacity:1;stroke-width:0.11236;stroke-linecap:round;stroke-linejoin:round;paint-order:markers fill stroke"
       d="m 19.045426,39.756486 c 1.612139,-5.846842 13.980088,-2.16059 4.184654,6.605885 l -4.184654,3.745078 -4.184654,-3.745078 C 5.1988464,37.71538 17.129439,33.943494 19.045426,39.756486 Z" />
    <path
       style="font-size:25.3338px;line-height:1.25;font-family:Poppins;-inkscape-font-specification:Poppins;fill:#ff0000;stroke-width:0.843377"
       d="m 13.296924,27.578759 q 3.238552,-2.800003 5.093978,-4.587958 1.889155,-1.821689 3.137362,-3.778318 1.248194,-1.956629 1.248194,-3.913258 0,-2.024099 -0.978315,-3.171088 -0.944584,-1.146989 -3.002416,-1.146989 -1.990371,0 -3.103619,1.281929 -1.079517,1.248194 -1.14699,3.373498 h -3.710851 q 0.101203,-3.845788 2.293981,-5.8698866 2.226508,-2.0578337 5.633736,-2.0578337 3.677121,0 5.734953,2.0240985 2.091561,2.0240988 2.091561,5.3975968 0,2.428919 -1.248193,4.689163 -1.214451,2.226509 -2.934943,4.014462 -1.686749,1.75422 -4.31807,4.081934 l -1.518072,1.349399 h 10.693983 v 3.204823 H 10.867997 v -2.800003 z"
       id="text19"
       aria-label="2" />
  </g>
</svg>
