<?xml version="1.0" encoding="UTF-8" standalone="no"?>
<!-- Created with Inkscape (http://www.inkscape.org/) -->

<svg
   width="100.623mm"
   height="140.623mm"
   viewBox="0 0 100.623 140.623"
   version="1.1"
   id="svg1"
   xmlns:xlink="http://www.w3.org/1999/xlink"
   xmlns="http://www.w3.org/2000/svg"
   xmlns:svg="http://www.w3.org/2000/svg">
  <defs
     id="defs1">
    <linearGradient
       id="linearGradient4">
      <stop
         style="stop-color:#ededed;stop-opacity:1;"
         offset="0"
         id="stop4" />
      <stop
         style="stop-color:#f5f5f5;stop-opacity:1;"
         offset="1"
         id="stop5" />
    </linearGradient>
    <linearGradient
       id="linearGradient2">
      <stop
         style="stop-color:#cfcfcf;stop-opacity:1;"
         offset="0"
         id="stop2" />
      <stop
         style="stop-color:#ffffff;stop-opacity:1;"
         offset="1"
         id="stop3" />
    </linearGradient>
    <linearGradient
       xlink:href="#linearGradient2"
       id="linearGradient3"
       x1="86.426285"
       y1="112.67091"
       x2="9.0498734"
       y2="25.113398"
       gradientUnits="userSpaceOnUse" />
    <linearGradient
       xlink:href="#linearGradient4"
       id="linearGradient5"
       x1="51.358032"
       y1="127.82946"
       x2="51.358028"
       y2="17.194757"
       gradientUnits="userSpaceOnUse" />
  </defs>
  <g
     id="layer1">
    <rect
       style="fill:url(#linearGradient3);stroke:none;stroke-width:0.623001;stroke-linecap:round;stroke-linejoin:round;paint-order:markers fill stroke;fill-opacity:1"
       id="rect1"
       width="100"
       height="140"
       x="0.31150049"
       y="0.31150049"
       rx="2.7030716"
       ry="2.7030716" />
    <rect
       style="fill:url(#linearGradient5);stroke:none;stroke-width:0.623001;stroke-linecap:round;stroke-linejoin:round;paint-order:markers fill stroke;fill-opacity:1"
       id="rect2"
       width="97.264694"
       height="137.41437"
       x="1.4913578"
       y="1.5113554"
       rx="1.8687865"
       ry="1.8687865" />
    <text
       xml:space="preserve"
       style="font-style:normal;font-weight:normal;font-size:42.4511px;line-height:1.25;font-family:sans-serif;fill:#000000;fill-opacity:1;stroke:none;stroke-width:1.06128"
       x="11.186439"
       y="88.680748"
       id="text5"><tspan
         x="11.186439"
         y="88.680748"
         id="tspan8" /></text>
    <text
       xml:space="preserve"
       style="font-style:normal;font-weight:normal;font-size:42.4511px;line-height:1.25;font-family:sans-serif;fill:#000000;fill-opacity:1;stroke:none;stroke-width:1.06128"
       x="11.638932"
       y="101.80307"
       id="text9"><tspan
         id="tspan9"
         style="font-style:normal;font-variant:normal;font-weight:normal;font-stretch:normal;font-family:Poppins;-inkscape-font-specification:Poppins;stroke-width:1.06128"
         x="11.638932"
         y="101.80307" /></text>
    <path
       id="path13"
       style="fill:#000000;fill-opacity:1;stroke-width:0.233845;stroke-linecap:round;stroke-linejoin:round;paint-order:markers fill stroke"
       d="m 50.39088,55.671079 a 8.1047339,8.1047339 0 0 0 -8.10451,8.1045 8.1047339,8.1047339 0 0 0 0.42747,2.54961 8.1047339,8.1047339 0 0 0 -1.16958,-0.0851 8.1047339,8.1047339 0 0 0 -8.10505,8.10451 8.1047339,8.1047339 0 0 0 8.10505,8.10451 8.1047339,8.1047339 0 0 0 2.14656,-0.29836 c 2.2086,-0.22029 4.63297,-1.71335 6.15541,-4.67066 -0.78748,2.49253 -1.6799,4.95533 -3.11052,7.28591 h 7.31142 c -1.44477,-2.20889 -2.29117,-4.57043 -3.01723,-6.92247 1.00607,1.91732 2.40808,3.09382 3.8624,3.63075 a 8.1047339,8.1047339 0 0 0 3.81139,0.97483 8.1047339,8.1047339 0 0 0 8.10451,-8.10451 8.1047339,8.1047339 0 0 0 -8.10451,-8.10451 8.1047339,8.1047339 0 0 0 -0.62004,0.0445 8.1047339,8.1047339 0 0 0 0.41227,-2.50893 8.1047339,8.1047339 0 0 0 -8.10504,-8.10452 z" />
    <path
       id="path18"
       style="fill:#000000;fill-opacity:1;stroke-width:0.103049;stroke-linecap:round;stroke-linejoin:round;paint-order:markers fill stroke"
       d="m 19.298052,37.308486 a 3.5715444,3.5715444 0 0 0 -3.571442,3.571447 3.5715444,3.5715444 0 0 0 0.188375,1.12354 3.5715444,3.5715444 0 0 0 -0.515408,-0.03748 3.5715444,3.5715444 0 0 0 -3.571683,3.571454 3.5715444,3.5715444 0 0 0 3.571683,3.571447 3.5715444,3.5715444 0 0 0 0.945932,-0.131478 c 0.973263,-0.09707 2.04163,-0.755033 2.712523,-2.058245 -0.347008,1.098397 -0.740276,2.183694 -1.37071,3.210717 h 3.221942 c -0.636677,-0.973406 -1.009662,-2.014075 -1.329608,-3.050555 0.443346,0.844918 1.061187,1.363365 1.702044,1.599975 a 3.5715444,3.5715444 0 0 0 1.67959,0.42959 3.5715444,3.5715444 0 0 0 3.571442,-3.571447 3.5715444,3.5715444 0 0 0 -3.571442,-3.571454 3.5715444,3.5715444 0 0 0 -0.273231,0.0196 3.5715444,3.5715444 0 0 0 0.181676,-1.105621 3.5715444,3.5715444 0 0 0 -3.571683,-3.571446 z" />
    <path
       style="font-size:25.3338px;line-height:1.25;font-family:Poppins;-inkscape-font-specification:Poppins;stroke-width:0.848492"
       d="M 26.070054,11.140814 H 14.700283 v 6.753978 q 0.712731,-0.95031 2.10426,-1.595162 1.425463,-0.644851 3.020626,-0.644851 2.850926,0 4.615775,1.221825 1.798809,1.221826 2.545476,3.088503 0.780614,1.866677 0.780614,3.936991 0,2.511529 -0.984248,4.480026 -0.950314,1.934556 -2.884875,3.054563 -1.900613,1.120006 -4.683657,1.120006 -3.699423,0 -5.939435,-1.832737 -2.240012,-1.832738 -2.681227,-4.853361 h 3.767305 q 0.373333,1.59516 1.663032,2.545469 1.289712,0.916368 3.224259,0.916368 2.409712,0 3.597607,-1.459401 1.221816,-1.459404 1.221816,-3.869113 0,-2.443651 -1.221816,-3.733355 -1.22183,-1.323644 -3.597607,-1.323644 -1.663031,0 -2.816978,0.84849 -1.120013,0.81455 -1.629111,2.240012 H 11.136624 V 7.7468552 h 14.93343 z"
       id="text25"
       aria-label="5" />
  </g>
</svg>
