<svg width="114.66mm" height="82.01mm" viewBox="0 0 114.6615 82.007027" xmlns="http://www.w3.org/2000/svg">
  <g transform="translate(-41.594357,-89.062006)">
    <path d="m 51.780323,108.5316 h 9.088412 v 16.48495 q 0,9.37039 -9.370392,9.39208 -9.348701,0 -9.348701,-9.39208 V 98.987684 q 0,-9.370393 9.348701,-9.370393 9.370392,0 9.370392,9.370393 v 6.160166 h -7.22301 v -6.160166 q 0,-2.429361 -2.125691,-2.451052 h -0.04338 q -2.104,0 -2.104,2.451052 v 26.028866 q 0,2.45105 2.125691,2.45105 2.147382,0 2.147382,-2.45105 v -9.54392 h -1.865404 z m 32.579465,16.48495 q 0,9.37039 -9.370392,9.39208 -9.348702,0 -9.348702,-9.39208 V 98.987684 q 0,-9.370393 9.348702,-9.370393 9.370392,0 9.370392,9.370393 z M 77.136777,98.987684 q 0,-2.429361 -2.12569,-2.451052 h -0.04338 q -2.104,0 -2.104,2.451052 v 26.028866 q 0,2.45105 2.125691,2.45105 2.147381,0 2.147381,-2.45105 z m 30.714063,26.028866 q 0,9.37039 -9.370392,9.39208 -9.348701,0 -9.348701,-9.39208 V 98.987684 q 0,-9.370393 9.348701,-9.370393 9.370392,0 9.370392,9.370393 v 6.160166 h -7.22301 v -6.160166 q 0,-2.429361 -2.125691,-2.451052 h -0.04338 q -2.104,0 -2.104,2.451052 v 26.028866 q 0,2.45105 2.12569,2.45105 2.147381,0 2.147381,-2.45105 v -6.16016 h 7.22301 z m 4.98887,-34.726846 h 7.22301 V 108.5316 h 4.27307 V 90.289704 h 7.22301 v 43.424826 h -7.22301 v -18.2419 h -4.27307 v 18.2419 h -7.22301 z m 42.86086,34.726846 q 0,9.37039 -9.37039,9.39208 -9.3487,0 -9.3487,-9.39208 V 90.289704 h 7.22301 v 34.726846 q 0,2.45105 2.12569,2.45105 2.14738,0 2.14738,-2.45105 V 90.289704 h 7.22301 z" fill="none" stroke="#000" stroke-width="1.11057"/>
    <path d="m 63.739575,153.19535 h 6.277512 v 11.38642 q 0,6.47228 -6.472279,6.48726 -6.457298,0 -6.457298,-6.48726 v -17.97855 q 0,-6.47228 6.457298,-6.47228 6.472279,0 6.472279,6.47228 v 4.25492 h -4.989049 v -4.25492 q 0,-1.678 -1.468248,-1.69298 h -0.02996 q -1.453266,0 -1.453266,1.69298 v 17.97855 q 0,1.69298 1.468249,1.69298 1.48323,0 1.48323,-1.69298 v -6.59213 H 63.73958 Z m 22.488175,6.63709 1.423302,10.75717 h -5.033995 l -0.824017,-6.23257 h -3.670622 l -0.838999,6.23257 h -5.019013 l 1.423302,-10.71223 3.041373,-19.282 h 6.472279 z m -5.078942,-0.26968 -1.19857,-9.07917 -1.19857,9.07917 z m 18.652749,0.91391 4.614493,-19.88129 h 4.92912 v 29.99423 h -4.80926 v -13.79855 l -2.9365,13.79855 h -3.505816 l -3.041372,-13.88844 v 13.88844 h -4.85421 v -29.99423 h 4.929121 z m 13.438973,-19.88129 h 11.74599 v 4.7793 h -6.75694 v 7.82067 h 5.81306 v 4.79429 h -5.81306 v 7.82067 h 6.75694 v 4.7793 h -11.74599 z m 14.59259,6.00784 q 0,-6.47228 6.4573,-6.47228 6.47228,0 6.47228,6.47228 v 4.25492 h -4.98905 v -4.25492 q 0,-1.678 -1.46825,-1.69298 h -0.03 q -1.45327,0 -1.45327,1.69298 v 2.66682 q 0,1.82782 3.83543,4.58453 4.1051,2.92151 4.1051,7.01163 v 3.71557 q 0,6.48726 -6.4573,6.48726 -6.47228,-0.015 -6.47228,-6.48726 v -4.25492 h 4.98905 v 4.25492 q 0,1.69298 1.48323,1.69298 1.46825,0 1.46825,-1.69298 v -3.35599 q 0,-1.99263 -3.83542,-4.74934 -4.10511,-2.92151 -4.10511,-7.11651 z" stroke-width="0.767087"/>
  </g>
</svg>