<?xml version="1.0" encoding="UTF-8" standalone="no"?>
<!-- Created with Inkscape (http://www.inkscape.org/) -->

<svg
   width="30.411695mm"
   height="18.061176mm"
   viewBox="0 0 30.411695 18.061176"
   version="1.1"
   id="svg1"
   xmlns="http://www.w3.org/2000/svg"
   xmlns:svg="http://www.w3.org/2000/svg">
  <defs
     id="defs1" />
  <g
     id="layer1"
     transform="translate(-46.612372,-90.756834)">
    <g
       id="text1"
       style="fill:#ffffff;stroke-width:0.25;stroke:#ffffff;"
       aria-label="GYUTTO&#10;GAMES">
      <path
         d="m 47.118799,95.92446 c 0,1.367699 0.689017,2.051548 2.067051,2.051548 h 2.583813 v -4.123766 h -1.774276 v 1.12594 c 0.147116,0.07083 0.223988,0.207089 0.223988,0.32189 V 96.42572 H 49.18585 c -0.344509,0 -0.516763,-0.168809 -0.516763,-0.506427 v -3.100576 h 3.100576 V 91.268429 H 48.66057 c -0.688011,0 -1.37187,0.106795 -2.048198,0.28509 v 1.550288 l 0.506427,-0.137266 z m 8.247532,0.346231 c -0.06545,0.451306 -0.749302,0.676959 -2.051547,0.676959 h -0.542601 v 1.545121 h 0.542601 c 2.211744,0 3.407188,-0.644231 3.586333,-1.932693 h 0.0155 v -0.180867 c 0.0035,-0.05512 0.0052,-0.111964 0.0052,-0.170531 h -0.0052 v -0.227376 l 0.397908,-1.467606 -0.397908,-0.155029 v -3.121246 h -1.54512 v 2.666495 l -0.04651,-0.0155 c -0.788924,-0.206705 -1.291906,-0.196368 -1.508947,0.03101 l -0.0052,-2.65616 h -1.545121 l 0.0052,4.041084 1.229895,0.454751 c 0.416855,-0.461641 0.881942,-0.587387 1.395259,-0.377237 l 0.470254,0.139526 z m 6.032721,-0.868161 c -0.0069,0.692462 -0.349672,1.038693 -1.028357,1.038693 -0.695907,0 -1.042138,-0.346231 -1.038693,-1.038693 v -1.555456 c 0.0035,-0.627005 0.346252,-1.024912 1.028357,-1.193721 l 0.232543,-1.446936 -2.713004,-0.439248 -0.211872,1.534785 0.43408,0.07235 c -0.21015,0.389295 -0.315225,0.883664 -0.315225,1.483109 v 1.560623 c -0.0069,1.712207 0.856107,2.570033 2.588981,2.573478 0.385849,-0.0035 0.728635,-0.04825 1.028358,-0.134358 v 0.149861 l 1.550288,0.0052 V 91.263261 H 61.40422 v 2.650992 z m 5.146955,2.568311 0.0052,-5.152124 h 0.774368 v -1.550288 h -0.774368 v -0.511595 h -1.550288 v 0.511595 h -1.54512 v 1.550288 h 1.54512 v 5.720562 z m 3.5761,0 0.0052,-5.152124 h 1.565791 v -1.550288 h -1.565791 v -0.511595 h -1.550288 v 0.511595 H 67.82332 v 1.550288 h 0.753699 v 5.720562 z m 3.284623,-4.123767 c 0.0035,-0.682127 0.353143,-1.02319 1.049028,-1.02319 0.678681,0 1.012854,0.347954 1.002519,1.043861 l 0.0155,1.534785 c -0.0069,0.692462 -0.349672,1.038693 -1.028357,1.038693 -0.695907,0 -1.042138,-0.346231 -1.038693,-1.038693 z m 3.617338,0.0052 c 0,-1.719097 -0.854381,-2.578646 -2.563143,-2.578646 -1.732877,0.0035 -2.599316,0.864738 -2.599316,2.583814 v 1.560623 c -0.0069,1.712207 0.856107,2.570033 2.588981,2.573478 1.708762,-0.0035 2.563143,-0.863015 2.563143,-2.578646 z"
         id="path1"
         stroke-dasharray="100"
         stroke-dashoffset="100">
        <animate
          attributeName="stroke-dashoffset"
          from="400"
          to="0"
          dur="7s"
          fill="freeze"
          repeatCount="indefinite" />
      </path>
      <path
         id="path2"
         d="m 49.202655,105.19524 c 0,1.3677 0.689017,2.05155 2.067051,2.05155 h 2.583813 v -4.12376 h -1.774276 v 1.12594 c 0.147116,0.0708 0.223988,0.20708 0.223988,0.32189 v 1.12564 h -1.033525 c -0.344509,0 -0.516763,-0.16881 -0.516763,-0.50642 v -3.10058 h 3.100576 v -1.55029 h -3.109093 c -0.688011,0 -1.37187,0.1068 -2.048198,0.28509 v 1.55029 l 0.506427,-0.13727 z m 7.193043,-3.11065 h 1.364253 v 1.03869 h -1.364253 z m -1.539953,5.16246 c 1.002519,-0.44786 1.519282,-1.31258 1.550288,-2.59415 h 1.353918 l 0.0155,3.10058 1.534785,-0.51676 v -6.69725 H 56.40603 v -0.51159 h -1.550288 v 0.51159 h -0.537433 v 1.55029 h 0.532265 v 2.57864 c -0.03101,0.45475 -0.211873,0.79926 -0.5426,1.03353 l 0.52193,1.55546 c 0.0069,-0.003 0.01378,-0.007 0.02067,-0.0103 v 0.0103 z m 8.521416,-0.99218 c -0.03789,0.44097 -0.21876,0.77686 -0.5426,1.00768 l 0.52193,1.55546 c 1.064531,-0.4582 1.596797,-1.3677 1.596797,-2.72851 h -0.0052 v -5.5552 l -1.560623,0.0103 v 0.60978 l -1.049029,1.04386 -1.04386,-1.04386 v -0.62528 h -1.560624 v 6.72825 l 1.560624,-0.005 -0.0052,-3.91706 1.054196,1.04903 1.049028,-1.04903 z m 2.594149,-1.05937 c 0,1.3677 0.689017,2.05155 2.067051,2.05155 h 2.067051 v -1.55029 h -2.067051 c -0.344509,0 -0.516763,-0.16881 -0.516763,-0.50643 v -0.51159 h 2.583814 v -1.55029 h -2.583814 v -1.03869 h 2.583814 v -1.55029 h -2.583814 v -0.51159 H 65.97131 v 0.51159 h -0.506427 v 1.55029 h 0.506427 z m 9.312065,-2.01537 c -0.675237,-0.54088 -1.557178,-0.65285 -2.645825,-0.3359 l -0.465087,0.13953 c 0.05857,-0.60978 0.411688,-0.91467 1.059364,-0.91467 h 2.051548 l -0.01034,-1.54512 h -2.051547 c -1.732878,-0.003 -2.597594,0.86483 -2.594149,2.60448 v 0.31523 l -0.222208,0.0672 0.227376,1.05419 v 0.11886 h 0.02584 l 0.07235,0.33589 2.330599,-0.68212 c 0.213595,-0.062 0.41341,-0.0861 0.599445,-0.0724 l 0.01033,0.42375 c 0.02756,0.67179 -0.299723,1.00768 -0.981849,1.00768 h -2.072218 v 1.55029 h 2.072218 c 1.715652,0 2.576923,-0.85266 2.583813,-2.55797 z"
         stroke-dasharray="150"
         stroke-dashoffset="150">
        <animate
          attributeName="stroke-dashoffset"
          from="350"
          to="0"
          dur="7s"
          begin="1s"
          fill="freeze"
          repeatCount="indefinite" />
      </path>
    </g>
  </g>
</svg>
